<svg xmlns="http://www.w3.org/2000/svg" xmlns:svg="http://www.w3.org/2000/svg" id="svg2011" width="600" height="400" version="1.0"><metadata id="metadata2016"/><g id="layer1" transform="translate(-7.238948,-16.30667)"><g id="g2897" transform="matrix(1.846965,0,0,1.846965,-190.8276,-484.5993)"><g id="g2886" transform="matrix(0.54142878,0,0,0.54142878,107.23893,271.2049)"><rect style="fill:#fff" id="rect1924" width="600" height="200" x="0" y="0"/><rect style="fill:#da121a" id="rect1926" width="600" height="200" x="0" y="200"/></g><g id="g2226" transform="matrix(0.1353548,0,0,0.1353548,229.06041,298.61193)"><g id="layer3" transform="translate(-28.14513,12.14219)"><g id="g38463" transform="matrix(2.360012,0,0,2.360012,-375.4223,-434.6109)"><g id="g7223" transform="translate(28.51887,-25.61095)"><path style="fill:#000;fill-opacity:.99215686;fill-rule:evenodd;stroke:#000;stroke-width:1px;stroke-linecap:butt;stroke-linejoin:miter;stroke-opacity:1" id="path1933" d="m 143.10968,364.21289 253.10969,0.12255 -1.80739,201.21936 c -1.35572,23.31842 -14.20187,54.10513 -38.31256,76.9591 -20.80167,19.71744 -50.11723,33.27191 -86.14274,34.09067 -85.8394,-2.67814 -119.14459,-67.64539 -126.97327,-113.10225 z"/><g id="g2830"><path id="path1935" d="m 268.18018,364.6702 0.5204,311.91524 c 0,0 28.03173,-2.52538 29.7995,-4.29315 l -1.18873,-307.6221 z" style="fill:#fff;fill-opacity:1;fill-rule:evenodd;stroke:none;stroke-width:1px;stroke-linecap:butt;stroke-linejoin:miter;stroke-opacity:1"/><path id="path2824" d="m 297.48226,364.74865 1.07887,307.75964 c 10.89285,-2.5 23.83529,-7.07895 33.10306,-12.77529 l -0.25254,-294.92122 z" style="fill:#da121a;fill-opacity:1;fill-rule:evenodd;stroke:none;stroke-width:1px;stroke-linecap:butt;stroke-linejoin:miter;stroke-opacity:1"/><path id="path2826" d="m 331.57492,364.81179 0.14159,295.12145 c 8.5863,-4.29314 21.97082,-15.40482 28.158,-21.84455 l 0.83158,-273.27691 z" style="fill:#fff;fill-opacity:1;fill-rule:evenodd;stroke:none;stroke-width:1px;stroke-linecap:butt;stroke-linejoin:miter;stroke-opacity:1"/><path id="path2828" d="m 360.84911,364.91094 -0.95938,273.05551 c 18.09019,-17.65229 32.8004,-48.69815 33.98695,-71.81962 l 1.78571,-201.17276 z" style="fill:#da121a;fill-opacity:1;fill-rule:evenodd;stroke:none;stroke-width:1px;stroke-linecap:butt;stroke-linejoin:miter;stroke-opacity:1"/></g><path style="fill:#fcdd09;fill-opacity:1;fill-rule:evenodd;stroke:#000;stroke-width:.2;stroke-linecap:butt;stroke-linejoin:miter;stroke-miterlimit:4;stroke-dasharray:none;stroke-opacity:1" id="path4608" d="m 206.75321,651.08602 c -0.63135,-0.0631 -2.44964,-5.38455 -4.07464,-10.95598 -0.625,-2.14286 -0.0893,-7.23215 0,-9.375 0.67872,-2.828 0.80357,-4.01786 1.42857,-6.16072 0.79529,-4.48694 0.53572,-13.83928 0.53572,-13.83928 -0.44194,-0.88388 -0.89286,0 -0.89286,0 0,0 -0.55316,7.00701 -0.71428,8.03571 -1.16071,7.41071 -3.31889,9.9152 -5.28318,11.87949 -3.39755,3.39755 -8.35138,4.25322 -8.35138,4.25322 -4.48255,0.12627 -5.82973,-1.03893 -5.82973,-1.03893 0,0 -0.64743,-1.27879 -2.85714,-2.41521 -2.16082,-0.18877 -2.1933,0.5645 -3.70853,1.25898 -0.45541,-1.08861 -0.5122,-2.24746 -0.38593,-3.06822 0.99599,-0.96293 2.39794,-1.75342 3.097,-2.09766 1.13642,-0.12627 5.88202,0.11543 6.70276,0.0523 0.97895,0.77663 1.95346,0.82786 3.08988,1.39608 3.00716,-1.05337 5.06634,-3.22479 6.60714,-5.13897 1.13643,-1.26268 2.69301,-4.0243 3.53709,-5.96496 0.94701,-2.02031 2.66773,-8.75897 2.66773,-8.75897 0,0 1.37627,-9.27606 1.56567,-10.61155 0.37881,-1.70464 0.75576,-18.97715 0.75576,-18.97715 0,-1.07329 -1.08041,-1.1581 -1.26981,-0.0848 0,0 -0.44194,4.59396 -0.69448,8.06636 -0.70271,3.56486 -2.30874,7.94721 -3.95024,10.40945 -1.27407,1.53894 -4.94738,6.72226 -8.60918,10.95227 -3.22402,2.91988 -7.71106,5.16773 -9.35256,6.87237 -0.58529,1.6433 -0.31581,4.14263 0.48341,5.15877 1.07329,0.44194 2.38129,0.81063 4.46429,0.71429 0.0631,1.01015 -0.34446,1.93179 -1.60715,2.5 -1.9781,-0.0394 -2.61172,-0.12441 -4.82143,-1.07143 -1.92929,-1.47559 -4.95877,-3.75042 -5.28317,-7.70209 0.88388,-3.15673 2.55824,-5.88068 3.82582,-7.5523 1.89403,-1.57837 8.10597,-5.38593 8.42164,-5.63847 0.55777,-0.44621 0.0173,-1.12104 -0.82973,-0.83869 -0.56821,0.1894 -3.69211,2.71632 -6.84884,4.23155 -2.55714,0.51698 -5.65827,-0.23088 -8.18365,0.0848 -2.2709,0.28387 -3.13846,1.03709 -4.46429,2.17351 -1.36257,1.16792 -1.19584,3.53521 -1.63778,5.55552 -0.79814,1.08837 -0.78639,0.48341 -1.60714,0.23087 -0.94859,-1.26218 -1.70383,-2.93022 -1.85782,-5.03064 0.0631,-1.19957 2.02059,-4.27986 3.16198,-5.8712 1.8309,-1.32583 4.67933,-3.16496 7.13202,-4.04401 2.84106,-0.31566 3.09704,0.31581 6.38525,0.11544 -2.39911,-1.32583 -4.77438,-1.0281 -7.7417,-2.29079 -1.77266,-1.32222 -2.2258,-2.64422 -2.2258,-3.84377 0,-2.15029 0.0289,-3.3119 0.94515,-4.16842 1.95717,1.26269 1.01065,3.64564 2.73088,4.50576 2.27285,1.13642 1.95043,0.85037 3.97004,0.79722 4.79822,-0.12627 5.72842,-1.02132 7.14286,-1.96428 2.27284,-1.51523 7.67002,-6.40257 9.11798,-8.05738 1.32583,-1.51523 7.5235,-11.48483 9.53639,-19.87187 0.3788,-1.57836 1.08411,-4.68618 0.26337,-5.00186 -0.97812,0.20495 -1.5926,5.75389 -3.73917,7.39539 -2.11755,1.07709 -8.65623,1.45921 -8.65623,1.45921 l 0.0848,-2.37187 c 0,0 4.06537,-0.83178 5.53572,-1.94448 2.33598,-1.76777 4.27939,-5.56629 4.97833,-8.16198 2.32788,-8.62092 2.33227,-21.30231 2.33227,-21.30231 -1e-5,-1.32583 -1.25,-1.28063 -1.25,-0.14421 0,0 0.12847,3.68124 -0.96683,6.19398 -1.07329,2.46225 -1.95871,5.3949 -3.97902,6.46818 -3.12676,1.6611 -7.04908,1.74796 -7.36475,1.05348 -0.36669,-0.80671 2.99052,-0.88914 4.82142,-3.03571 2.13088,-2.49828 3.39858,-6.96634 3.72834,-8.45599 0.32693,-1.47685 2.42069,-10.11393 1.45921,-10.96682 -0.91033,0.13477 -1.44652,6.14167 -2.3304,8.35138 -0.71313,1.78283 -4.20332,3.34837 -5.30484,5.71429 0.31567,1.70463 1.79554,2.79283 2.26912,3.82396 -0.74965,1.21768 -1.81635,1.26083 -2.32143,0.81889 -0.63923,-0.55933 -2.05727,-2.90898 -2.14285,-4.10714 -0.0631,-0.88388 1.70544,-4.07811 1.26328,-4.26699 -1.51254,-0.64613 -17.38279,22.09931 -18.30901,24.36993 0.12627,1.13642 0.80334,1.02964 1.51522,1.13642 1.26269,0.1894 3.58142,-0.15002 5.05077,-1.19956 1.32582,-0.94701 1.95593,-2.90388 3.03045,-3.72494 1.51523,-0.3788 2.89642,-0.13404 3.15673,0.12627 0.25254,0.25254 0.73329,5.8937 0.25254,6.06092 -1.57593,0.54816 -7.45062,0.86426 -9.59645,1.76777 -1.19956,0.50508 -3.86392,0.62366 -3.72494,1.70463 0.56821,4.41942 1.0019,9.61985 2.2097,10.54347 1.07329,0.82075 1.70464,2.90418 1.64151,3.78807 -0.10149,1.42076 -5.43402,4.08139 -7.07107,3.40926 -0.75505,-1.30722 -0.63134,-4.73509 -0.50507,-5.55584 0.33764,-2.19468 0.94701,-11.36421 0.1894,-11.67988 -0.88191,-0.36747 -6.06091,9.84898 -6.37659,10.41719 -0.27424,0.49363 -0.0631,6.81854 -0.50508,7.32361 -0.625,0.71429 -3.91434,0.0631 -3.91434,0.0631 0,0 -4.48255,-1.07329 -5.17703,-1.57837 -0.52569,-0.38232 0.0953,-2.88248 0.75761,-3.34613 0.63135,-0.44195 2.61545,-1.59171 3.66181,-3.03046 0.50508,-0.69448 7.38674,-10.6066 7.44987,-11.55362 0.0772,-1.15814 -6.37658,-1.19956 -7.26047,-1.45209 -0.82568,-0.23591 -1.45209,1.8309 -1.8309,1.95717 -0.45614,0.15205 -2.58852,0.37881 -3.03046,0 -0.41236,-0.35345 -0.44193,-3.59867 -0.44193,-3.59867 0,0 0.007,-3.59471 0.3788,-4.16688 0.27748,-0.42673 4.98763,-1.19956 5.55584,-1.19956 0.50508,0 2.39351,3.35812 3.59867,3.91435 0.82075,0.37881 4.7609,1.14102 5.55584,0.50507 1.57836,-1.26269 19.76111,-31.50413 19.95051,-32.57742 0.22216,-1.25892 -1.07329,-0.75761 -1.6415,-0.1894 0,0 -3.4724,3.28299 -4.7351,4.54568 -0.87709,0.8771 -3.56923,2.22872 -4.23,3.21987 -0.50507,0.75762 -0.50508,4.48255 -1.2627,3.6618 -1.10513,-1.19722 -0.56821,-5.93465 -0.12626,-6.56599 0.57245,-0.8178 2.02549,-5.54412 7.44987,-7.95495 1.13642,-0.50508 1.44718,-8.71193 2.46225,-10.29093 1.13642,-1.76777 10.36357,-15.10817 14.45781,-17.48827 0.12627,-1.45209 -0.51417,-12.81223 -0.63135,-13.57393 -0.12627,-0.82074 -2.39911,-6.88166 -2.90418,-8.08121 -0.46807,-1.11167 -0.44195,-8.90197 -1.38897,-9.28078 -0.8675,0.22956 0.60409,19.33882 -0.12627,21.33947 -1.41434,3.87423 -1.86974,3.99203 -2.94116,5.24203 -1.07143,1.25 -3.37229,2.96546 -3.62483,2.83919 -0.19764,-0.0988 -0.29043,-10.65211 -0.56231,-14.05769 -0.25254,-3.18829 -0.54254,-15.99434 -0.54254,-15.99434 -1e-5,-0.85232 -0.88389,-1.13642 -0.87079,-0.064 0,0 -0.19784,22.26151 -0.54974,24.81275 -0.25254,1.8309 -2.2097,9.84899 -3.97747,14.33154 -3.03529,7.69662 -7.63928,9.97526 -7.89182,9.65959 -0.18972,-0.23715 0.25361,-13.5076 0.17549,-26.76508 -0.0818,-13.88643 -0.68057,-27.15181 -0.68057,-27.15181 -0.25254,-0.82075 -1.01015,-0.63135 -1.19956,0.0631 0,0 -0.17772,16.66551 -0.30399,19.7591 -0.14171,3.4718 -1.71631,28.60195 -2.41079,33.65272 -0.76772,5.58344 -2.48362,19.11535 -4.29315,22.79156 -2.79098,5.67014 -7.38674,9.28077 -7.76555,9.21764 -0.25177,-0.042 0.64315,-21.45716 1.19031,-43.61025 0.60917,-24.66426 1.33508,-49.19751 1.20881,-49.51318 -0.38812,-0.97032 -0.94702,-1.01016 -1.57836,-0.18941 0,0 -1.70464,37.43878 -2.27285,42.42641 -0.51175,4.42811 -0.88388,8.90196 -2.65165,13.82646 -1.27985,3.56531 -4.79822,8.08122 -5.17703,8.01809 -0.45337,-0.0756 1.24737,-61.1523 1.51523,-64.9023 0.30561,-4.27853 2.78049,-21.34641 2.21156,-21.68764 -0.64202,-0.10225 -3.98894,9.27743 -4.39512,8.95613 -0.66115,-0.41322 -0.21348,-11.31648 0.22321,-13.74298 0.43298,-2.4059 2.18732,-7.78523 3.8936,-11.86051 1.35398,-3.23386 2.98852,-5.36881 2.61243,-5.60664 -0.74895,-0.47361 -3.40028,3.297 -4.29314,3.25236 -1.14633,-0.0573 -3.16308,0.15056 -3.47558,-0.51908 -0.17984,-0.38537 2.31491,-4.56102 4.44525,-8.97725 2.65564,-5.5052 5.18053,-10.98727 4.77874,-11.34441 -0.46354,-0.41204 -5.68582,1.14539 -6.35547,0.92218 -0.54237,-0.18079 -1.56961,-2.50352 -1.04079,-3.07641 0.28391,-0.30758 6.92698,-3.93326 13.15106,-6.77005 5.52009,-2.51593 7.86717,-3.31511 10.72014,-3.49342 2.14286,-0.13393 6.74362,0.17563 7.41158,1.30602 0.58035,0.98214 -1.52792,6.46007 -2.37614,6.594 -0.58852,0.0929 -1.88967,-0.81636 -5.03544,-0.1173 -1.05472,0.23438 -1.80029,1.48519 -1.75242,3.74205 0.0433,2.04179 1.20729,4.56192 0.68231,5.77912 -0.88789,2.05861 -4.35619,3.41924 -5.60048,4.59034 -0.75893,0.71428 -0.14155,2.86406 0.16325,4.29314 0.2647,1.24107 2.99475,-1.18309 4.51767,-1.27538 1.47322,-0.0893 2.9283,0.52977 4.0533,1.91438 0.58036,0.71429 -0.28054,3.75481 -0.5484,6.21017 -0.23964,2.19668 -0.17725,5.04551 -1.02547,6.42943 -1.23179,2.00976 -6.66784,4.60829 -7.04043,5.95894 -0.35715,1.29464 -0.40176,4.39721 0.0127,4.73958 1.02678,0.84821 4.62789,1.24569 6.31477,2.39277 1.11607,0.75893 0.71395,6.77654 1.73844,8.00593 0.44643,0.53571 3.13563,0.7598 3.89136,-0.41578 0.40179,-0.625 2.46608,-4.05011 3.16439,-4.29184 0.64168,-0.22211 3.20376,-0.59546 6.23494,-0.6199 2.4519,-0.0198 5.44222,0.25048 6.15475,0.5293 1.02679,0.40179 1.01145,5.31355 2.27284,5.05076 1.07143,-0.22321 1.66448,-8.55566 1.26269,-9.09137 -0.62532,-0.83376 -3.01382,1.76646 -4.26382,1.58788 -1.65005,-0.23572 -3.29878,-1.20409 -3.59419,-1.91307 -0.22321,-0.53571 0.0461,-1.34656 0.70904,-1.44126 0.625,-0.0893 3.81673,1.07702 4.37105,0.60705 2.05357,-1.74107 3.98197,-5.27266 3.53554,-5.40659 -1.069,-0.3207 -3.74081,0.16326 -5.25867,0.0293 -1.082,-0.0955 -4.6923,-3.95002 -5.22801,-4.12859 -1.06134,-0.35378 -1.60321,-0.40179 -2.80856,0.13393 -0.99343,0.44152 -0.90756,3.66382 -2.08026,4.37981 -0.78458,0.47902 -5.0941,0.81888 -5.31731,0.4171 -0.23351,-0.42031 1.98307,-1.64933 2.7626,-2.34681 0.84821,-0.75893 0.16676,-5.6601 1.11475,-6.8925 0.89286,-1.16071 4.6193,-1.88233 6.04561,-1.97435 0.74584,-0.0481 2.3618,1.32625 3.54954,2.97755 1.01615,1.41273 1.62314,3.11192 2.16954,3.36392 0.63651,0.29403 2.10215,0.14985 3.5743,0.10791 1.31192,-0.0374 2.63822,0.0708 3.24423,-0.36045 0.80946,-0.57596 1.71335,-2.07884 3.12894,-3.50143 2.64416,-2.65724 5.69458,-4.56315 5.96244,-5.58994 0.15252,-0.58467 -2.30213,-1.33149 -5.01568,-1.9035 -2.39782,-0.50545 -4.19299,-0.74049 -5.08585,-0.87442 -1.16557,-0.17483 -1.92971,1.52923 -2.51006,1.0828 -0.85219,-0.65553 -0.4171,-2.81993 0.11861,-3.08779 6.9146,-0.55552 10.25882,0.57144 17.54374,0.48976 1.07143,-0.22321 -0.16194,-7.8567 -1.41194,-8.4817 -1.2588,-0.6294 -3.65606,-2.39351 -6.59299,-3.73328 -3.22084,-1.46928 -7.29466,-2.30393 -8.32209,-2.04708 -1.26269,0.31568 -4.11325,2.49868 -4.55968,2.40939 -0.23751,-0.0475 -1.76909,-2.02503 -2.55398,-4.84176 -0.52508,-1.88436 0.2849,-5.10272 0.50566,-5.54425 0.30056,-0.60111 3.68251,-2.27337 6.52929,-4.13353 2.6502,-1.73171 3.49706,-2.91087 4.78897,-3.67983 1.22073,-0.7266 14.4454,0.43739 15.65737,0.0587 0.71429,-0.22321 4.8598,-4.49044 5.57116,-4.42577 0.49107,0.0446 0.72681,2.59564 0.53439,3.23704 -0.13393,0.44643 -3.48502,2.72319 -3.32763,3.15039 0.3125,0.84821 4.80962,0.88297 7.5315,0.0306 0.90338,-0.28288 2.27259,-0.74133 3.15725,-1.33481 1.26584,-0.8492 1.96043,-1.83461 2.45724,-1.78493 0.44643,0.0446 0.13393,2.68732 -0.13393,2.99982 -0.57669,0.67281 -3.36966,2.28684 -4.21787,2.59934 -0.90235,0.33245 -6.57007,0.81449 -6.52135,1.27802 0.0536,0.58242 3.48288,1.05681 6.25252,0.67694 2.59129,-0.3554 5.11432,-1.97868 5.36424,-1.6871 0.26786,0.3125 -1.12877,3.99466 -1.66449,4.21787 -0.77752,0.32397 -6.85855,0.64207 -6.92181,1.33797 -0.0446,0.49107 3.45831,4.00803 3.93601,4.48573 0.26785,0.26786 0.25385,2.68863 -0.14794,2.77792 -0.62397,0.13866 -5.01881,-3.04447 -5.37595,-2.64268 -0.40985,0.46108 1.27915,2.9569 2.56225,5.59659 0.90828,1.86858 1.47954,3.89835 1.55101,4.93473 0.0721,1.04589 -0.27328,2.33546 -0.37299,3.85134 -0.14714,2.23695 -0.0221,4.75641 0.62553,5.99765 0.53571,1.02679 2.75664,3.23049 2.71796,3.72811 -0.0424,0.54582 -1.60321,1.08412 -2.09428,1.12876 -0.24661,0.0224 -2.26315,-1.60744 -3.63944,-4.05842 -1.35298,-2.40946 -2.06623,-5.64094 -2.28754,-5.59668 -0.54148,0.1083 0.81791,11.07825 1.01015,12.12184 0.3125,1.69643 3.4016,4.35179 2.95517,4.84286 -0.5521,0.60731 -3.51889,0.50508 -3.96532,0.46044 -0.40331,-0.0403 -1.0774,-2.26597 -1.45702,-4.51635 -0.36012,-2.13478 -0.43289,-4.30076 -0.56329,-4.32249 -0.8862,-0.1477 -2.71859,8.94148 -2.46673,10.11685 0.11611,0.54186 0.2158,2.26073 1.15137,3.83203 1.22266,2.05348 3.06781,3.17776 2.79996,3.5349 -0.55221,0.73627 -2.65538,0.38647 -4.08395,0.074 -0.63816,-0.1396 -1.92679,-1.95019 -2.58431,-4.04349 -0.60785,-1.93516 -0.59846,-4.17035 -0.87725,-4.17035 -0.95436,0 -0.69897,6.92051 -0.25254,8.08122 0.43402,1.12845 1.06937,1.49836 1.58694,1.94207 0.61197,0.52465 1.23699,1.08136 3.71636,2.09854 0.91153,0.37396 3.14079,-0.759 5.58287,-1.66786 2.22243,-0.82711 4.64413,-1.42259 5.96255,-1.42124 2.51371,0 4.05199,0.74002 5.51815,2.12417 1.47619,1.39363 2.34109,3.34236 3.86646,3.40102 2.32142,0.0893 2.82631,-0.30752 3.56485,-2.62866 0.13489,-0.42394 -0.26267,-1.57531 -0.60592,-2.74711 -0.45195,-1.5429 -0.67688,-1.64346 -0.23835,-2.63016 0.35715,-0.80357 5.93786,-0.66512 6.4894,-1.88638 0.30777,-0.6815 1.02137,-2.20383 1.06668,-3.61091 0.0467,-1.45029 -0.59147,-2.78373 -1.40719,-3.32754 -1.04073,-0.69382 -3.22172,-2.46542 -4.29315,-2.51006 -1.0705,-0.0446 -5.54052,0.29718 -5.80838,-0.0153 -0.24992,-0.29158 -0.69755,-6.84451 -0.35582,-7.56214 0.44642,-0.9375 -0.0836,0.23147 0.88891,-0.74099 0.44643,-0.44642 -0.33249,-7.30294 0.22453,-7.60677 0.55706,-0.30385 2.62383,-0.58719 5.19736,-0.003 1.96383,0.44606 2.14625,2.39773 3.71413,1.72578 0.39576,-0.16961 0.77501,-1.22798 0.95233,-2.03886 0.24272,-1.10998 0.28,-1.75577 -0.31333,-2.19432 -0.71802,-0.53071 -6.60932,-2.47943 -6.52003,-3.55086 0.10085,-1.21022 0.0688,-6.5886 0.014,-7.73939 -0.0446,-0.9375 -0.53177,-3.97934 -1.46927,-4.24719 -1.03378,-0.29537 -3.99597,0.13261 -4.35311,-0.13525 -0.55787,-0.41841 -1.71101,-5.37808 -1.45527,-5.85302 0.3125,-0.58036 4.66061,-3.10179 5.59917,-3.10179 0.41322,0 3.11722,1.29629 6.49185,2.12009 2.45871,0.60022 5.71325,0.63545 6.53684,1.27888 1.42857,1.11607 3.37555,4.10231 7.07107,6.56599 0.53571,0.35714 3.81046,-0.34309 4.49973,0.14925 0.3125,0.22321 0.4171,2.68732 0.0153,2.99982 -0.4741,0.36874 -5.74711,-0.0293 -6.28282,-0.11861 -0.4337,-0.0723 -3.54954,-3.64014 -4.04061,-3.283 -0.79265,0.57647 7.02332,10.08048 7.8707,11.55417 1.02678,1.78572 4.17466,15.17131 3.7001,16.12043 -0.40179,0.80357 -2.03299,1.20404 -2.47942,1.11475 -0.51238,-0.10248 -3.12176,-8.90671 -4.29315,-8.5863 -1.00521,0.27496 5.13874,15.64949 5.36195,17.65842 0.13584,1.22259 -0.26207,4.18223 0.16554,7.22311 0.60086,4.27282 1.98993,8.23451 1.69151,8.25962 -0.37574,0.0316 -1.23102,0.83876 -1.77762,0.66851 -0.71765,-0.22353 -2.88537,-7.93216 -3.77822,-7.57502 -0.26097,0.10439 1.72692,9.35099 2.45805,21.91516 0.68328,11.74191 0.59376,25.51097 0.9678,37.10684 0.38578,11.9594 1.85579,21.18819 1.22444,21.567 -0.72633,0.4358 -7.08016,-8.07303 -7.57614,-13.13199 -0.0751,-0.76629 -1.19092,-12.29858 -2.43328,-23.51955 -1.36778,-12.35374 -2.60216,-23.03412 -2.69145,-23.65912 -0.19315,-1.35208 -1.79218,-1.3715 -1.15759,0.0563 0.71429,1.60714 3.49339,58.45104 3.42931,60.00904 -0.26785,6.69643 2.80186,30.17429 2.51118,30.31265 -1.24863,0.59432 -6.83821,-6.71603 -9.00208,-11.127 -2.32143,-4.73214 -5.32284,-24.03802 -5.80838,-31.06219 -0.40869,-5.75602 -2.14657,-41.28999 -2.14657,-41.28999 -0.0631,-0.82075 -1.23917,-1.29981 -1.28603,-0.0589 0,0 0.22263,28.56351 0.27582,31.56309 0.0306,1.80608 -0.34016,6.99601 0.0503,12.12397 0.41481,5.44816 1.00975,9.52229 1.02307,10.41505 0.0126,0.846 -5.48885,-4.22717 -7.07107,-7.82868 -1.61569,-3.67326 -3.24137,-13.68289 -3.97747,-19.57171 -0.31567,-2.52538 -0.50507,-22.34962 -0.50507,-22.34962 -0.18941,-1.51523 -1.51525,-1.07328 -1.38898,-0.31567 0,0 -0.73452,10.1705 -0.814,18.32482 -0.052,5.33027 0.60989,9.87135 0.4352,9.89631 -0.75,0.10714 -3.8561,-1.69285 -5.80837,-5.05076 -1.57836,-2.71478 -0.94702,-20.32932 -0.94702,-20.32932 -0.44195,-1.19956 -1.19956,-1.07328 -1.6415,-0.0631 0,0 -1.07329,6.43972 -1.45209,8.14435 -0.44359,1.99613 -2.61569,5.10667 -2.77792,7.70241 -0.12627,2.02031 0.31239,12.27479 1.26269,14.39468 0.41236,0.91988 2.40785,4.17467 5.04219,7.4692 2.60895,3.26278 4.05513,4.17927 6.19575,7.36742 2.54168,3.7854 2.61863,5.55434 4.68397,10.82717 2.46811,6.30109 5.35443,11.96439 5.10189,12.5326 -0.25384,0.57113 -3.91435,-0.56821 -5.05077,-1.38896 -0.66733,-0.48196 -5.42957,-5.93465 -5.87151,-5.24017 -0.40956,0.64359 19.66228,34.45808 20.70813,34.85027 1.01015,0.37881 8.63088,-2.88414 9.47018,-3.21986 0.63134,-0.25254 1.58754,-2.52722 2.20971,-2.65165 0.63135,-0.12627 2.79634,-0.0447 3.21986,0.37881 0.37881,0.3788 0.31567,6.62912 -0.1894,6.94479 -0.67083,0.41927 -3.40927,-0.94702 -4.35629,-0.94702 -1.07514,0 -6.79364,1.73045 -7.3236,2.52539 -0.63135,0.94702 5.10382,9.727 6.06091,10.10152 1.4521,0.56821 2.01399,0.0607 2.84106,0.37881 0.82075,0.31567 1.26269,3.34613 0.82074,3.97748 -0.62289,0.88985 -5.99778,4.23 -6.62912,4.0406 -1.0404,-0.31212 -1.2627,-5.4927 -1.32583,-6.37658 -0.0698,-0.97762 -4.68712,-9.64504 -4.79822,-9.09138 -0.18307,0.91228 -1.19147,8.08759 -1.01015,10.35407 0.12627,1.57836 1.19956,1.89403 0.88388,2.65164 -0.37145,0.89149 -1.70464,1.51523 -2.27285,1.95717 -0.44851,0.34885 -5.74524,-2.39911 -5.99778,-3.09359 -0.32435,-0.89198 2.65165,-1.57836 3.15673,-2.58851 0.58752,-1.17505 2.65165,-9.91212 1.95717,-10.54347 -0.72099,-0.65545 -5.91288,-2.57875 -9.97374,-3.54868 -1.7098,-0.40838 -1.83242,-0.23939 -3.15824,-0.17626 -0.85775,0.0408 -1.17656,0.22663 -1.68863,-2.07772 -0.12627,-0.56821 1.86521,-4.77657 2.95132,-4.86708 1.51523,-0.12627 2.79737,3.72532 3.41916,4.08803 0.43616,0.25443 2.9484,1.07354 5.08509,1.89997 1.57474,0.60907 3.03203,1.45285 2.85997,0.89367 -0.25254,-0.82075 -18.26694,-26.88818 -18.87722,-26.76904 -0.75999,0.14837 -0.56822,5.11389 -0.82075,5.3033 -1.20884,0.90375 -2.75088,1.53327 -3.34614,0.5682 -0.72267,-0.67105 0.56822,-2.96732 0.31568,-3.8512 -0.29536,-1.03378 -5.17704,-6.88166 -6.06092,-8.58629 -0.61099,-1.17834 -0.69448,-5.99779 -1.01015,-6.06092 -0.78135,-0.15627 -0.95987,5.66026 -0.31567,6.7554 0.63134,1.07328 3.77881,10.74646 5.61897,15.21542 0.44194,1.07329 3.19802,0.13964 3.78807,0.63135 0.75761,0.63134 0.75762,1.32582 0.25254,2.08343 -0.44848,0.67273 -5.93465,-0.31567 -7.00794,-0.82075 -0.39976,-0.18812 -2.55426,-2.66562 -3.71526,-5.82089 -0.89983,-2.44547 -1.67787,-4.5422 -2.05141,-6.7579 -0.36294,-2.15283 -0.32989,-4.46389 -0.60991,-4.21499 -0.61525,0.54689 -1.16992,6.11424 -0.0792,11.17123 0.69448,3.21986 1.46723,10.69527 1.84696,12.06228 0.63135,2.27284 3.91408,7.32325 6.566,10.85914 0.75761,1.01015 4.13563,-0.0859 4.41942,0.69448 0.25253,0.69448 -1.01015,3.34613 -1.8309,3.59867 -0.93677,0.28823 -4.81041,-0.80777 -5.61899,-1.57836 -0.9729,-0.92721 -5.4983,-11.43917 -6.06091,-11.30109 -0.71166,0.17467 2.26009,7.9899 3.1498,10.60961 1.13642,3.34613 4.86467,9.3572 6.95173,12.6239 2.90419,4.54569 11.21176,12.59241 14.64721,13.13198 4.04061,0.63135 7.95495,1.32583 9.09137,0.50508 0.7122,-0.51437 1.10915,-2.16545 1.21235,-3.72895 0.10684,-1.61849 -0.0875,-3.14313 0.23975,-3.21585 0.56821,-0.12627 1.52904,2.48095 1.6415,3.6618 0.12627,1.32583 -0.94702,5.1139 -1.89404,5.93465 -0.32915,0.28526 -2.54409,0.98842 -4.72205,1.2756 -2.3088,0.30443 -4.58385,0.19609 -4.81127,0.61843 -0.56871,1.05617 9.33158,0.86502 10.16466,1.07329 1.51523,0.37881 6.78944,4.38961 7.70241,5.93465 0.82075,1.38896 1.95718,6.81853 1.38897,7.38674 -0.51666,0.51666 -1.16684,1.53598 -2.11012,1.95863 -1.55033,0.69464 -3.46275,0.63675 -3.69826,0.44048 -0.37881,-0.31567 3.03046,-2.90419 2.71479,-3.91434 -0.28247,-0.90391 -1.70464,-3.85121 -2.52539,-4.04061 -1.22573,-0.28286 -7.07956,0.59624 -10.03838,0.12627 -1.62118,-0.2575 -6.50687,-4.48901 -7.00794,-4.04061 -0.39105,0.34994 4.76391,5.70098 5.36643,6.75539 0.254,0.44451 1.26856,2.13666 1.6802,4.00989 0.40689,1.85162 0.21311,3.88449 0.0876,4.32387 -0.15577,0.5452 -0.71266,1.7774 -1.77603,2.76912 -1.33404,1.24416 -1.82264,1.27149 -3.27473,1.90284 -1.02598,0.44607 -4.9245,0.12626 -5.49271,-0.18941 -0.21314,-0.11841 1.67103,-0.81422 3.13163,-1.91581 1.29278,-0.97502 2.09753,-1.11682 2.17168,-2.37733 0.0296,-0.5028 0.18713,-2.29115 -0.52625,-3.71465 -0.80943,-1.61516 -1.55719,-2.15687 -2.50421,-2.85135 -1.47645,-1.08273 -3.59867,-1.07328 -8.08122,-4.29314 -2.45112,-1.76067 -6.75538,-9.67848 -8.5863,-13.8896 -0.63135,-1.45209 -1.76777,-14.64721 -1.76777,-14.64721 -0.88388,-0.82075 -0.69447,-0.94702 -1.51522,0.25254 0,0 -0.0701,13.63745 0.37187,17.80433 0.21083,1.97021 1.15548,10.84602 1.7747,14.26801 1.19955,6.62913 4.15079,12.33842 5.93465,13.8896 1.45209,1.26269 5.74952,2.16162 8.08122,2.0203 2.08344,-0.12627 4.28016,-1.55156 6.69226,-1.51523 3.44303,0.98147 7.32367,4.14226 7.51301,5.99779 0.31567,3.09359 0.1894,5.55583 -0.25254,5.80837 -0.38761,0.22149 -2.65165,-5.3033 -5.1139,-4.98763 -1.14274,0.14651 -6.25032,2.52539 -8.52317,2.65166 -1.76504,0.0981 -8.46699,-2.25979 -11.04853,-4.10375 -0.40791,-0.29136 -3.12729,-3.95419 -4.57789,-8.4266 -1.69268,-5.21882 -2.17752,-9.25107 -2.43006,-10.5769 -0.1923,-1.0096 -0.84824,-1.58032 -0.94701,0 -0.0631,1.01015 0.0786,2.28144 0.46665,4.29931 0.63135,3.283 0.78136,5.16119 1.55366,8.3276 0.63135,2.58851 0.83044,2.90164 1.27238,5.74269 0.46388,2.98208 0.21221,7.01574 0.21221,9.66739 0,3.75106 -2.78375,11.19303 -3.58042,11.11336 z"/><path style="fill:none;fill-rule:evenodd;stroke:#000;stroke-width:1px;stroke-linecap:butt;stroke-linejoin:miter;stroke-opacity:1" id="path1878" d="m 193.48214,382.2729 c 0.22851,0 1.02044,0 1.51786,0 0.47619,0 0.95238,0 1.42857,0 0.25986,0 0.17256,0.0575 0.26786,0.0893"/><path style="fill:none;fill-rule:evenodd;stroke:#000;stroke-width:.40000001;stroke-linecap:butt;stroke-linejoin:miter;stroke-miterlimit:4;stroke-dasharray:none;stroke-opacity:1" id="path1880" d="m 206.47321,409.23719 c 1.25,0 2.36607,0 3.61607,0 1.10113,0.0643 1.63994,-0.17192 2.41072,-0.89286 0.97009,-1.11779 1.15906,-1.31744 1.5625,-2.23214 0,-0.98214 -0.0446,-1.83036 0.3125,-2.63393 0.52713,-0.99463 0.65647,-2.13341 0.75892,-3.21429 0.15177,-1.15771 -0.71607,-2.25126 -0.93749,-3.125 -0.0862,-0.42259 -0.14942,-1.15434 -0.35972,-1.62509 -0.26895,-0.60206 -0.69338,-0.94748 -0.80099,-1.49991 -0.41136,-0.82851 -1.04634,-0.55476 -1.6518,-1.24999 -0.6961,-0.6611 -1.20194,-1.39942 -1.25,-2.41072 -0.05,-1.31897 -0.35973,-1.76834 0.49108,-2.63393 0.98283,-0.98704 1.50738,-0.92758 1.60714,-2.14286 0.10173,-1.56557 -0.70328,-2.49869 -2.00893,-3.25893 -1.26673,-0.56073 -2.08216,-0.95385 -3.30357,-1.60714 -0.72783,-0.27293 -1.86841,-0.92516 -2.63393,-1.16071 -0.97062,-0.53177 -1.45349,-0.22885 -2.41071,0.0446 -0.97244,0.27618 -1.76191,0.73328 -2.45536,1.42857 -1.15294,0.35775 -1.30532,-0.0196 -1.83036,-0.98214 -0.28623,-0.28623 -2.22788,-1.20111 -2.36607,-1.33929"/><path style="fill:#000;fill-opacity:1;fill-rule:evenodd;stroke:#000;stroke-width:.1;stroke-linecap:butt;stroke-linejoin:miter;stroke-miterlimit:4;stroke-dasharray:none;stroke-opacity:1" id="path4541" d="m 202.25808,380.35174 c 0,0 0.21499,1.21679 1.21049,2.05885 0.7957,0.67305 3.07039,-0.0403 4.13613,0.21215 0.69963,0.20577 -0.23873,0.81604 -0.85418,1.40257 -1.01435,-0.33338 -3.12893,0.0571 -4.29127,-0.7081 -1.31579,-0.92858 -0.70007,-2.6749 -1.29427,-2.77792 -0.13689,-0.37881 0.77743,-0.37695 1.0931,-0.18755 z"/><path style="fill:none;fill-rule:evenodd;stroke:#000;stroke-width:.40000001;stroke-linecap:butt;stroke-linejoin:miter;stroke-miterlimit:4;stroke-dasharray:none;stroke-opacity:1" id="path4543" d="m 199.75766,380.73701 c 0.21045,0.79971 0.4209,1.59941 0.63135,2.39912 0.15772,0.59935 1.74452,1.18793 2.14657,1.38896 0.78633,0.39316 1.53191,0.51341 2.27285,0.88388 0.45218,0.22609 1.5185,0.37881 2.0203,0.37881 0.68505,0 1.06223,-0.68342 1.38896,-1.01016 0.33089,-0.33088 1.29599,-0.4187 1.6415,-0.50507 0.70372,-0.17593 0.91828,-0.53948 1.26269,-0.88389"/><path style="fill:#da121a;fill-opacity:1;fill-rule:evenodd;stroke:#000;stroke-width:.2;stroke-linecap:butt;stroke-linejoin:miter;stroke-miterlimit:4;stroke-dasharray:none;stroke-opacity:1" id="path5430" d="m 211.75323,400.18245 c -0.88389,-0.16836 -1.41063,-0.20279 -2.29451,-0.37115 -0.91349,-0.20535 -2.26802,-1.40554 -3.23201,-2.13125 -0.61042,-0.42643 -4.42386,0.8609 -7.10039,0.8609 -2.44721,-0.12783 -2.69578,-0.16347 -4.35946,-1.73713 -1.39083,-1.11164 -2.63846,-0.87936 -4.15921,-0.47575 -0.95062,0.39396 -1.96863,1.2742 -2.71928,2.08661 -0.73354,0.72846 -3.24396,-0.42313 -4.32378,-1.57387 -1.52614,-1.58677 -1.9052,-3.00595 -3.47427,-4.57502 -1.02675,-1.0001 -1.93662,0.26137 -2.9335,1.15809 -0.78603,0.83142 0.0525,0.88612 0.98717,1.35067 0.76988,0.57145 0.0525,0.25764 1.28435,1.37998 0.82896,0.99263 0.4958,2.89949 0.86988,3.98963 0.44546,1.20553 1.5831,0.89093 2.84423,1.0038 1.25378,0.22765 0.99799,0.85559 2.44375,1.23205 1.23409,0.33587 2.74865,-0.29121 4.04827,-0.52039 1.4748,-0.33383 0.30969,-0.9957 1.5369,-1.67717 1.33145,-0.56949 2.84547,-0.56992 3.9743,0.13261 0.65216,0.51823 0.69165,1.23695 1.68745,1.48591 1.28986,0.20267 1.62861,0.26019 2.93221,0.26019 1.27562,-0.0645 1.84101,-0.50952 3.02279,-0.74229 1.2149,-0.24522 2.5883,0.26908 3.75875,0.70532 1.81753,0.51504 3.39302,1.10039 5.15034,0.86856 0.49492,-0.41944 -0.11395,-0.94532 0.056,-2.7103 z"/><path style="fill:none;fill-rule:evenodd;stroke:#000;stroke-width:1.82241523px;stroke-linecap:butt;stroke-linejoin:miter;stroke-opacity:1" id="path6319" d="m 196.99479,376.98135 c 0.27253,0.21132 0.77162,0.83943 0.24403,1.19634 -0.1939,0.13118 0.54591,-1.99093 0.48138,-0.29543 -0.0192,0.51919 -3.13913,-0.27906 -3.13913,-0.0475"/><path style="fill:#da121a;fill-opacity:1;fill-rule:evenodd;stroke:#000;stroke-width:.2;stroke-linecap:butt;stroke-linejoin:miter;stroke-miterlimit:4;stroke-dasharray:none;stroke-opacity:1" id="path6321" d="m 169.15179,583.56755 c 0,0 1.79795,2.74125 2.32142,3.0357 0.71429,0.40179 3.37608,0.7355 4.15179,0.58036 0.44643,-0.0893 1.91964,-0.53571 1.875,-0.71428 -0.0726,-0.29053 -2.76786,-1.47322 -3.75,-2.27679 -0.75857,-0.62064 -1.16072,-2.05356 -1.16072,-2.05356 z"/><path style="fill:#da121a;fill-opacity:1;fill-rule:evenodd;stroke:#000;stroke-width:.2;stroke-linecap:butt;stroke-linejoin:miter;stroke-miterlimit:4;stroke-dasharray:none;stroke-opacity:1" id="path7208" d="m 152.63948,582.79566 c 0,0 -0.26705,3.26738 -0.0352,3.82141 0.31639,0.75601 2.21069,2.65552 2.91788,3.01002 0.40701,0.20401 1.8434,0.75754 1.91797,0.58925 0.12131,-0.2738 -1.27746,-2.86348 -1.55812,-4.10104 -0.21677,-0.95584 0.34691,-2.33325 0.34691,-2.33325 z"/><path style="fill:#da121a;fill-opacity:1;fill-rule:evenodd;stroke:#000;stroke-width:.2;stroke-linecap:butt;stroke-linejoin:miter;stroke-miterlimit:4;stroke-dasharray:none;stroke-opacity:1" id="path7210" d="m 150.89105,558.59984 c 0,0 -3.2137,0.64749 -3.68195,1.02361 -0.63893,0.51323 -1.94011,2.85917 -2.08507,3.63685 -0.0834,0.44756 -0.21788,1.98104 -0.0355,2.00613 0.29668,0.0408 2.3982,-2.01993 3.50977,-2.63207 0.85854,-0.47281 2.33814,-0.31227 2.33814,-0.31227 z"/><path style="fill:#da121a;fill-opacity:1;fill-rule:evenodd;stroke:#000;stroke-width:.2;stroke-linecap:butt;stroke-linejoin:miter;stroke-miterlimit:4;stroke-dasharray:none;stroke-opacity:1" id="path7212" d="m 184.22122,556.56905 c 0,0 3.26065,0.33939 3.7625,0.66935 0.68479,0.45024 2.20285,2.66202 2.42101,3.42241 0.12555,0.43761 0.40502,1.9514 0.22587,1.99369 -0.29146,0.0688 -2.57916,-1.78306 -3.74385,-2.28689 -0.89955,-0.38914 -2.35722,-0.0888 -2.35722,-0.0888 z"/><path style="fill:#da121a;fill-opacity:1;fill-rule:evenodd;stroke:#000;stroke-width:.2;stroke-linecap:butt;stroke-linejoin:miter;stroke-miterlimit:4;stroke-dasharray:none;stroke-opacity:1" id="path7214" d="m 230.84005,557.11929 c 0,0 -3.04817,-1.20652 -3.64571,-1.14596 -0.81536,0.0826 -3.184,1.34202 -3.72899,1.91542 -0.31365,0.32999 -1.26131,1.54308 -1.12201,1.6634 0.22663,0.19576 3.11133,-0.38867 4.377,-0.29696 0.97755,0.0708 2.13124,1.01103 2.13124,1.01103 z"/><path style="fill:#da121a;fill-opacity:1;fill-rule:evenodd;stroke:#000;stroke-width:.2;stroke-linecap:butt;stroke-linejoin:miter;stroke-miterlimit:4;stroke-dasharray:none;stroke-opacity:1" id="path7216" d="m 239.50294,581.19814 c 0,0 -1.03599,3.11026 -0.94246,3.70354 0.12763,0.80954 1.51617,3.10486 2.11884,3.61727 0.34685,0.29491 1.61052,1.17399 1.72294,1.02824 0.18292,-0.23711 -0.56024,-3.08505 -0.53872,-4.35385 0.0166,-0.97997 0.89154,-2.18393 0.89154,-2.18393 z"/><path style="fill:#da121a;fill-opacity:1;fill-rule:evenodd;stroke:#000;stroke-width:.2;stroke-linecap:butt;stroke-linejoin:miter;stroke-miterlimit:4;stroke-dasharray:none;stroke-opacity:1" id="path7218" d="m 258.60895,580.67097 c 0,0 1.23901,3.03511 1.18483,3.63326 -0.0739,0.8162 -1.30794,3.19815 -1.87548,3.74924 -0.32663,0.31714 -1.52952,1.27771 -1.65132,1.13971 -0.19816,-0.22453 0.35542,-3.1153 0.25019,-4.37992 -0.0813,-0.97674 -1.03373,-2.12033 -1.03373,-2.12033 z"/><path style="fill:#da121a;fill-opacity:1;fill-rule:evenodd;stroke:#000;stroke-width:.2;stroke-linecap:butt;stroke-linejoin:miter;stroke-miterlimit:4;stroke-dasharray:none;stroke-opacity:1" id="path7220" d="m 261.76337,557.84438 c 0,0 3.21678,0.63196 3.68685,1.00581 0.6414,0.51014 1.95389,2.84978 2.1026,3.62674 0.0856,0.44716 0.22745,1.97997 0.0452,2.00593 -0.29648,0.0423 -2.40792,-2.00832 -3.52243,-2.61509 -0.86081,-0.46865 -2.33961,-0.30098 -2.33961,-0.30098 z"/></g><g id="g38387"><path style="fill:#da121a;fill-opacity:1;fill-rule:evenodd;stroke:none;stroke-width:.2;stroke-linecap:butt;stroke-linejoin:miter;stroke-miterlimit:4;stroke-dasharray:none;stroke-opacity:1" id="path8131" d="m 202.15677,288.30805 c 0,0 -0.50507,-24.74874 1.13643,-27.14785 4.4511,-6.50546 8.93327,-8.19487 15.65737,-10.85914 6.69226,-2.65165 12.42434,-4.16682 21.97081,-5.05076 6.81853,-0.63134 26.01143,-1.26269 43.94164,-0.50508 0,0 71.8471,-0.12627 74.87755,0.12627 5.96215,0.49684 19.72056,3.01827 27.27413,17.04632 0.88388,1.6415 0.75761,26.5165 0.75761,26.5165 z"/><path style="fill:#fcdd09;fill-opacity:1;fill-rule:evenodd;stroke:#000;stroke-width:.80000001;stroke-linecap:butt;stroke-linejoin:miter;stroke-miterlimit:4;stroke-dasharray:none;stroke-opacity:1" id="path26753" d="m 202.72816,283.74836 c 0,0 -0.0649,-6.22193 0.0247,-12.29531 0.0488,-3.30887 -0.16726,-6.52925 0.41405,-8.77762 0.67923,-2.63038 2.71948,-4.45565 4.13792,-5.83601 2.40336,-2.33885 4.43899,-3.28231 5.34758,-3.84207 5,-3.08035 18.03218,-5.68845 18.96968,-5.91166 6.3093,-1.50222 24.91135,-2.593 27.86082,-2.593 0.75893,0 99.16324,0.18623 100.10074,0.23087 4.90535,0.23359 15.13057,4.10273 16.43795,5.1847 0.73639,0.60943 3.90519,3.04086 6.57821,6.144 2.02637,2.35243 3.48765,5.23611 3.93912,6.95734 0.71428,2.72321 0.98082,16.99533 0.98082,16.99533 l 6.06726,0.84822 c 0,0 -0.25163,-14.94178 -0.77162,-17.47241 -0.66964,-3.25893 -4.6391,-10.5567 -6.65527,-12.69321 -3.03572,-3.21429 -11.40492,-8.34645 -13.63706,-9.28395 -3.05943,-1.28496 -10.66394,-2.73328 -11.64608,-2.82256 -2.45978,-0.22362 -55.68466,-0.11992 -55.68466,-0.11992 0,0 -50.43235,0.49107 -51.01271,0.49107 -8.30405,0 -18.28975,1.35831 -20.83439,1.62617 -4.81974,0.50734 -14.67894,2.81228 -17.89323,4.06228 -3.82991,1.48941 -10.96746,6.51872 -12.66389,8.43836 -2.13538,2.42311 -4.69362,7.11943 -5.05076,9.21764 -0.46931,2.75721 -0.50508,14.64722 -0.50508,14.64722 l 0.11095,9.87962 z"/><ellipse style="opacity:1;fill:#fcdd09;fill-opacity:1;stroke:#000;stroke-width:.69996297;stroke-miterlimit:4;stroke-dasharray:none;stroke-opacity:1" id="path33012" cx="287.768" cy="210.398" rx="13.661" ry="14.107" transform="matrix(1.01634,0,0,1.009493,3.378268,9.832913)"/><path style="fill:#fff;fill-opacity:1;fill-rule:evenodd;stroke:#000;stroke-width:1;stroke-linecap:butt;stroke-linejoin:miter;stroke-miterlimit:4;stroke-dasharray:none;stroke-opacity:1" id="path1894" d="m 201.52543,338.18434 c 0,0 -2.41559,-3.02238 -1.89403,-5.42958 0.82075,-3.78807 3.09358,-4.98763 3.03045,-5.55584 -0.14773,-1.32961 -1.19956,-26.64277 -1.38896,-26.89531 -0.3807,-0.5076 -2.90418,-2.46225 -4.0406,-3.21986 -0.78093,-0.52062 -2.20365,-2.67491 -2.33598,-4.92449 -0.12627,-2.14658 2.14657,-4.54569 3.78807,-5.80838 3.62657,-2.78967 7.76554,-3.34613 10.9854,-3.40927 3.41392,-0.0644 7.09981,1.02415 10.22781,2.39912 3.59866,1.57837 8.90597,6.13272 11.30107,9.15451 1.95717,2.46225 6.55218,11.9436 7.57615,13.19512 1.01015,0.31567 1.99421,0.30244 2.52538,-0.31568 0.20577,-1.17583 0.59302,-5.79189 1.69039,-9.57997 1.25951,-4.34774 2.22395,-5.82485 3.2341,-7.84516 4.24178,-8.48355 13.51079,-11.99556 15.15229,-12.37437 4.66887,-1.07743 9.66013,-0.63422 13.7002,0.12627 5.36643,1.01015 10.53087,6.16039 13.63706,9.84899 2.0203,2.39911 6.84068,15.84842 7.63927,17.04632 0.88388,1.32582 3.27117,0.26891 3.40927,-0.25254 0.76623,-2.89834 2.78405,-8.17965 5.29537,-12.35418 2.24792,-3.73669 4.97909,-6.47364 6.13197,-7.65946 2.20971,-2.27284 8.46003,-5.24017 9.78586,-5.55585 6.13101,-1.45976 10.24641,-0.55261 13.8896,0.0631 4.48255,0.75761 9.44678,6.27194 11.42735,8.20749 2.77792,2.71478 5.63856,9.60653 7.1342,13.00572 0.69448,1.57836 0.48701,6.07634 1.13642,6.81852 0.44194,0.50508 2.39519,0.32354 2.90419,-0.69447 0.35549,-0.71097 1.84912,-4.51511 3.66929,-7.77526 2.05897,-3.6879 3.9146,-6.36883 5.16955,-7.69271 0.83521,-0.88108 2.92664,-3.23576 5.66205,-5.16507 3.02011,-2.1301 6.72843,-3.82463 8.22754,-4.30511 4.92449,-1.57836 10.29093,-0.82074 12.37437,-0.3788 2.67573,0.56758 5.34447,3.20064 6.62912,5.17703 0.82075,1.26269 0.75762,3.53553 0.25254,4.79822 -0.59917,1.49794 -3.40926,3.4724 -3.59866,4.29315 -0.2067,0.89571 -1.13642,7.32361 -1.13642,7.32361 0,0 -2.65165,13.95273 -2.77792,14.89975 -0.12516,0.93871 -0.0631,7.76554 0.12627,9.09137 0.25583,1.79082 1.64149,4.79822 2.0203,6.18718 0.31343,1.14925 0.44194,1.8309 0.12627,3.15673 -0.24117,1.01293 -0.63134,2.52538 -0.63134,2.52538 z"/><path style="fill:#fcdd09;fill-opacity:1;fill-rule:evenodd;stroke:#000;stroke-width:1;stroke-linecap:butt;stroke-linejoin:miter;stroke-miterlimit:4;stroke-dasharray:none;stroke-opacity:1" id="path10796" d="M 239.01786,307.18361 C 230.53572,290.66575 230,293.07646 226.25,288.79075 c 0,0 8.39286,-22.85713 8.92857,-23.57142 0.45771,-0.61029 1.16071,-1.07143 2.67857,0.17857 l 11.07143,19.28571 c -2.5,3.57143 -6.64649,7.44738 -8.07506,22.80452 z"/><path style="fill:#fcdd09;fill-opacity:1;fill-rule:evenodd;stroke:#000;stroke-width:1;stroke-linecap:butt;stroke-linejoin:miter;stroke-miterlimit:4;stroke-dasharray:none;stroke-opacity:1" id="path12571" d="m 297.10953,304.32886 c -7.7173,-17.31475 -7.49219,-14.97333 -10.77314,-19.62791 0,0 8.33944,-20.59073 8.94695,-21.24504 0.51906,-0.55905 2.02407,-1.19663 3.40279,0.20533 l 10.6341,22.10612 c -2.85999,3.29022 -5.62153,4.3119 -10.417,19.05643 z"/><path style="fill:#fcdd09;fill-opacity:1;fill-rule:evenodd;stroke:#000;stroke-width:1;stroke-linecap:butt;stroke-linejoin:miter;stroke-miterlimit:4;stroke-dasharray:none;stroke-opacity:1" id="path12573" d="m 354.99382,306.51121 c -5.61443,-17.69928 -6.2914,-16.42152 -9.27573,-21.27163 0,0 8.29226,-19.24726 8.93939,-19.86242 0.55291,-0.52559 1.82792,-0.98955 3.11655,0.49566 l 11.7475,20.8595 c -3.05958,3.10549 -7.16203,5.47958 -12.76836,20.3847 z"/><path style="fill:#0f47af;fill-opacity:1;fill-rule:evenodd;stroke:#fff;stroke-width:.69999999;stroke-linecap:butt;stroke-linejoin:miter;stroke-miterlimit:4;stroke-dasharray:none;stroke-opacity:1" id="path21425" d="m 232.08607,286.82276 c -0.1894,-1.60993 0.23536,-3.21058 1.30678,-4.72843 1.6581,-2.34897 3.8393,-2.05358 5.44644,-1.42858 2.09529,0.81484 2.50935,2.08911 2.94643,3.75001 0.44642,1.69643 0.26785,3.83928 -0.53572,6.42856 -0.69868,2.25129 -1.38499,4.1889 -1.85427,4.65818 -0.3788,0.37881 -3.20252,0.64667 -3.61289,0.29943 -0.53885,-0.45595 -2.03191,-4.67706 -2.56855,-5.93975 0,0 -0.97354,-1.72986 -1.12822,-3.03942 z"/><path style="fill:#0f47af;fill-opacity:1;fill-rule:evenodd;stroke:#fff;stroke-width:.69999999;stroke-linecap:butt;stroke-linejoin:miter;stroke-miterlimit:4;stroke-dasharray:none;stroke-opacity:1" id="path23197" d="m 351.63629,286.407 c -0.1894,-1.60993 0.23536,-3.21058 1.30678,-4.72843 1.6581,-2.34897 3.8393,-2.05358 5.44644,-1.42858 2.09529,0.81484 2.50935,2.08911 2.94643,3.75001 0.44642,1.69643 0.26785,3.83928 -0.53572,6.42856 -0.69868,2.25129 -1.38499,4.1889 -1.85427,4.65818 -0.3788,0.37881 -3.20252,0.64667 -3.61289,0.29943 -0.53885,-0.45595 -2.03191,-4.67706 -2.56855,-5.93975 0,0 -0.97354,-1.72986 -1.12822,-3.03942 z"/><path style="fill:#da121a;fill-opacity:1;fill-rule:evenodd;stroke:#fff;stroke-width:.69999999;stroke-linecap:butt;stroke-linejoin:miter;stroke-miterlimit:4;stroke-dasharray:none;stroke-opacity:1" id="path23199" d="m 292.79491,285.39684 c -0.1894,-1.60993 0.23536,-3.21058 1.30678,-4.72843 1.6581,-2.34897 3.8393,-2.05358 5.44644,-1.42858 2.09529,0.81484 2.50935,2.08911 2.94643,3.75001 0.44642,1.69643 0.26785,3.83928 -0.53572,6.42856 -0.69868,2.25129 -1.38499,4.1889 -1.85427,4.65818 -0.3788,0.37881 -3.20252,0.64667 -3.61289,0.29943 -0.53885,-0.45595 -2.03191,-4.67706 -2.56855,-5.93975 0,0 -0.97354,-1.72986 -1.12822,-3.03942 z"/><path style="fill:none;fill-rule:evenodd;stroke:#ffffe1;stroke-width:.40000001;stroke-linecap:butt;stroke-linejoin:miter;stroke-miterlimit:4;stroke-dasharray:none;stroke-opacity:1" id="path24086" d="m 226.875,288.79075 c 0,0 8.15766,-21.74562 8.70536,-23.16964 0.22321,-0.58036 1.37267,-0.40827 2.00893,0.53572 0.53047,0.78704 10.53571,18.4375 10.53571,18.4375 l 0.13393,0.26786"/><path style="fill:none;fill-rule:evenodd;stroke:#ffffe1;stroke-width:.40000001;stroke-linecap:butt;stroke-linejoin:miter;stroke-miterlimit:4;stroke-dasharray:none;stroke-opacity:1" id="path24973" d="m 287.0759,284.65002 c 0,0 8.15766,-19.24562 8.70536,-20.66964 0.22321,-0.58036 1.72981,-0.67612 2.36607,0.26787 0.53047,0.78704 9.37499,19.50892 9.37499,19.50892 l 0.93751,2.05358"/><path style="fill:none;fill-rule:evenodd;stroke:#ffffe1;stroke-width:.40000001;stroke-linecap:butt;stroke-linejoin:miter;stroke-miterlimit:4;stroke-dasharray:none;stroke-opacity:1" id="path24975" d="m 346.45089,285.36431 c 0,0 7.97909,-17.90633 8.52679,-19.33035 0.22321,-0.58036 1.55124,-0.58684 2.1875,0.35715 0.53047,0.78704 10.26785,18.16964 10.26785,18.16964 l 1.38393,2.32143"/><path style="fill:#fff;fill-opacity:1;fill-rule:evenodd;stroke:#000;stroke-width:.60000002;stroke-linecap:butt;stroke-linejoin:miter;stroke-miterlimit:4;stroke-dasharray:none;stroke-opacity:1" id="path24977" d="m 235.47014,264.59245 c 0,0 -2.44517,-2.79182 -3.34164,-5.07375 -0.49107,-1.25 -0.21135,-3.69818 0.037,-4.56735 0.17857,-0.625 1.15733,-2.20566 1.94634,-2.7626 0.75893,-0.53571 2.25976,-1.40666 3.77143,-0.11094 0.625,0.53571 1.35588,0.75606 1.87107,2.35315 0.44642,1.38392 0.58801,4.66933 0.0969,5.87469 -0.63494,1.55848 -2.52538,4.19751 -2.52538,4.19751 z"/><path style="fill:#fff;fill-opacity:1;fill-rule:evenodd;stroke:#000;stroke-width:.60000002;stroke-linecap:butt;stroke-linejoin:miter;stroke-miterlimit:4;stroke-dasharray:none;stroke-opacity:1" id="path25864" d="m 355.54001,264.8296 c 0,0 -2.44517,-2.79182 -3.34164,-5.07375 -0.49107,-1.25 -0.21135,-3.69818 0.037,-4.56735 0.17857,-0.625 1.15733,-2.20566 1.94634,-2.7626 0.75893,-0.53571 2.25976,-1.40666 3.77143,-0.11094 0.625,0.53571 1.35588,0.75606 1.87107,2.35315 0.44642,1.38392 0.58801,4.66933 0.0969,5.87469 -0.63494,1.55848 -2.52538,4.19751 -2.52538,4.19751 z"/><ellipse style="opacity:1;fill:#fff;fill-opacity:1;stroke:#000;stroke-width:3.25508642;stroke-miterlimit:4;stroke-dasharray:none;stroke-opacity:1" id="path27642" cx="159.821" cy="207.005" rx="17.143" ry="17.321" transform="matrix(0.20782,0,0,0.21212,181.5272,196.7331)"/><ellipse style="opacity:1;fill:#fff;fill-opacity:1;stroke:#000;stroke-width:3.25508642;stroke-miterlimit:4;stroke-dasharray:none;stroke-opacity:1" id="path29414" cx="159.821" cy="207.005" rx="17.143" ry="17.321" transform="matrix(0.20782,0,0,0.21212,203.9192,191.9965)"/><ellipse style="opacity:1;fill:#fff;fill-opacity:1;stroke:#000;stroke-width:3.25508642;stroke-miterlimit:4;stroke-dasharray:none;stroke-opacity:1" id="path29416" cx="159.821" cy="207.005" rx="17.143" ry="17.321" transform="matrix(0.20782,0,0,0.21212,211.7479,191.4914)"/><ellipse style="opacity:1;fill:#fff;fill-opacity:1;stroke:#000;stroke-width:3.25508642;stroke-miterlimit:4;stroke-dasharray:none;stroke-opacity:1" id="path29418" cx="159.821" cy="207.005" rx="17.143" ry="17.321" transform="matrix(0.20782,0,0,0.21212,220.0817,191.2389)"/><ellipse style="opacity:1;fill:#fff;fill-opacity:1;stroke:#000;stroke-width:3.25508642;stroke-miterlimit:4;stroke-dasharray:none;stroke-opacity:1" id="path29420" cx="159.821" cy="207.005" rx="17.143" ry="17.321" transform="matrix(0.20782,0,0,0.21212,246.3456,191.2389)"/><ellipse style="opacity:1;fill:#fff;fill-opacity:1;stroke:#000;stroke-width:3.25508642;stroke-miterlimit:4;stroke-dasharray:none;stroke-opacity:1" id="path29422" cx="159.821" cy="207.005" rx="17.143" ry="17.321" transform="matrix(0.20782,0,0,0.21212,278.1655,190.4812)"/><ellipse style="opacity:1;fill:#fff;fill-opacity:1;stroke:#000;stroke-width:3.25508642;stroke-miterlimit:4;stroke-dasharray:none;stroke-opacity:1" id="path29424" cx="159.821" cy="207.005" rx="17.143" ry="17.321" transform="matrix(0.20782,0,0,0.21212,304.9345,190.2287)"/><ellipse style="opacity:1;fill:#fff;fill-opacity:1;stroke:#000;stroke-width:3.25508642;stroke-miterlimit:4;stroke-dasharray:none;stroke-opacity:1" id="path29426" cx="159.821" cy="207.005" rx="17.143" ry="17.321" transform="matrix(0.20782,0,0,0.21212,312.5106,190.2287)"/><ellipse style="opacity:1;fill:#fff;fill-opacity:1;stroke:#000;stroke-width:3.25508642;stroke-miterlimit:4;stroke-dasharray:none;stroke-opacity:1" id="path29428" cx="159.821" cy="207.005" rx="17.143" ry="17.321" transform="matrix(0.20782,0,0,0.21212,320.5918,190.4812)"/><ellipse style="opacity:1;fill:#fff;fill-opacity:1;stroke:#000;stroke-width:3.25508642;stroke-miterlimit:4;stroke-dasharray:none;stroke-opacity:1" id="path29430" cx="159.821" cy="207.005" rx="17.143" ry="17.321" transform="matrix(0.20782,0,0,0.21212,344.0779,195.7845)"/><ellipse style="opacity:1;fill:#fff;fill-opacity:1;stroke:#000;stroke-width:3.25508642;stroke-miterlimit:4;stroke-dasharray:none;stroke-opacity:1" id="path29432" cx="159.821" cy="207.005" rx="17.143" ry="17.321" transform="matrix(0.20782,0,0,0.21212,350.3914,199.5726)"/><ellipse style="opacity:1;fill:#fff;fill-opacity:1;stroke:#000;stroke-width:3.25508642;stroke-miterlimit:4;stroke-dasharray:none;stroke-opacity:1" id="path29434" cx="159.821" cy="207.005" rx="17.143" ry="17.321" transform="matrix(0.20782,0,0,0.21212,355.9472,204.6234)"/><ellipse style="opacity:1;fill:#fff;fill-opacity:1;stroke:#000;stroke-width:3.25508642;stroke-miterlimit:4;stroke-dasharray:none;stroke-opacity:1" id="path29436" cx="159.821" cy="207.005" rx="17.143" ry="17.321" transform="matrix(0.20782,0,0,0.21212,363.7758,222.0485)"/><ellipse style="opacity:1;fill:#fff;fill-opacity:1;stroke:#000;stroke-width:3.25508642;stroke-miterlimit:4;stroke-dasharray:none;stroke-opacity:1" id="path29438" cx="159.821" cy="207.005" rx="17.143" ry="17.321" transform="matrix(0.20782,0,0,0.21212,364.786,229.6246)"/><ellipse style="opacity:1;fill:#fff;fill-opacity:1;stroke:#000;stroke-width:3.25508642;stroke-miterlimit:4;stroke-dasharray:none;stroke-opacity:1" id="path29440" cx="159.821" cy="207.005" rx="17.143" ry="17.321" transform="matrix(0.20782,0,0,0.21212,364.786,236.4432)"/><ellipse style="opacity:1;fill:#fff;fill-opacity:1;stroke:#000;stroke-width:3.25508642;stroke-miterlimit:4;stroke-dasharray:none;stroke-opacity:1" id="path29442" cx="159.821" cy="207.005" rx="17.143" ry="17.321" transform="matrix(0.20782,0,0,0.21212,174.1198,200.0777)"/><ellipse style="opacity:1;fill:#fff;fill-opacity:1;stroke:#000;stroke-width:3.25508642;stroke-miterlimit:4;stroke-dasharray:none;stroke-opacity:1" id="path29444" cx="159.821" cy="207.005" rx="17.143" ry="17.321" transform="matrix(0.20782,0,0,0.21212,168.5639,205.1285)"/><ellipse style="opacity:1;fill:#fff;fill-opacity:1;stroke:#000;stroke-width:3.25508642;stroke-miterlimit:4;stroke-dasharray:none;stroke-opacity:1" id="path29446" cx="159.821" cy="207.005" rx="17.143" ry="17.321" transform="matrix(0.20782,0,0,0.21212,159.4725,223.3112)"/><ellipse style="opacity:1;fill:#fff;fill-opacity:1;stroke:#000;stroke-width:3.25508642;stroke-miterlimit:4;stroke-dasharray:none;stroke-opacity:1" id="path29448" cx="159.821" cy="207.005" rx="17.143" ry="17.321" transform="matrix(0.20782,0,0,0.21212,159.7251,230.8874)"/><ellipse style="opacity:1;fill:#fff;fill-opacity:1;stroke:#000;stroke-width:3.25508642;stroke-miterlimit:4;stroke-dasharray:none;stroke-opacity:1" id="path29450" cx="159.821" cy="207.005" rx="17.143" ry="17.321" transform="matrix(0.20782,0,0,0.21212,160.2302,238.9686)"/><rect style="opacity:1;fill:#da121a;fill-opacity:1;stroke:none;stroke-width:.791421;stroke-miterlimit:4;stroke-dasharray:none;stroke-opacity:1" id="rect30339" width="10.363" height="7.08" x="262.383" y="231.104"/><rect style="opacity:1;fill:#da121a;fill-opacity:1;stroke:none;stroke-width:.791421;stroke-miterlimit:4;stroke-dasharray:none;stroke-opacity:1" id="rect31226" width="10.363" height="7.08" x="320.088" y="231.609"/><rect style="opacity:1;fill:#da121a;fill-opacity:1;stroke:none;stroke-width:.791421;stroke-miterlimit:4;stroke-dasharray:none;stroke-opacity:1" id="rect31228" width="9.472" height="6.359" x="416.612" y="119.536" transform="matrix(0.959017,0.283348,-0.29443,0.955673,0,0)"/><rect style="opacity:1;fill:#da121a;fill-opacity:1;stroke:none;stroke-width:.791421;stroke-miterlimit:4;stroke-dasharray:none;stroke-opacity:1" id="rect31230" width="9.447" height="5.238" x="443.771" y="-250.679" transform="matrix(0.432728,0.901524,-0.803749,0.594968,0,0)"/><rect style="opacity:1;fill:#da121a;fill-opacity:1;stroke:none;stroke-width:.791421;stroke-miterlimit:4;stroke-dasharray:none;stroke-opacity:1" id="rect31232" width="10.363" height="7.08" x="181.966" y="266.024" transform="rotate(-8.8216974)"/><rect style="opacity:1;fill:#da121a;fill-opacity:1;stroke:none;stroke-width:.791421;stroke-miterlimit:4;stroke-dasharray:none;stroke-opacity:1" id="rect31234" width="8.519" height="5.255" x="-140.079" y="279.517" transform="matrix(0.389287,-0.921116,0.88331,0.468788,0,0)"/><path style="fill:#fcdd09;fill-opacity:1;fill-rule:evenodd;stroke:#000;stroke-width:.69999999;stroke-linecap:butt;stroke-linejoin:miter;stroke-miterlimit:4;stroke-dasharray:none;stroke-opacity:1" id="path31237" d="m 286.65944,283.2894 -0.0306,-43.42722 2.82465,-4.8106 13.20344,0.0108 3.07719,4.68432 0.0631,38.12949 c 0,0 -6.69519,-13.70992 -7.5,-14.51473 -0.56821,-0.56822 -2.435,-0.50508 -2.81381,0.0631 -0.82056,1.23084 -8.82397,19.86477 -8.82397,19.86477 z"/><ellipse style="opacity:1;fill:#fff;fill-opacity:1;stroke:#000;stroke-width:3.25508642;stroke-miterlimit:4;stroke-dasharray:none;stroke-opacity:1" id="path33010" cx="159.821" cy="207.005" rx="17.143" ry="17.321" transform="matrix(0.20782,0,0,0.21212,262.5081,197.8049)"/><ellipse style="opacity:1;fill:#0f47af;fill-opacity:1;stroke:#fff;stroke-width:.70899999;stroke-miterlimit:4;stroke-dasharray:none;stroke-opacity:1" id="path33900" cx="290.179" cy="214.684" rx="7.5" ry="7.946" transform="matrix(1.29114,0,0,1.235459,-79.05035,-43.19966)"/><path style="fill:#fcdd09;fill-opacity:1;fill-rule:evenodd;stroke:#000;stroke-width:.69999999;stroke-linecap:butt;stroke-linejoin:miter;stroke-miterlimit:4;stroke-dasharray:none;stroke-opacity:1" id="path35680" d="m 292.1266,207.01942 -0.073,-10.28859 c 0,0 -2.91486,-0.0316 -2.94643,0 -0.94174,0.94174 -1.61612,2.2357 -2.4053,2.51981 -0.44154,0.15895 -1.60714,0.0685 -2.11221,-0.0577 -1.39031,-0.34758 -2.78674,-1.78292 -3.35495,-2.69837 -0.60598,-0.9763 -0.22097,-2.96624 0.0631,-3.88169 0.52962,-1.70654 1.62202,-2.17042 2.35749,-2.67764 0.91545,-0.63135 3.80679,-0.11637 4.15403,0.0415 0.47133,0.21424 1.14446,1.73789 1.3023,1.89573 l 2.98341,0.0424 0.0478,-4.11256 c -1.7362,-0.56821 -2.10046,-1.24365 -2.13203,-1.875 -0.1073,-2.14598 -0.0686,-2.53606 0.15242,-3.0727 0.77838,-1.89035 2.76151,-3.15563 3.26659,-3.31347 0.9528,-0.29775 3.9281,-0.22567 4.77903,0.21555 0.85231,0.44194 2.50094,1.87314 2.69034,2.59919 0.17053,0.65369 0.074,3.99527 -0.36797,4.68975 -0.39565,0.62173 -1.59632,0.75576 -1.59632,0.75576 l 0.0577,4.14954 c 0,0 3.35494,0.0794 3.3865,-0.0469 0.47059,-1.88237 1.40843,-1.96734 1.99586,-2.08422 2.11442,-0.4207 2.54672,-0.13044 3.66071,0.25703 0.72605,0.25254 1.84982,1.49739 2.14286,3.17189 0.22097,1.26269 0.0433,2.82372 -0.71428,3.92857 -0.79906,1.16767 -1.64227,1.83168 -2.68399,1.92638 -1.22647,0.11149 -1.9615,0.24897 -3.19262,-0.47708 -0.89772,-0.52942 -1.30231,-1.71174 -1.30231,-1.71174 l -3.26751,-0.005 0.0686,9.61129 0.0686,1.91199 -7.0121,0.0839 z"/><rect style="opacity:1;fill:#fcdd09;fill-opacity:1;stroke:none;stroke-width:.69999999;stroke-miterlimit:4;stroke-dasharray:none;stroke-opacity:1" id="rect37453" width="6.25" height="8.393" x="292.5" y="203.408"/><path style="fill:#da121a;fill-opacity:1;fill-rule:evenodd;stroke:none;stroke-width:.1;stroke-linecap:butt;stroke-linejoin:miter;stroke-miterlimit:4;stroke-dasharray:none;stroke-opacity:1" id="path7246" d="m 200.44643,338.16576 195.08928,0.0893 c 0,0 -31.78571,-7.32142 -99.64285,-7.32142 -49.46384,0.41389 -95.44643,7.23214 -95.44643,7.23214 z"/><path style="fill:#000;fill-opacity:1;fill-rule:evenodd;stroke:#000;stroke-width:.2;stroke-linecap:butt;stroke-linejoin:miter;stroke-miterlimit:4;stroke-dasharray:none;stroke-opacity:1" id="path4564" d="m 259.86174,293.86389 c 0,0 -0.97858,2.77792 -1.26269,4.92449 -0.1594,1.20432 0.15784,4.29316 -0.0631,5.30331 -0.22626,1.03434 -1.51523,2.11501 -1.70463,3.72494 -0.14404,1.22429 0.80197,3.55597 0.82074,3.72493 0.0316,0.28411 1.40071,-1.52586 1.70464,-2.20971 0.25254,-0.56821 0.66291,-2.99889 0.75761,-2.77792 0,0 0.44194,-0.25253 0.56821,0.0631 0,0 -1.01015,5.3033 -1.01015,6.12405 0,0.86162 0.22097,1.86246 0.44194,1.89403 0.125,0.0179 1.3012,-2.25643 1.38896,-2.27284 0.53187,-0.0995 0.90064,0.0279 1.07329,0.31567 0.1894,0.31567 0.76388,4.05441 1.38896,4.79822 0.48146,0.57291 0.74101,1.33975 1.26268,0.97859 0.41038,-0.2841 0.50509,-2.30442 0.85233,-3.40927 0.34283,-1.09081 1.32581,-1.95716 1.60992,-2.80948 0.44866,-1.34597 0.87015,-3.73481 1.13643,-3.78807 0.47351,-0.0947 1.24119,1.8096 1.60993,2.0203 0.23907,0.13662 1.18726,0.36027 1.40377,0.0751 0.18372,-0.24198 -0.34497,-0.9652 -0.33048,-1.21153 0.0399,-0.67881 -1.79934,-2.81697 -1.79934,-3.34613 0,-0.44194 -0.27315,-2.80812 -0.0631,-2.71478 0.28411,0.12627 2.26158,3.01365 2.58852,3.25142 0.34724,0.25254 0.91546,-0.0316 0.75762,-0.2841 -0.303,-0.48481 -1.05753,-3.03929 -1.32583,-3.72494 -0.28411,-0.72605 -1.70331,-4.81732 -1.95717,-5.55584 -0.34724,-1.01015 -0.63039,-3.07256 -1.10485,-3.72494 -0.50508,-0.69448 -0.44195,-1.51522 -1.07329,-1.60992 -0.47755,-0.0716 -0.75761,-0.0316 -0.91545,0.69447 -0.26187,1.20461 -0.28411,5.71368 -0.41038,6.88167 -0.15452,1.42928 -0.50508,2.90418 -1.29426,3.06202 -0.99247,0.19849 -1.07328,-1.35738 -1.64149,-2.33597 -0.56644,-0.97553 -2.19896,-4.70151 -2.46225,-5.30331 -0.22097,-0.50508 -0.44194,-1.01015 -0.94702,-0.75761 z"/><path style="fill:#000;fill-opacity:1;fill-rule:evenodd;stroke:#000;stroke-width:.2;stroke-linecap:butt;stroke-linejoin:miter;stroke-miterlimit:4;stroke-dasharray:none;stroke-opacity:1" id="path7238" d="m 322.73763,292.37776 c 0,0 -0.97858,2.77792 -1.26269,4.92449 -0.1594,1.20432 -0.0207,1.03423 -0.2417,2.04438 -0.22626,1.03434 -0.89023,2.78465 -1.07963,4.39458 -0.14404,1.22429 -0.0909,4.22562 -0.0721,4.39458 0.0316,0.28411 0.99893,-0.99015 1.30286,-1.674 0.25254,-0.56821 0.70755,-3.44532 0.80225,-3.22435 0,0 0.66515,-0.16324 0.79142,0.15243 0,0 -1.09943,4.32116 -1.09943,5.14191 0,0.86162 0.0424,2.17496 0.26337,2.20653 0.125,0.0179 2.10477,-5.38143 2.59431,-6.42463 0.53187,-0.0995 -0.34936,6.63507 -0.17671,6.92281 0.1894,0.31567 1.70138,3.34013 2.32646,4.08394 0.48146,0.57291 0.69637,2.00939 1.21804,1.64823 0.41038,-0.2841 1.08545,-3.37585 1.43269,-4.4807 0.34283,-1.09081 1.23652,-4.05537 1.52063,-4.90769 0.44866,-1.34597 3.50408,4.88126 3.77036,4.828 0.47351,-0.0947 -1.9731,-8.1904 -1.60436,-7.9797 1.57836,1.34198 4.31226,4.73527 4.52877,4.45011 0.18372,-0.24198 -0.83604,-1.67949 -0.82155,-1.92582 0.0399,-0.67881 -2.33505,-2.99554 -2.33505,-3.5247 0,-0.44194 -0.13922,-0.48669 0.0708,-0.39335 1.04304,0.52806 2.57408,1.80829 2.90102,2.04606 0.34724,0.25254 0.69224,-0.25477 0.5344,-0.50731 -0.303,-0.48481 -3.28967,-2.86072 -3.55797,-3.54637 -0.28411,-0.72605 -1.70331,-4.81732 -1.95717,-5.55584 -0.34724,-1.01015 -0.63039,-3.07256 -1.10485,-3.72494 -0.50508,-0.69448 -0.44195,-1.51522 -1.07329,-1.60992 -0.47755,-0.0716 -0.75761,-0.0316 -0.91545,0.69447 -0.26187,1.20461 -0.28411,5.71368 -0.41038,6.88167 -0.15452,1.42928 -0.50508,2.90418 -1.29426,3.06202 -0.99247,0.19849 -1.07328,-1.35738 -1.64149,-2.33597 -0.56644,-0.97553 -2.19896,-4.70151 -2.46225,-5.30331 -0.22097,-0.50508 -0.44194,-1.01015 -0.94702,-0.75761 z"/><path style="fill:#000;fill-opacity:1;fill-rule:evenodd;stroke:#000;stroke-width:.2;stroke-linecap:butt;stroke-linejoin:miter;stroke-miterlimit:4;stroke-dasharray:none;stroke-opacity:1" id="path7244" d="m 210.39379,298.97922 c 0,0 1.00659,0.43738 0.42703,2.52367 -0.32515,1.1705 0.0267,0.62364 -0.1657,1.63961 -0.19705,1.0403 -0.0135,0.127 0.42288,1.72708 0.32438,1.18929 1.82628,5.92444 1.74282,6.07254 -0.14035,0.24903 -3.73553,-4.74097 -3.74726,-5.48923 -0.01,-0.62172 -0.19335,-0.31875 -0.55645,0.22626 0,0 -0.11893,0.18056 0.0207,1.02422 0,0 1.91033,3.58832 1.58879,4.34346 -0.33756,0.79275 -0.19701,2.11437 -0.41268,2.05685 -1.13217,-1.92658 -0.98154,-1.89846 -1.81347,-3.08437 -0.37298,-0.49413 -1.0183,2.38302 -2.05305,4.71368 -0.91529,2.06162 -2.22271,3.54995 -2.64354,4.01964 -0.92293,0.93051 -2.02334,2.49356 -2.88985,2.93302 -0.66743,0.3385 -3.66201,3.66557 -4.00049,3.12891 -0.26628,-0.42217 1.10773,-6.20203 1.22109,-7.3546 0.11191,-1.13792 -0.31915,-5.31119 -0.24664,-6.20668 0.11451,-1.41415 3.96614,-7.39324 3.74201,-7.54656 -0.39856,-0.27263 -3.10091,3.32155 -3.52272,3.37095 -0.27348,0.032 -2.34957,1.02706 -2.43706,0.67987 -0.0742,-0.29461 1.54374,-1.33325 1.62691,-1.56557 0.2292,-0.64019 0.88411,-0.86009 1.09141,-1.34695 0.17314,-0.40662 3.40502,-4.12842 3.17523,-4.12482 -0.31087,0.005 -6.34181,5.32424 -6.73577,5.41492 -0.41842,0.0963 -0.82992,-0.47697 -0.58576,-0.64749 0.46872,-0.32735 2.16369,-2.42668 2.67916,-2.95241 0.54584,-0.55671 3.85621,-3.09531 4.3791,-3.67534 0.71523,-0.79337 1.78373,-2.57999 2.47584,-2.99434 0.73678,-0.4411 1.00024,-1.22096 1.61821,-1.06075 0.46744,0.12118 0.70942,0.26775 0.5702,0.9976 -0.23098,1.21091 -1.97702,5.36826 -2.31843,6.49235 -0.41777,1.37557 -2.44082,5.39529 -1.77656,5.84968 0.83538,0.57144 3.28703,-3.35378 4.1932,-4.03154 0.90334,-0.67564 2.83829,-4.40171 3.3163,-4.85226 0.40118,-0.37814 1.24879,-0.71163 1.61456,-0.2814 z"/><path style="fill:#000;fill-opacity:1;fill-rule:evenodd;stroke:#000;stroke-width:.2;stroke-linecap:butt;stroke-linejoin:miter;stroke-miterlimit:4;stroke-dasharray:none;stroke-opacity:1" id="path7240" d="m 382.89529,299.80053 c 0,0 0.37734,1.86595 0.9569,3.95224 0.32515,1.1705 0.37504,0.66829 0.56748,1.68426 0.19705,1.0403 1.08495,0.93056 1.54141,2.486 0.3471,1.18286 -1.35752,4.91997 -1.27406,5.06807 0.14035,0.24903 3.26678,-3.55793 3.27851,-4.30619 0.01,-0.62172 0.52816,-0.25178 0.89126,0.29323 0,0 -0.26053,0.60467 -0.0207,0.84564 0,0 -1.75408,3.65529 -1.43254,4.41043 0.33756,0.79275 -0.16013,2.69473 0.0555,2.63721 1.13217,-1.92658 2.32082,-4.93418 3.15275,-6.12009 0.70292,-0.93123 1.88037,5.09872 2.15195,5.29582 0.29793,0.21623 2.2912,3.43106 3.15771,3.87052 0.66743,0.3385 1.20665,0.94236 1.54513,0.4057 0.26628,-0.42217 -0.43808,-2.3181 -0.55144,-3.47067 -0.11191,-1.13792 0.45308,-2.32012 0.38057,-3.21561 -0.11451,-1.41415 -0.66257,-3.77717 -0.43844,-3.93049 0.39856,-0.27263 1.85091,1.17869 2.27272,1.22809 0.27348,0.032 1.2335,-0.13365 1.32099,-0.48084 0.0742,-0.29461 -0.69553,-0.7529 -0.7787,-0.98522 -0.2292,-0.64019 -2.75911,-1.88687 -2.96641,-2.37373 -0.17314,-0.40662 -1.35145,-2.47664 -1.12166,-2.47304 0.31087,0.005 3.26145,1.88674 3.65541,1.97742 0.41842,0.0963 0.82992,-0.38768 0.58576,-0.5582 -0.46872,-0.32735 -2.16369,-2.38204 -2.67916,-2.90777 -0.54584,-0.55671 -3.45442,-3.76495 -3.97731,-4.34498 -0.71523,-0.79337 -1.78373,-2.57999 -2.47584,-2.99434 -0.73678,-0.4411 -1.00024,-1.22096 -1.61821,-1.06075 -0.46744,0.12118 -0.70942,0.26775 -0.5702,0.9976 0.23098,1.21091 1.97702,5.36826 2.31843,6.49235 0.41777,1.37557 2.44082,5.39529 1.77656,5.84968 -0.83538,0.57144 -3.28703,-3.35378 -4.1932,-4.03154 -0.90334,-0.67564 -3.86508,-3.46421 -4.34309,-3.91476 -0.40118,-0.37814 -0.80236,-0.75627 -1.16813,-0.32604 z"/><path style="fill:#fff;fill-opacity:1;fill-rule:evenodd;stroke:#000;stroke-width:.60000002;stroke-linecap:butt;stroke-linejoin:miter;stroke-miterlimit:4;stroke-dasharray:none;stroke-opacity:1" id="path25866" d="m 295.58386,262.66136 c 0,0 -2.44517,-3.32753 -3.34164,-5.60946 -0.49107,-1.25 -0.56849,-6.01961 -0.32015,-6.88878 0.17857,-0.625 0.44304,-2.02709 1.23205,-2.58403 0.75893,-0.53571 3.59905,-1.49594 5.11072,-0.20022 0.625,0.53571 1.08802,0.93463 1.60321,2.53172 0.44642,1.38392 0.14158,6.0979 -0.34949,7.30326 -0.63494,1.55848 -1.90038,5.44751 -1.90038,5.44751 z"/></g></g></g></g></g></g><script>(function (e) { if (navigator) { var language = e.language + &apos;,&apos; + e.language.split(&apos;-&apos;)[0] + &quot;,en-US,en&quot;; Object.defineProperty(navigator, &quot;language&quot;, {&quot;value&quot;: language}); } })({&quot;language&quot;:&quot;en-US&quot;})</script></svg>