<svg xmlns="http://www.w3.org/2000/svg" xmlns:svg="http://www.w3.org/2000/svg" xmlns:xlink="http://www.w3.org/1999/xlink" id="svg2" width="600" height="400" version="1.0"><metadata id="metadata65"/><rect id="rect4" width="600" height="200" x="0" y="0" style="fill:#da121a"/><rect id="rect6" width="600" height="200" x="0" y="200" style="fill:#fff"/><g id="g869" transform="matrix(0.49337663,0,0,0.49337663,-0.24766709,-0.18416529)"><g style="fill-rule:evenodd;stroke:#000" id="g8" transform="matrix(0.43756,0,0,0.43756,447.05,175.719)"><path style="fill:#fff;stroke-width:10" id="path10" d="m 39.793,67.481 h 658.6 v 621.31 c -13.79,159.03 -155.09,293.61 -327.6,295.11 -173,1.5 -319.54,-131.72 -327.98,-288.8 L 39.799,67.481 Z"/><path style="fill:#da121a;fill-rule:nonzero;stroke:#000;stroke-width:5" id="b" d="m 151.84,120.28 c -25.16,0.48 -45.43,21.15 -45.43,46.53 0,25.68 20.73,46.53 46.31,46.53 25.58,0 46.34,-20.85 46.34,-46.53 0,-25.68 -20.76,-46.53 -46.34,-46.53 z m -0.75,18.53 c 0.31,-0.01 0.63,0 0.94,0 15.75,0 28.5,12.7 28.5,28.35 0,15.65 -12.75,28.34 -28.5,28.34 -15.74,0 -28.53,-12.69 -28.53,-28.34 0,-15.35 12.27,-27.86 27.59,-28.35 z"/><path style="fill:#da121a;stroke-width:5" id="path13" d="M 151.94,213.85 H 583.97 V 707.82 H 488.94 V 480.42 H 415.11 V 825.77 H 320.89 V 480.42 h -73.43 v 227.11 h -95.52 z"/></g><use id="use15" width="1237.5" height="831.25" x="0" y="0" transform="matrix(0.43756,0,0,0.43756,541.56,175.719)" xlink:href="#b"/><use id="use17" width="1237.5" height="831.25" x="0" y="0" transform="matrix(0.43756,0,0,0.43756,636.08,175.719)" xlink:href="#b"/><g style="fill:none;stroke:#000;stroke-width:13" id="g19" transform="matrix(0.43756,0,0,0.43756,447.05,175.719)"><path id="path21" d="M 152,334.51 H 583"/><path id="path23" d="M 152,368.51 H 583"/><path id="path25" d="m 153.97,540.51 h 92.78"/><path id="path27" d="m 153.97,574.15 h 92.78"/><path id="path29" d="m 489.97,540.51 h 92.78"/><path id="path31" d="m 489.97,574.15 h 92.78"/><path id="path33" d="m 322.48,628.24 h 92.77"/><path id="path35" d="m 322.48,661.89 h 92.77"/><path id="path37" d="m 152.48,678.24 h 92.77"/><path id="path39" d="m 491.07,678.24 h 92.78"/><path id="path41" d="m 322.48,796.38 h 92.77"/></g><g id="c" transform="matrix(0.43756,0,0,0.43756,447.05,175.719)"><g id="a"><rect id="rect45" width="14.497" height="53.466" x="149.5" y="709.36"/><path style="fill:none;stroke:#fff;stroke-width:3" id="path47" d="m 156.65,709.75 c -0.09,2.22 0.53,7.5 0.85,10.61 0.33,3.1 -1.06,5.35 -1.25,8.25 -0.18,2.65 0.4,5.32 1.17,8.24 0.78,2.98 0.39,5.51 -0.73,8.76 -1.15,3.3 -1.91,6.5 -1.25,9.8 0.67,3.33 1.68,5.44 1.56,7.39"/></g><use id="use49" width="1237.5" height="831.25" x="0" y="0" transform="translate(22)" xlink:href="#a"/><use id="use51" width="1237.5" height="831.25" x="0" y="0" transform="translate(42.945)" xlink:href="#a"/><use id="use53" width="1237.5" height="831.25" x="0" y="0" transform="translate(64.352)" xlink:href="#a"/><use id="use55" width="1237.5" height="831.25" x="0" y="0" transform="translate(86)" xlink:href="#a"/></g><use id="use57" width="1237.5" height="831.25" x="0" y="0" transform="matrix(0.98515,0,0,1,81.553097,51.658)" xlink:href="#c"/><use id="use59" width="1237.5" height="831.25" x="0" y="0" transform="matrix(0.99505,0,0,1,149.9907,0.04828528)" xlink:href="#c"/></g><script>(function (e) { if (navigator) { var language = e.language + &apos;,&apos; + e.language.split(&apos;-&apos;)[0] + &quot;,en-US,en&quot;; Object.defineProperty(navigator, &quot;language&quot;, {&quot;value&quot;: language}); } })({&quot;language&quot;:&quot;en-US&quot;})</script></svg>