<svg xmlns="http://www.w3.org/2000/svg" xmlns:xlink="http://www.w3.org/1999/xlink" preserveAspectRatio="xMinYMid" viewBox="0 0 24.03 29"><defs><style>.cls-1,.cls-4,.cls-6{fill:none}.cls-2{clip-path:url(#clip-path)}.cls-3{fill:#c2172e}.cls-4{stroke:#171714;stroke-miterlimit:3.86;stroke-width:.45px}.cls-5{fill:#fff}.cls-6{stroke:#fff;stroke-miterlimit:11.47;stroke-width:.08px}</style><clipPath id="clip-path"><rect width="24.03" height="29" class="cls-1"/></clipPath></defs><g><g><g class="cls-2"><path d="M.23,17.67V.23H23.8V17.67c0,7.38-6.71,11.1-11.8,11.1C6.52,28.77.22,25.06.23,17.67" class="cls-3"/><path d="M.23,17.67V.23H23.8V17.67c0,7.38-6.71,11.1-11.8,11.1C6.52,28.77.22,25.06.23,17.67Z" class="cls-4"/></g><polygon points="18.73 1.76 17.62 1.76 17.62 5.14 14.24 5.14 14.24 6.25 17.63 6.25 17.63 9.63 18.75 9.63 18.74 6.25 22.12 6.25 22.12 5.14 18.73 5.14 18.73 1.76" class="cls-5"/><polygon points="18.73 1.76 17.62 1.76 17.62 5.14 14.24 5.14 14.24 6.25 17.63 6.25 17.63 9.63 18.75 9.63 18.74 6.25 22.12 6.25 22.12 5.14 18.73 5.14 18.73 1.76" class="cls-6"/></g></g></svg>