<svg xmlns="http://www.w3.org/2000/svg" xmlns:svg="http://www.w3.org/2000/svg" xmlns:xlink="http://www.w3.org/1999/xlink" id="svg2" width="750" height="500" version="1.1"><defs id="defs4"><g id="stl" transform="scale(15,15)" style="fill:#fff"><g id="q"><polygon id="t" points="0 0 0 1 .4 1" transform="matrix(0.95105652,0.30901699,-0.30901699,0.95105652,0,-1)"/><use id="use9" width="324" height="216" x="0" y="0" transform="scale(-1,1)" xlink:href="#t"/></g><use id="use11" width="324" height="216" x="0" y="0" transform="matrix(0.30901699,0.95105652,-0.95105652,0.30901699,0,0)" xlink:href="#q"/><use id="use13" width="324" height="216" x="0" y="0" transform="matrix(0.30901699,-0.95105652,0.95105652,0.30901699,0,0)" xlink:href="#q"/><use id="use15" width="324" height="216" x="0" y="0" transform="matrix(-0.80901699,0.58778525,-0.58778525,-0.80901699,0,0)" xlink:href="#q"/><use id="use17" width="324" height="216" x="0" y="0" transform="matrix(-0.80901699,-0.58778525,0.58778525,-0.80901699,0,0)" xlink:href="#q"/></g></defs><rect id="rect19" width="750" height="500" x="0" y="0" style="fill:#078930;fill-opacity:1"/><use id="use21" width="324" height="216" x="0" y="0" transform="matrix(2.3148148,0,0,2.3148148,57.87037,414.3519)" xlink:href="#stl"/><use id="use23" width="324" height="216" x="0" y="0" transform="matrix(2.3148148,0,0,2.3148148,692.12963,414.3519)" xlink:href="#stl"/><use id="use25" width="324" height="216" x="0" y="0" transform="matrix(2.3148148,0,0,2.3148148,85.648148,344.9074)" xlink:href="#stl"/><use id="use27" width="324" height="216" x="0" y="0" transform="matrix(2.3148148,0,0,2.3148148,664.35185,344.9074)" xlink:href="#stl"/><use id="use29" width="324" height="216" x="0" y="0" transform="matrix(2.3148148,0,0,2.3148148,120.37037,277.7778)" xlink:href="#stl"/><use id="use31" width="324" height="216" x="0" y="0" transform="matrix(2.3148148,0,0,2.3148148,629.62963,277.7778)" xlink:href="#stl"/><use id="use33" width="324" height="216" x="0" y="0" transform="matrix(2.3148148,0,0,2.3148148,159.72222,212.963)" xlink:href="#stl"/><use id="use35" width="324" height="216" x="0" y="0" transform="matrix(2.3148148,0,0,2.3148148,590.27778,212.963)" xlink:href="#stl"/><use id="use37" width="324" height="216" x="0" y="0" transform="matrix(2.3148148,0,0,2.3148148,208.33333,155.0926)" xlink:href="#stl"/><use id="use39" width="324" height="216" x="0" y="0" transform="matrix(2.3148148,0,0,2.3148148,541.66667,155.0926)" xlink:href="#stl"/><use id="use41" width="324" height="216" x="0" y="0" transform="matrix(2.3148148,0,0,2.3148148,266.2037,108.7963)" xlink:href="#stl"/><use id="use43" width="324" height="216" x="0" y="0" transform="matrix(2.3148148,0,0,2.3148148,483.7963,108.7963)" xlink:href="#stl"/><use id="use45" width="324" height="216" x="0" y="0" transform="matrix(2.3148148,0,0,2.3148148,335.64815,81.0185)" xlink:href="#stl"/><use id="use47" width="324" height="216" x="0" y="0" transform="matrix(2.3148148,0,0,2.3148148,414.35185,81.0185)" xlink:href="#stl"/></svg>