<svg xmlns="http://www.w3.org/2000/svg" xmlns:svg="http://www.w3.org/2000/svg" id="svg2" width="900" height="600" version="1.1" viewBox="0 0 900 600"><metadata id="metadata8"/><rect id="rect4" width="900" height="300" x="0" y="-600" transform="scale(1,-1)" style="fill:#00803d;fill-opacity:1"/><rect id="rect6" width="900" height="300" x="0" y="-300" transform="scale(1,-1)" style="fill:#00803d;fill-opacity:1"/><rect id="rect8" width="900" height="200" x="0" y="-400" transform="scale(1,-1)" style="fill:#fff;fill-opacity:1"/><polygon id="polygon14" fill="#fff" points="238.788 62.019 226.527 66.621 218.363 56.383 218.952 69.462 206.691 74.063 219.314 77.547 219.902 90.63 227.116 79.701 239.736 83.185 231.574 72.947" transform="matrix(1.2525327,0,0,1.2619218,223.90089,167.77906)" style="fill:#00803d;fill-opacity:1"/><polygon id="polygon16" fill="#fff" points="219.038 128.164 232.081 126.99 237.226 139.029 240.141 126.265 253.183 125.091 241.94 118.375 244.854 105.608 234.995 114.224 223.754 107.507 228.9 119.548" transform="matrix(1.2525327,0,0,1.2619218,223.90089,167.77906)" style="fill:#00803d;fill-opacity:1"/><polygon id="polygon18" fill="#fff" points="191.999 171.885 203.796 166.205 212.846 175.67 211.087 162.693 222.885 157.012 210.002 154.675 208.244 141.698 202.04 153.229 189.154 150.891 198.204 160.356" transform="matrix(1.2525327,0,0,1.2619218,223.90089,167.77906)" style="fill:#00803d;fill-opacity:1"/><polygon id="polygon20" fill="#fff" points="148.152 175.669 157.201 166.203 168.999 171.885 162.794 160.355 171.843 150.891 158.959 153.229 152.754 141.697 150.996 154.674 138.114 157.011 149.91 162.692" transform="matrix(1.2525327,0,0,1.2619218,223.90089,167.77906)" style="fill:#00803d;fill-opacity:1"/><polygon id="polygon22" fill="#fff" points="107.817 125.089 120.859 126.262 123.773 139.028 128.918 126.988 141.96 128.162 132.099 119.547 137.246 107.506 126.004 114.222 116.145 105.607 119.058 118.372" transform="matrix(1.2525327,0,0,1.2619218,223.90089,167.77906)" style="fill:#00803d;fill-opacity:1"/><polygon id="polygon24" fill="#fff" points="142.637 56.382 134.473 66.619 122.213 62.018 129.428 72.946 121.263 83.184 133.885 79.699 141.099 90.628 141.686 77.546 154.309 74.063 142.049 69.461" transform="matrix(1.2525327,0,0,1.2619218,223.90089,167.77906)" style="fill:#00803d;fill-opacity:1"/><polygon id="polygon26" fill="#fff" points="163.359 46.402 173.953 54.098 169.906 66.552 180.5 58.854 191.094 66.552 187.048 54.098 197.641 46.402 184.547 46.402 180.5 33.948 176.454 46.402" transform="matrix(1.2525327,0,0,1.2619218,223.90089,167.77906)" style="fill:#00803d;fill-opacity:1"/></svg>