<svg xmlns="http://www.w3.org/2000/svg" xmlns:xlink="http://www.w3.org/1999/xlink" width="924" height="660"><path fill="#942b9d" d="M0 0H924V660H0z"/><g transform="translate(462 330) scale(32.5)"><g id="b"><path id="a" fill="#fff" d="M-2.198545-3.807992a2.220013 2.220013 0 0 1 .925451-1.510714A5.10392 5.10392 0 0 0 0-6.6a5.10392 5.10392 0 0 0 1.273094 1.281294 2.220013 2.220013 0 0 1 .925451 1.510714L0 1z"/><use transform="rotate(180)" xlink:href="#a"/></g><use transform="rotate(60)" xlink:href="#b"/><use transform="rotate(120)" xlink:href="#b"/><g id="d"><path id="c" fill="#fc0" d="M-.921696-2.381611l-.307794-.896066a1.3 1.3 0 1 1 2.458978 0l-.307794 .896066a.4 .4 0 0 0 .679993.392594L0 .2z"/><use transform="rotate(180)" xlink:href="#c"/></g><use transform="rotate(60)" xlink:href="#d"/><use transform="rotate(120)" xlink:href="#d"/><g id="f"><path id="e" fill="#fff" d="M-.40535-1.8119961l-.1893-1.408059a.6.6 0 1 1 1.1893 0l-.1893 1.408059a.6 .6 0 0 0 .96121.554955L0 .6z"/><use transform="rotate(180)" xlink:href="#e"/></g><use transform="rotate(60)" xlink:href="#f"/><use transform="rotate(120)" xlink:href="#f"/><circle r="1" fill="#fc0"/></g></svg>