<svg xmlns="http://www.w3.org/2000/svg" xmlns:svg="http://www.w3.org/2000/svg" xmlns:xlink="http://www.w3.org/1999/xlink" id="svg2" width="350" height="200" version="1.0"><metadata id="metadata7"/><defs id="defs5"><radialGradient id="id100" cx="12.805" cy="146.635" r="5.759" fx="12.805" fy="146.635" gradientUnits="userSpaceOnUse" xlink:href="#id97"/><radialGradient id="id99" cx="18.229" cy="129.314" r="5.215" fx="18.229" fy="129.314" gradientUnits="userSpaceOnUse" xlink:href="#id97"/><radialGradient id="id98" cx="145.917" cy="129.314" r="5.215" fx="145.917" fy="129.314" gradientUnits="userSpaceOnUse" xlink:href="#id97"/><radialGradient id="id97" cx="151.341" cy="146.635" r="5.759" fx="151.341" fy="146.635" gradientUnits="userSpaceOnUse"><stop id="stop4859" offset="0" style="stop-color:#be3b34"/><stop id="stop4861" offset="1" style="stop-color:#da251d"/></radialGradient><radialGradient id="id96" cx="141.107" cy="172.478" r="8.721" fx="141.107" fy="172.478" gradientUnits="userSpaceOnUse" xlink:href="#id93"/><radialGradient id="id95" cx="18.176" cy="188.552" r="3.422" fx="18.176" fy="188.552" gradientUnits="userSpaceOnUse" xlink:href="#id93"/><radialGradient id="id94" cx="145.971" cy="188.552" r="3.422" fx="145.971" fy="188.552" gradientUnits="userSpaceOnUse" xlink:href="#id93"/><radialGradient id="id93" cx="20.995" cy="172.478" r="8.721" fx="20.995" fy="172.478" gradientUnits="userSpaceOnUse"><stop id="stop4851" offset="0" style="stop-color:#28166f"/><stop id="stop4853" offset="1" style="stop-color:#e77817"/></radialGradient><radialGradient id="id92" cx="34.242" cy="175.725" r="17.724" fx="34.242" fy="175.725" gradientUnits="userSpaceOnUse" xlink:href="#id91"/><radialGradient id="id91" cx="140.007" cy="175.725" r="17.724" fx="140.007" fy="175.725" gradientUnits="userSpaceOnUse"><stop id="stop4845" offset="0" style="stop-color:#feedf4"/><stop id="stop4847" offset="1" style="stop-color:#fce0ec"/></radialGradient><radialGradient id="id90" cx="59.473" cy="104.986" r="52.928" fx="59.473" fy="104.986" gradientUnits="userSpaceOnUse"><stop id="stop4840" offset="0" style="stop-color:white"/><stop id="stop4842" offset="1" style="stop-color:#efeeee"/></radialGradient><radialGradient id="id89" cx="142.648" cy="174.971" r="6.92" fx="142.648" fy="174.971" gradientUnits="userSpaceOnUse" xlink:href="#id88"/><radialGradient id="id88" cx="21.498" cy="174.971" r="6.92" fx="21.498" fy="174.971" gradientUnits="userSpaceOnUse"><stop id="stop4834" offset="0" style="stop-color:#f8c300"/><stop id="stop4836" offset="1" style="stop-color:#e77817"/></radialGradient><linearGradient id="id87" x1="137.151" x2="139.516" y1="211.007" y2="216.2" gradientUnits="userSpaceOnUse" xlink:href="#id86"/><linearGradient id="id86" x1="26.996" x2="24.631" y1="211.007" y2="216.2" gradientUnits="userSpaceOnUse"><stop id="stop4828" offset="0" style="stop-color:#f19abe"/><stop id="stop4830" offset="1" style="stop-color:#fce0ec"/></linearGradient><linearGradient id="id85" x1="77.29" x2="69.31" y1="50.887" y2="54.713" gradientUnits="userSpaceOnUse" xlink:href="#id52"/><linearGradient id="id84" x1="11.448" x2="19.199" y1="166.671" y2="172.766" gradientUnits="userSpaceOnUse" xlink:href="#id83"/><linearGradient id="id83" x1="144.947" x2="152.698" y1="166.671" y2="172.766" gradientUnits="userSpaceOnUse"><stop id="stop4819" offset="0" style="stop-color:#fff9fb"/><stop id="stop4821" offset=".678" style="stop-color:#feeff5"/><stop id="stop4823" offset="1" style="stop-color:#fde4ee"/></linearGradient><linearGradient id="id82" x1="80.001" x2="80.266" y1="220.329" y2="212.549" gradientUnits="userSpaceOnUse" xlink:href="#id81"/><linearGradient id="id81" x1="84.882" x2="85.336" y1="227.743" y2="214.442" gradientUnits="userSpaceOnUse"><stop id="stop4813" offset="0" style="stop-color:#667ab3"/><stop id="stop4815" offset="1" style="stop-color:#27a9d6"/></linearGradient><linearGradient id="id80" x1="146.061" x2="147.907" y1="188.014" y2="195.614" gradientUnits="userSpaceOnUse" xlink:href="#id61"/><linearGradient id="id79" x1="18.086" x2="16.239" y1="188.014" y2="195.614" gradientUnits="userSpaceOnUse" xlink:href="#id61"/><linearGradient id="id78" x1="78.571" x2="90.068" y1="54.315" y2="30.934" gradientUnits="userSpaceOnUse"><stop id="stop4806" offset="0" style="stop-color:#dededd"/><stop id="stop4808" offset="1" style="stop-color:#838281"/></linearGradient><linearGradient id="id77" x1="137.673" x2="136.511" y1="210.147" y2="199.177" gradientUnits="userSpaceOnUse" xlink:href="#id76"/><linearGradient id="id76" x1="26.473" x2="27.635" y1="210.147" y2="199.177" gradientUnits="userSpaceOnUse"><stop id="stop4800" offset="0" style="stop-color:#ef90b6"/><stop id="stop4802" offset="1" style="stop-color:white"/></linearGradient><linearGradient id="id75" x1="151.337" x2="146.529" y1="201.648" y2="189.493" gradientUnits="userSpaceOnUse" xlink:href="#id74"/><linearGradient id="id74" x1="12.809" x2="17.618" y1="201.648" y2="189.493" gradientUnits="userSpaceOnUse"><stop id="stop4792" offset="0" style="stop-color:#f8c300"/><stop id="stop4794" offset=".212" style="stop-color:#f09e22"/><stop id="stop4796" offset="1" style="stop-color:#e77844"/></linearGradient><linearGradient id="id73" x1="145.988" x2="145.325" y1="187.263" y2="177.397" gradientUnits="userSpaceOnUse" xlink:href="#id72"/><linearGradient id="id72" x1="18.158" x2="18.822" y1="187.263" y2="177.397" gradientUnits="userSpaceOnUse"><stop id="stop4786" offset="0" style="stop-color:#da251d"/><stop id="stop4788" offset="1" style="stop-color:#e77817"/></linearGradient><linearGradient id="id71" x1="24.889" x2="32.694" y1="174.086" y2="174.597" gradientUnits="userSpaceOnUse" xlink:href="#id68"/><linearGradient id="id70" x1="74.817" x2="70.572" y1="58.95" y2="67.241" gradientUnits="userSpaceOnUse" xlink:href="#id58"/><linearGradient id="id69" x1="95.497" x2="73.099" y1="37.384" y2="81.135" gradientUnits="userSpaceOnUse" xlink:href="#id58"/><linearGradient id="id68" x1="131.452" x2="139.257" y1="174.086" y2="174.597" gradientUnits="userSpaceOnUse"><stop id="stop4778" offset="0" style="stop-color:#fbd5e5"/><stop id="stop4780" offset="1" style="stop-color:#fef6f9"/></linearGradient><linearGradient id="id67" x1="75.031" x2="65.951" y1="71.836" y2="87.653" gradientUnits="userSpaceOnUse"><stop id="stop4773" offset="0" style="stop-color:#dededd"/><stop id="stop4775" offset="1" style="stop-color:white"/></linearGradient><linearGradient id="id66" x1="19.824" x2="18.518" y1="168.533" y2="156.761" gradientUnits="userSpaceOnUse" xlink:href="#id65"/><linearGradient id="id65" x1="145.628" x2="144.322" y1="168.533" y2="156.761" gradientUnits="userSpaceOnUse"><stop id="stop4765" offset="0" style="stop-color:#facee0"/><stop id="stop4767" offset=".161" style="stop-color:#fce3ed"/><stop id="stop4769" offset="1" style="stop-color:#fff9fb"/></linearGradient><linearGradient id="id64" x1="16.337" x2="6.893" y1="188.533" y2="186.13" gradientUnits="userSpaceOnUse" xlink:href="#id61"/><linearGradient id="id63" x1="141.674" x2="143.772" y1="169.799" y2="161.489" gradientUnits="userSpaceOnUse" xlink:href="#id62"/><linearGradient id="id62" x1="20.375" x2="22.473" y1="169.799" y2="161.489" gradientUnits="userSpaceOnUse"><stop id="stop4758" offset="0" style="stop-color:#f19abe"/><stop id="stop4760" offset="1" style="stop-color:#fef0f6"/></linearGradient><linearGradient id="id61" x1="147.81" x2="157.253" y1="188.533" y2="186.13" gradientUnits="userSpaceOnUse"><stop id="stop4753" offset="0" style="stop-color:#dd137b"/><stop id="stop4755" offset="1" style="stop-color:#e77817"/></linearGradient><linearGradient id="id60" x1="150.563" x2="167.883" y1="189.569" y2="191.574" gradientUnits="userSpaceOnUse" xlink:href="#id59"/><linearGradient id="id59" x1="13.584" x2="-3.737" y1="189.569" y2="191.574" gradientUnits="userSpaceOnUse"><stop id="stop4745" offset="0" style="stop-color:#e77817"/><stop id="stop4747" offset=".439" style="stop-color:#ef9d0c"/><stop id="stop4749" offset="1" style="stop-color:#f8c300"/></linearGradient><linearGradient id="id58" x1="69.374" x2="84.229" y1="58.971" y2="48.638" gradientUnits="userSpaceOnUse"><stop id="stop4740" offset="0" style="stop-color:#aaa9a9"/><stop id="stop4742" offset="1" style="stop-color:#dededd"/></linearGradient><linearGradient id="id57" x1="82.955" x2="62.099" y1="44.554" y2="37.645" gradientUnits="userSpaceOnUse"><stop id="stop4735" offset="0" style="stop-color:#c2c1c1"/><stop id="stop4737" offset="1" style="stop-color:#dededd"/></linearGradient><linearGradient id="id56" x1="92.883" x2="110.933" y1="72.62" y2="73.114" gradientUnits="userSpaceOnUse"><stop id="stop4730" offset="0" style="stop-color:#605d5c"/><stop id="stop4732" offset="1" style="stop-color:#969594"/></linearGradient><linearGradient id="id55" x1="8.814" x2="18.207" y1="178.453" y2="189.373" gradientUnits="userSpaceOnUse" xlink:href="#id54"/><linearGradient id="id54" x1="155.333" x2="145.94" y1="178.453" y2="189.373" gradientUnits="userSpaceOnUse"><stop id="stop4724" offset="0" style="stop-color:#e66776"/><stop id="stop4726" offset="1" style="stop-color:#b76767"/></linearGradient><linearGradient id="id53" x1="85.96" x2="59.01" y1="45.393" y2="36.593" gradientUnits="userSpaceOnUse"><stop id="stop4719" offset="0" style="stop-color:#c2c1c1"/><stop id="stop4721" offset="1" style="stop-color:white"/></linearGradient><linearGradient id="id52" x1="86.048" x2="60.215" y1="48.707" y2="58.829" gradientUnits="userSpaceOnUse"><stop id="stop4714" offset="0" style="stop-color:#c2c1c1"/><stop id="stop4716" offset="1" style="stop-color:#aaa9a9"/></linearGradient><mask id="id50"><linearGradient id="id51" x1="141.278" x2="135.566" y1="148.324" y2="135.455" gradientUnits="userSpaceOnUse"><stop id="stop4707" offset="0" style="stop-opacity:1;stop-color:white"/><stop id="stop4709" offset="1" style="stop-opacity:0;stop-color:white"/></linearGradient><rect id="rect4711" width="10.249" height="15.826" x="133.298" y="133.977" style="fill:url(#id51)"/></mask><mask id="id48"><linearGradient id="id49" x1="143.9" x2="136.714" y1="170.14" y2="153.948" gradientUnits="userSpaceOnUse"><stop id="stop4699" offset="0" style="stop-opacity:1;stop-color:white"/><stop id="stop4701" offset="1" style="stop-opacity:0;stop-color:white"/></linearGradient><rect id="rect4703" width="12.876" height="19.893" x="133.869" y="152.098" style="fill:url(#id49)"/></mask><mask id="id46"><linearGradient id="id47" x1="146.857" x2="146.243" y1="125.986" y2="132.523" gradientUnits="userSpaceOnUse"><stop id="stop4691" offset="0" style="stop-opacity:1;stop-color:white"/><stop id="stop4693" offset="1" style="stop-opacity:0;stop-color:white"/></linearGradient><rect id="rect4695" width="9.744" height="6.036" x="141.678" y="126.236" style="fill:url(#id47)"/></mask><mask id="id44"><linearGradient id="id45" x1="154.667" x2="150.576" y1="141.554" y2="151.05" gradientUnits="userSpaceOnUse"><stop id="stop4683" offset="0" style="stop-opacity:1;stop-color:white"/><stop id="stop4685" offset="1" style="stop-opacity:0;stop-color:white"/></linearGradient><rect id="rect4687" width="10.734" height="8.572" x="147.254" y="142.016" style="fill:url(#id45)"/></mask><mask id="id42"><linearGradient id="id43" x1="131.84" x2="127.242" y1="211.557" y2="200.045" gradientUnits="userSpaceOnUse"><stop id="stop4675" offset="0" style="stop-opacity:1;stop-color:white"/><stop id="stop4677" offset="1" style="stop-opacity:0;stop-color:white"/></linearGradient><rect id="rect4679" width="6.933" height="14.447" x="126.074" y="198.578" style="fill:url(#id43)"/></mask><mask id="id40"><linearGradient id="id41" x1="132.737" x2="120.437" y1="216.402" y2="212.174" gradientUnits="userSpaceOnUse"><stop id="stop4667" offset="0" style="stop-opacity:1;stop-color:white"/><stop id="stop4669" offset="1" style="stop-opacity:0;stop-color:white"/></linearGradient><rect id="rect4671" width="14.54" height="6.789" x="119.317" y="210.894" style="fill:url(#id41)"/></mask><mask id="id38"><linearGradient id="id39" x1="132.758" x2="135.545" y1="214.093" y2="201.623" gradientUnits="userSpaceOnUse"><stop id="stop4659" offset="0" style="stop-opacity:1;stop-color:white"/><stop id="stop4661" offset="1" style="stop-opacity:0;stop-color:white"/></linearGradient><rect id="rect4663" width="6.408" height="15.024" x="130.947" y="200.346" style="fill:url(#id39)"/></mask><mask id="id36"><linearGradient id="id37" x1="137.82" x2="137.295" y1="201.971" y2="181.252" gradientUnits="userSpaceOnUse"><stop id="stop4651" offset="0" style="stop-opacity:1;stop-color:white"/><stop id="stop4653" offset="1" style="stop-opacity:0;stop-color:white"/></linearGradient><rect id="rect4655" width="13.901" height="25.008" x="130.607" y="179.108" style="fill:url(#id37)"/></mask><mask id="id34"><linearGradient id="id35" x1="129.251" x2="147.419" y1="209.033" y2="200.352" gradientUnits="userSpaceOnUse"><stop id="stop4643" offset="0" style="stop-opacity:1;stop-color:white"/><stop id="stop4645" offset="1" style="stop-opacity:0;stop-color:white"/></linearGradient><rect id="rect4647" width="22.411" height="14.78" x="127.13" y="197.302" style="fill:url(#id35)"/></mask><mask id="id32"><linearGradient id="id33" x1="144.255" x2="156.29" y1="193.101" y2="178.256" gradientUnits="userSpaceOnUse"><stop id="stop4635" offset="0" style="stop-opacity:1;stop-color:white"/><stop id="stop4637" offset="1" style="stop-opacity:0;stop-color:white"/></linearGradient><rect id="rect4639" width="16.607" height="19.915" x="141.969" y="175.721" style="fill:url(#id33)"/></mask><mask id="id30"><linearGradient id="id31" x1="144.679" x2="138.836" y1="181.947" y2="161.844" gradientUnits="userSpaceOnUse"><stop id="stop4627" offset="0" style="stop-opacity:1;stop-color:white"/><stop id="stop4629" offset="1" style="stop-opacity:0;stop-color:white"/></linearGradient><rect id="rect4631" width="14.251" height="23.903" x="134.632" y="159.944" style="fill:url(#id31)"/></mask><mask id="id28"><linearGradient id="id29" x1="144.275" x2="147.835" y1="162.834" y2="146.424" gradientUnits="userSpaceOnUse"><stop id="stop4619" offset="0" style="stop-opacity:1;stop-color:white"/><stop id="stop4621" offset="1" style="stop-opacity:0;stop-color:white"/></linearGradient><rect id="rect4623" width="11.243" height="20.259" x="140.434" y="144.499" style="fill:url(#id29)"/></mask><mask id="id26"><linearGradient id="id27" x1="145.403" x2="155.895" y1="168.426" y2="158.973" gradientUnits="userSpaceOnUse"><stop id="stop4611" offset="0" style="stop-opacity:1;stop-color:white"/><stop id="stop4613" offset="1" style="stop-opacity:0;stop-color:white"/></linearGradient><rect id="rect4615" width="13.609" height="12.812" x="143.844" y="157.293" style="fill:url(#id27)"/></mask><mask id="id24"><linearGradient id="id25" x1="22.869" x2="28.58" y1="148.324" y2="135.455" gradientUnits="userSpaceOnUse"><stop id="stop4603" offset="0" style="stop-opacity:1;stop-color:white"/><stop id="stop4605" offset="1" style="stop-opacity:0;stop-color:white"/></linearGradient><rect id="rect4607" width="10.249" height="15.826" x="20.6" y="133.977" style="fill:url(#id25)"/></mask><mask id="id22"><linearGradient id="id23" x1="20.247" x2="27.433" y1="170.14" y2="153.948" gradientUnits="userSpaceOnUse"><stop id="stop4595" offset="0" style="stop-opacity:1;stop-color:white"/><stop id="stop4597" offset="1" style="stop-opacity:0;stop-color:white"/></linearGradient><rect id="rect4599" width="12.876" height="19.893" x="17.401" y="152.098" style="fill:url(#id23)"/></mask><mask id="id20"><linearGradient id="id21" x1="17.29" x2="17.903" y1="125.986" y2="132.523" gradientUnits="userSpaceOnUse"><stop id="stop4587" offset="0" style="stop-opacity:1;stop-color:white"/><stop id="stop4589" offset="1" style="stop-opacity:0;stop-color:white"/></linearGradient><rect id="rect4591" width="9.744" height="6.036" x="12.724" y="126.236" style="fill:url(#id21)"/></mask><mask id="id18"><linearGradient id="id19" x1="9.48" x2="13.57" y1="141.554" y2="151.05" gradientUnits="userSpaceOnUse"><stop id="stop4579" offset="0" style="stop-opacity:1;stop-color:white"/><stop id="stop4581" offset="1" style="stop-opacity:0;stop-color:white"/></linearGradient><rect id="rect4583" width="10.734" height="8.572" x="6.158" y="142.016" style="fill:url(#id19)"/></mask><mask id="id16"><linearGradient id="id17" x1="32.306" x2="36.905" y1="211.557" y2="200.045" gradientUnits="userSpaceOnUse"><stop id="stop4571" offset="0" style="stop-opacity:1;stop-color:white"/><stop id="stop4573" offset="1" style="stop-opacity:0;stop-color:white"/></linearGradient><rect id="rect4575" width="6.933" height="14.447" x="31.139" y="198.578" style="fill:url(#id17)"/></mask><mask id="id14"><linearGradient id="id15" x1="31.409" x2="43.71" y1="216.402" y2="212.174" gradientUnits="userSpaceOnUse"><stop id="stop4563" offset="0" style="stop-opacity:1;stop-color:white"/><stop id="stop4565" offset="1" style="stop-opacity:0;stop-color:white"/></linearGradient><rect id="rect4567" width="14.54" height="6.789" x="30.29" y="210.894" style="fill:url(#id15)"/></mask><mask id="id12"><linearGradient id="id13" x1="31.388" x2="28.602" y1="214.093" y2="201.623" gradientUnits="userSpaceOnUse"><stop id="stop4555" offset="0" style="stop-opacity:1;stop-color:white"/><stop id="stop4557" offset="1" style="stop-opacity:0;stop-color:white"/></linearGradient><rect id="rect4559" width="6.408" height="15.024" x="26.791" y="200.346" style="fill:url(#id13)"/></mask><mask id="id10"><linearGradient id="id11" x1="26.326" x2="26.852" y1="201.971" y2="181.252" gradientUnits="userSpaceOnUse"><stop id="stop4547" offset="0" style="stop-opacity:1;stop-color:white"/><stop id="stop4549" offset="1" style="stop-opacity:0;stop-color:white"/></linearGradient><rect id="rect4551" width="13.901" height="25.008" x="19.639" y="179.108" style="fill:url(#id11)"/></mask><mask id="id8"><linearGradient id="id9" x1="34.896" x2="16.727" y1="209.033" y2="200.352" gradientUnits="userSpaceOnUse"><stop id="stop4539" offset="0" style="stop-opacity:1;stop-color:white"/><stop id="stop4541" offset="1" style="stop-opacity:0;stop-color:white"/></linearGradient><rect id="rect4543" width="22.411" height="14.78" x="14.606" y="197.302" style="fill:url(#id9)"/></mask><mask id="id6"><linearGradient id="id7" x1="19.891" x2="7.857" y1="193.101" y2="178.256" gradientUnits="userSpaceOnUse"><stop id="stop4531" offset="0" style="stop-opacity:1;stop-color:white"/><stop id="stop4533" offset="1" style="stop-opacity:0;stop-color:white"/></linearGradient><rect id="rect4535" width="16.607" height="19.915" x="5.57" y="175.721" style="fill:url(#id7)"/></mask><mask id="id4"><linearGradient id="id5" x1="19.468" x2="25.31" y1="181.947" y2="161.844" gradientUnits="userSpaceOnUse"><stop id="stop4523" offset="0" style="stop-opacity:1;stop-color:white"/><stop id="stop4525" offset="1" style="stop-opacity:0;stop-color:white"/></linearGradient><rect id="rect4527" width="14.251" height="23.903" x="15.264" y="159.944" style="fill:url(#id5)"/></mask><mask id="id2"><linearGradient id="id3" x1="19.871" x2="16.312" y1="162.834" y2="146.424" gradientUnits="userSpaceOnUse"><stop id="stop4515" offset="0" style="stop-opacity:1;stop-color:white"/><stop id="stop4517" offset="1" style="stop-opacity:0;stop-color:white"/></linearGradient><rect id="rect4519" width="11.243" height="20.259" x="12.47" y="144.499" style="fill:url(#id3)"/></mask><mask id="id0"><linearGradient id="id1" x1="18.744" x2="8.251" y1="168.426" y2="158.973" gradientUnits="userSpaceOnUse"><stop id="stop4507" offset="0" style="stop-opacity:1;stop-color:white"/><stop id="stop4509" offset="1" style="stop-opacity:0;stop-color:white"/></linearGradient><rect id="rect4511" width="13.609" height="12.812" x="6.693" y="157.293" style="fill:url(#id1)"/></mask><style id="style4503" type="text/css"/><linearGradient id="linearGradient6971" x1="20.375" x2="22.473" y1="169.799" y2="161.489" gradientUnits="userSpaceOnUse" xlink:href="#id62"/><radialGradient id="radialGradient6973" cx="20.995" cy="172.478" r="8.721" fx="20.995" fy="172.478" gradientUnits="userSpaceOnUse" xlink:href="#id93"/><linearGradient id="linearGradient6975" x1="12.809" x2="17.618" y1="201.648" y2="189.493" gradientUnits="userSpaceOnUse" xlink:href="#id74"/><radialGradient id="radialGradient6977" cx="21.498" cy="174.971" r="6.92" fx="21.498" fy="174.971" gradientUnits="userSpaceOnUse" xlink:href="#id88"/><linearGradient id="linearGradient6979" x1="13.584" x2="-3.737" y1="189.569" y2="191.574" gradientUnits="userSpaceOnUse" xlink:href="#id59"/><linearGradient id="linearGradient6981" x1="18.158" x2="18.822" y1="187.263" y2="177.397" gradientUnits="userSpaceOnUse" xlink:href="#id72"/><linearGradient id="linearGradient6983" x1="26.996" x2="24.631" y1="211.007" y2="216.2" gradientUnits="userSpaceOnUse" xlink:href="#id86"/><linearGradient id="linearGradient6985" x1="26.473" x2="27.635" y1="210.147" y2="199.177" gradientUnits="userSpaceOnUse" xlink:href="#id76"/><radialGradient id="radialGradient6987" cx="151.341" cy="146.635" r="5.759" fx="151.341" fy="146.635" gradientUnits="userSpaceOnUse" xlink:href="#id97"/><linearGradient id="linearGradient6989" x1="144.947" x2="152.698" y1="166.671" y2="172.766" gradientUnits="userSpaceOnUse" xlink:href="#id83"/><radialGradient id="radialGradient6991" cx="140.007" cy="175.725" r="17.724" fx="140.007" fy="175.725" gradientUnits="userSpaceOnUse" xlink:href="#id91"/><linearGradient id="linearGradient6993" x1="145.628" x2="144.322" y1="168.533" y2="156.761" gradientUnits="userSpaceOnUse" xlink:href="#id65"/><linearGradient id="linearGradient6995" x1="131.452" x2="139.257" y1="174.086" y2="174.597" gradientUnits="userSpaceOnUse" xlink:href="#id68"/><linearGradient id="linearGradient6997" x1="147.81" x2="157.253" y1="188.533" y2="186.13" gradientUnits="userSpaceOnUse" xlink:href="#id61"/><linearGradient id="linearGradient6999" x1="155.333" x2="145.94" y1="178.453" y2="189.373" gradientUnits="userSpaceOnUse" xlink:href="#id54"/><linearGradient id="linearGradient7001" x1="84.882" x2="85.336" y1="227.743" y2="214.442" gradientUnits="userSpaceOnUse" xlink:href="#id81"/><linearGradient id="linearGradient7003" x1="80.001" x2="80.266" y1="220.329" y2="212.549" gradientUnits="userSpaceOnUse" xlink:href="#id81"/><linearGradient id="linearGradient7005" x1="84.882" x2="85.336" y1="227.743" y2="214.442" gradientUnits="userSpaceOnUse" xlink:href="#id81"/><linearGradient id="linearGradient7007" x1="69.374" x2="84.229" y1="58.971" y2="48.638" gradientUnits="userSpaceOnUse" xlink:href="#id58"/><linearGradient id="linearGradient7009" x1="86.048" x2="60.215" y1="48.707" y2="58.829" gradientUnits="userSpaceOnUse" xlink:href="#id52"/><clipPath id="clipPath46" clipPathUnits="userSpaceOnUse"><path id="path44" d="M 0,0 V 626.40002 H 810.56 V 0 Z" clip-rule="evenodd"/></clipPath><clipPath id="clipPath78" clipPathUnits="userSpaceOnUse"><path id="path76" d="M 0,0 V 626.40002 H 810.56 V 0 Z" clip-rule="evenodd"/></clipPath><clipPath id="clipPath98" clipPathUnits="userSpaceOnUse"><path id="path96" d="M 0,0 V 626.40002 H 810.56 V 0 Z" clip-rule="evenodd"/></clipPath><clipPath id="clipPath222" clipPathUnits="userSpaceOnUse"><path id="path220" d="M 0,0 V 626.40002 H 810.56 V 0 Z" clip-rule="evenodd"/></clipPath><clipPath id="clipPath758" clipPathUnits="userSpaceOnUse"><path id="path756" d="M 0,0 V 626.40002 H 810.56 V 0 Z" clip-rule="evenodd"/></clipPath><clipPath id="clipPath906" clipPathUnits="userSpaceOnUse"><path id="path904" d="M 0,0 V 626.40002 H 810.56 V 0 Z" clip-rule="evenodd"/></clipPath><clipPath id="clipPath922" clipPathUnits="userSpaceOnUse"><path id="path920" d="m 0,529.59998 h 596.96002 v 1.11999 H 0 Z" clip-rule="evenodd"/></clipPath><clipPath id="clipPath936" clipPathUnits="userSpaceOnUse"><path id="path934" d="M 0,528.64001 H 578.88 V 536 H 0 Z" clip-rule="evenodd"/></clipPath><clipPath id="clipPath946" clipPathUnits="userSpaceOnUse"><path id="path944" d="M 606.71997,528.64001 H 810.56 V 536 H 606.71997 Z" clip-rule="evenodd"/></clipPath><mask id="mask-powermask-path-effect1021" maskUnits="userSpaceOnUse"><path id="path1019" d="m 323.71999,129.44 h 83 v 87 h -83 z"/></mask></defs><path style="fill:#fff;fill-rule:evenodd;stroke:none;stroke-width:1px;stroke-linecap:butt;stroke-linejoin:miter;stroke-opacity:1" id="path2161" d="M 350,0 L 350,200 L 0,200 L 0,0 L 350,0 z"/><g id="g18" transform="matrix(1.7827781,0,0,1.7827781,-193.07911,-496.29315)"><g id="g156" transform="translate(206.4635,376.01006)"><path style="fill:#2c2e35;fill-opacity:1;fill-rule:evenodd;stroke:none" id="path158" d="m 0,0 c -1.12,-2.08 -2.72,-4.32 -4.8,-5.28 -7.52,-3.52 -19.52,-3.84 -25.44,-10.56 -4.800001,-5.440001 -5.28,-11.84 -5.28,-13.76 V -83.199997 H 35.52 V -29.6 c 0,1.92 -0.319999,8.319999 -5.12,13.76 C 24.48,-9.12 12.48,-8.8 4.8,-5.28 2.72,-4.32 1.28,-2.08 0,0 Z"/></g><g id="g160" transform="translate(206.4635,376.01006)"><path style="fill:none;stroke:#fff;stroke-width:1.6;stroke-linecap:butt;stroke-linejoin:miter;stroke-miterlimit:22;stroke-dasharray:none;stroke-opacity:1" id="path162" d="m 0,0 c -1.12,-2.08 -2.72,-4.32 -4.8,-5.28 -7.52,-3.52 -19.52,-3.84 -25.44,-10.56 -4.800001,-5.440001 -5.28,-11.84 -5.28,-13.76 V -83.199997 H 35.52 V -29.6 c 0,1.92 -0.319999,8.319999 -5.12,13.76 C 24.48,-9.12 12.48,-8.8 4.8,-5.28 2.72,-4.32 1.28,-2.08 0,0 Z"/></g><g id="g164" transform="translate(233.1835,301.77005)"><path style="fill:#fff;fill-opacity:1;fill-rule:evenodd;stroke:none" id="path166" d="m 0,0 c 0,0 0,35.040001 0,43.52 0,8.48 -9.12,16.16 -26.719999,16.16 -17.600001,0 -26.72,-7.84 -26.72,-16.16 V 0 Z"/></g><g id="g168" transform="translate(11.903496,159.37006)"><path style="fill:none;stroke:#fff;stroke-width:.96;stroke-linecap:butt;stroke-linejoin:miter;stroke-miterlimit:22;stroke-dasharray:none;stroke-opacity:1" id="path170" d="m 190.39999,138.08 c 3.68001,-1.28 8.32001,-2.24 8.32001,0 0.16,2.88001 -5.60001,1.12 -8.32001,0 z"/></g><g id="g172" transform="translate(11.903496,159.37006)"><path style="fill:none;stroke:#fff;stroke-width:.96;stroke-linecap:butt;stroke-linejoin:miter;stroke-miterlimit:22;stroke-dasharray:none;stroke-opacity:1" id="path174" d="m 163.84,153.11999 c 1.44,3.68001 2.4,8.32001 0,8.32001 -2.72001,0.16001 -0.96,-5.76001 0,-8.32001 z"/></g><g id="g176" transform="translate(11.903496,159.37006)"><path style="fill:none;stroke:#fff;stroke-width:.96;stroke-linecap:butt;stroke-linejoin:miter;stroke-miterlimit:22;stroke-dasharray:none;stroke-opacity:1" id="path178" d="m 209.44,138.08 c 3.67999,-1.28 8.31999,-2.24 8.31999,0 0,2.88001 -5.75999,1.12 -8.31999,0 z"/></g><g id="g180" transform="translate(11.903496,159.37006)"><path style="fill:none;stroke:#fff;stroke-width:.96;stroke-linecap:butt;stroke-linejoin:miter;stroke-miterlimit:22;stroke-dasharray:none;stroke-opacity:1" id="path182" d="m 198.72,206.08 c -3.68001,-1.44 -8.32001,-2.24 -8.32001,0 0,2.88001 5.76001,1.12 8.32001,0 z"/></g><g id="g184" transform="translate(11.903496,159.37006)"><path style="fill:none;stroke:#fff;stroke-width:.96;stroke-linecap:butt;stroke-linejoin:miter;stroke-miterlimit:22;stroke-dasharray:none;stroke-opacity:1" id="path186" d="m 171.52,138.08 c 3.68,-1.28 8.32,-2.24 8.32,0 0.16,2.88001 -5.76,1.12 -8.32,0 z"/></g><g id="g188" transform="translate(11.903496,159.37006)"><path style="fill:none;stroke:#fff;stroke-width:.96;stroke-linecap:butt;stroke-linejoin:miter;stroke-miterlimit:22;stroke-dasharray:none;stroke-opacity:1" id="path190" d="m 163.84,176.32001 c 1.44,3.67999 2.4,8.31999 0,8.31999 -2.72001,0.16 -0.96,-5.60001 0,-8.31999 z"/></g><g id="g192" transform="translate(11.903496,159.37006)"><path style="fill:none;stroke:#fff;stroke-width:.96;stroke-linecap:butt;stroke-linejoin:miter;stroke-miterlimit:22;stroke-dasharray:none;stroke-opacity:1" id="path194" d="m 168.64,199.2 c 4,0.16 8.47999,1.12001 7.52,3.36 -0.96,2.55999 -5.6,-1.44001 -7.52,-3.36 z"/></g><g id="g196" transform="translate(11.903496,159.37006)"><path style="fill:none;stroke:#fff;stroke-width:.96;stroke-linecap:butt;stroke-linejoin:miter;stroke-miterlimit:22;stroke-dasharray:none;stroke-opacity:1" id="path198" d="m 220.64,199.2 c -4,0.16 -8.64,1.28 -7.67999,3.36 0.95999,2.72 5.59999,-1.28 7.67999,-3.36 z"/></g><g id="g200" transform="translate(11.903496,159.37006)"><path style="fill:none;stroke:#fff;stroke-width:.96;stroke-linecap:butt;stroke-linejoin:miter;stroke-miterlimit:22;stroke-dasharray:none;stroke-opacity:1" id="path202" d="m 225.44,153.11999 c 1.28,3.68001 2.23999,8.32001 0,8.32001 -2.88,0.16001 -1.11999,-5.76001 0,-8.32001 z"/></g><g id="g204" transform="translate(11.903496,159.37006)"><path style="fill:none;stroke:#fff;stroke-width:.96;stroke-linecap:butt;stroke-linejoin:miter;stroke-miterlimit:22;stroke-dasharray:none;stroke-opacity:1" id="path206" d="m 225.44,176.32001 c 1.28,3.67999 2.23999,8.31999 0,8.31999 -2.88,0.16 -1.11999,-5.60001 0,-8.31999 z"/></g><g id="g208" transform="translate(11.903496,159.37006)"><path style="fill:none;stroke:#2c2e35;stroke-width:.96;stroke-linecap:butt;stroke-linejoin:miter;stroke-miterlimit:22;stroke-dasharray:none;stroke-opacity:1" id="path210" d="m 209.60001,168.48 c 0.63999,-0.64 1.11999,-0.15999 2.55999,0.8 -0.8,2.24 2.23999,2.39999 2.08,3.36 -0.16,0.96001 -0.16,0.8 -1.6,0.47999 -0.64,0 -1.28,1.92 -0.31999,2.24001 0.95999,0.31999 4.15999,0.96001 4.31999,0.48 0.16,-0.64 1.75999,-4.48 0.8,-4.96 -2.88,-1.91999 -3.68001,-0.96 -0.32001,-3.36 0.80001,-0.8 0.16001,-1.91999 0,-2.40001 -0.47999,-1.59999 1.28,-3.51998 -0.95999,-3.51998 -3.19999,0 0.64,4.79998 -1.6,5.59999 -2.08,0.64 -0.32,-3.2 -3.36,-4 6.40001,-4.32 1.91999,-6.4 2.72,-9.76 -0.64,0 -3.2,1.92 -5.76,2.4 v 1.91999 c 0,0 1.59999,0.16001 1.59999,1.12001 0,0.64 -1.27999,0.64 -1.27999,0.64 h -2.24 c -0.63999,0 -0.48001,1.12 -1.91999,0.80001 C 203.03999,160 203.67999,159.2 203.2,158.72 c -0.64,-0.64 -1.92,-0.32001 -1.92,0.16 0,0.64 -0.31999,2.23999 0.64,2.56 0.96,0.31999 3.36,0.64 3.19999,1.44 -0.15998,0.96 -0.15998,1.44001 -2.23999,1.92 -0.8,-0.64 -1.27999,-0.16 -1.27999,-0.16 0,0 -1.28,0.64 -0.64,1.44 0.64,0.8 1.27999,1.92 2.55999,1.28 1.12,-0.64 3.04,-1.75999 3.51999,-1.28 0.96001,0.8 0,1.12 -0.79999,1.92 -0.8,0.8 -1.6,2.39999 0.48,3.36 2.08,0.96001 1.12,2.39999 -0.64,2.08 -1.44,-0.32001 -1.44,0.48 -1.44,0.8 0,0.32 -0.16,0.96 0.96001,1.12 1.27999,0.31999 4,0.96001 4,0.96001 L 210.56,171.52 c -1.92,-1.28 -2.72,-1.12001 -0.95999,-3.04 z M 221.28,176.32001 H 204.8 V 180.48 c 1.59999,0.16 1.76,1.27999 1.76,2.4 v 6.56 H 212 v -6.08 c 0,0 0,-2.72 2.88,-2.72 3.2,0 3.04,2.72 3.04,2.72 v 6.08 h 3.04001 M 167.84,176.32001 h 16.48001 V 180.48 c -1.60001,0.16 -1.60001,1.27999 -1.60001,2.4 v 6.56 h -5.60001 v -6.08 c 0,0 0,-2.72 -2.87999,-2.72 -3.04,0 -3.04,2.72 -3.04,2.72 v 6.08 h -2.87999 M 179.52,168.48 c -0.64,-0.64 -0.96,-0.15999 -2.40001,0.8 0.64,2.24 -2.39999,2.39999 -2.23999,3.36 0.32,0.96001 0.32,0.8 1.6,0.47999 0.8,0 1.44,1.92 0.48001,2.24001 -0.96001,0.31999 -4.32001,0.96001 -4.48001,0.48 -0.15999,-0.64 -1.6,-4.48 -0.80001,-4.96 3.04001,-1.91999 3.84001,-0.96 0.32001,-3.36 -0.64,-0.8 -0.16,-1.91999 0,-2.40001 0.64,-1.59999 -1.12,-3.51998 0.96001,-3.51998 3.19999,0 -0.48001,4.79998 1.59999,5.59999 2.08,0.64 0.32,-3.2 3.52,-4 -6.56,-4.32 -1.92,-6.4 -2.72,-9.76 0.48,0 3.2,1.92 5.60001,2.4 v 1.91999 c 0,0 -1.44001,0.16001 -1.44001,1.12001 0,0.64 1.12,0.64 1.12,0.64 h 2.39999 c 0.48001,0 0.32001,1.12 1.76001,0.80001 1.44,-0.32001 0.80001,-1.12001 1.28,-1.60001 0.48,-0.64 1.76,-0.32001 1.92,0.16 0,0.64 0.16,2.23999 -0.8,2.56 -0.96,0.31999 -3.2,0.64 -3.04,1.44 0,0.96 0.16001,1.44001 2.08,1.92 1.12,-0.8 1.43999,-0.16 1.43999,-0.16 0,0 1.12001,0.8 0.48001,1.44 -0.48001,0.8 -1.28,1.92 -2.40001,1.28 -1.27999,-0.64 -3.03999,-1.92 -3.67999,-1.28 -0.96001,0.64 0,1.12 0.8,1.92 0.79999,0.8 1.76,2.39999 -0.48001,3.36 -1.91999,0.96001 -0.95999,2.39999 0.80001,2.08 1.44,-0.32001 1.28,0.48 1.44,0.8 0,0.32 0,0.96 -1.12,1.12 -1.12001,0.31999 -3.84001,0.96001 -3.84001,0.96001 L 178.72,171.52 c 1.92,-1.28 2.72,-1.12001 0.8,-3.04 z m 8.48,33.12001 2.24,-12 h -1.12001 v -7.20002 c 0,-1.28 -0.95999,-1.91999 -1.91999,-1.91999 v -4.15999 h 1.6 V 154.08 l -1.44,-1.92 v -4.96 h 2.72 v 2.24 h 2.88001 V 147.2 H 196.16 v 2.24 h 3.04 v -2.24 h 2.72 v 4.96 l -1.76,1.92 v 22.24001 h 1.76 V 180.48 c -1.28,0.16 -1.76,0.8 -1.76,1.91999 v 7.20002 h -1.44 l 2.08,12.15998 M 190.24,189.60001 192,180.64 h 5.28 l 1.44,8.96001 m -6.88,-13.28 V 169.28 c 0,-2.08 1.44,-3.2 2.72,-3.2 1.28,0 3.04001,1.12 3.04001,3.2 v 7.04001 m -8.80001,0 h 11.36"/></g></g></svg>