<svg xmlns="http://www.w3.org/2000/svg" xmlns:svg="http://www.w3.org/2000/svg" id="svg2" width="420" height="500" x="0" y="0" enable-background="new 30.5 31.5 412 533" version="1.1" viewBox="30.5 31.5 420 500" xml:space="preserve"><metadata id="metadata4"/><path id="path4524" d="M 45.33399,33.113805 C 45.55112,134.98767 45.47857,244.18064 78.93,329.29 c 28.05,75.48 82.81953,143.03031 161.57,201.59 78.75047,-58.55969 133.52,-126.11 161.57,-201.59 33.45143,-85.10936 33.37888,-194.30233 33.59601,-296.176195 -128.80646,-0.75995 -273.96918,-0.0281 -390.33202,0 z" style="fill:#0085ca;fill-opacity:1;fill-rule:evenodd;stroke:#000;stroke-width:1;stroke-miterlimit:4;stroke-dasharray:none;stroke-opacity:1"/><path id="path4216" d="m 249.79496,449.37109 6.53624,-57.97328 50.37947,0 -23.7945,-130.35218 104.48873,19.65625 0,-114.83411 -104.48873,19.65632 23.7945,-120.006821 -132.42134,0 23.7945,120.006821 -104.48873,-19.65632 0,114.83411 104.48873,-19.65625 -23.7945,130.35218 50.37947,0 6.53624,57.97328 c 1.75191,15.53902 4.12227,34.42118 9.29496,34.42118 5.17269,0 7.54305,-18.88216 9.29496,-34.42118 z" style="fill:#fff;fill-opacity:1;fill-rule:evenodd;stroke:#000;stroke-width:1.03454185px;stroke-linecap:butt;stroke-linejoin:miter;stroke-opacity:1"/></svg>