<svg xmlns="http://www.w3.org/2000/svg" xmlns:cc="http://web.resource.org/cc/" xmlns:svg="http://www.w3.org/2000/svg" xmlns:xlink="http://www.w3.org/1999/xlink" id="svg4166" width="251" height="304.2" version="1.0"><metadata id="metadata1880"/><path style="fill:#ffcd50;stroke:none" id="Shield" d="M 249.55058,1.4395041 L 1.4495291,1.4395041 L 1.4495291,174.9361 C 1.0659091,221.79654 21.138269,253.75148 46.77667,273.99131 C 72.415072,294.23113 103.61951,302.75585 125.50006,302.75585 C 146.99699,302.75585 178.20142,294.23113 203.93572,273.99131 C 229.67003,253.75148 249.93419,221.79654 249.55058,174.9361 L 249.55058,1.4395041 z"/><path style="fill:#003d8f;stroke:none" id="Kluven-field-1" d="M 1.4375,1.4375 L 1.4375,174.9375 C 1.05388,221.79794 21.142849,253.76017 46.78125,274 C 46.78125,274 125.5,1.4375 125.5,1.4375 L 1.4375,1.4375 z"/><path style="fill:#d40000;stroke:none" id="Kluven-field-2" d="M 125.5,1.4375 L 203.9375,274 C 229.67182,253.76018 249.94611,221.79794 249.5625,174.9375 L 249.5625,1.4375 L 125.5,1.4375 z"/><g style="fill:#ffcd50" id="St-Erik" transform="matrix(0.723482,0,0,0.723482,121.1911,-5.590334)"><path id="Huvud" d="M -87.989075,71.702544 C -96.345482,71.704989 -105.80478,72.495993 -112.17964,74.07727 L -121.2986,76.325348 L -121.17195,87.470734 C -120.75357,120.06123 -119.93463,127.44693 -115.78923,136.01018 C -108.04875,148.39322 -91.637343,152.48361 -86.595901,150.3852 C -76.039476,145.99127 -70.194742,139.5962 -66.964822,130.91243 C -65.105449,127.52943 -65.02959,123.64829 -64.526764,119.89369 C -63.535571,105.20258 -63.618669,96.412814 -64.400115,80.124914 C -64.543189,78.049693 -65.340821,76.044157 -66.86983,75.248808 C -72.735907,72.19743 -80.830327,71.842029 -87.989075,71.702544 z"/><path id="Krona" d="M -90.96875,23.96875 C -94.634813,23.850523 -98.25044,30.027664 -96.09375,36.34375 C -94.701195,40.421997 -93.389557,39.100129 -94,34.6875 C -94.248294,32.892687 -94.159024,31.6 -93.6875,30.5 C -93.021814,28.947044 -92.804575,30.343874 -92.75,31.625 C -92.651882,33.928277 -92.106731,36.877838 -91.65625,37.15625 C -91.205767,37.434659 -91.191148,35.383453 -91.34375,33.625 C -91.49635,31.866549 -90.856246,30.812016 -90.5625,31.78125 C -89.71427,34.080993 -89.97646,33.88451 -89.6875,35.3125 C -89.28361,37.308449 -87.82236,39.568704 -87.1875,37.75 C -86.59144,36.042447 -85.86751,30.447089 -87.125,27.4375 C -88.11936,25.057671 -89.5342,24.015013 -90.96875,23.96875 z M -101.5,37.96875 C -103.09563,37.895484 -104.78292,38.307579 -105.875,39.1875 C -111.32669,43.580072 -105.30039,50.040304 -98.28125,47.3125 C -94.528906,45.854251 -94.847359,43.935406 -99.3125,45.53125 C -100.36256,45.906543 -101.91696,45.897561 -102.28125,44.875 C -102.83498,43.320656 -99.43088,43.740591 -97.78125,42.9375 C -96.964301,42.432599 -99.91539,41.319394 -101.25,40.75 C -102.47189,40.228698 -101.83088,39.832371 -99.71875,40.5625 C -95.963554,41.860614 -95.134918,41.763692 -97.59375,39.5625 C -98.52994,38.724401 -99.90437,38.042016 -101.5,37.96875 z M -90.59375,38.59375 C -92.128809,38.566121 -93.723824,39.250726 -94.8125,40.5625 C -95.709779,41.643654 -95.722545,42.602507 -94.84375,44.53125 C -93.203193,48.131877 -88.60933,47.539143 -87.21875,43.5625 C -86.40643,41.239517 -86.55288,40.495661 -88,39.4375 C -88.7561,38.884626 -89.67271,38.610328 -90.59375,38.59375 z M -79.5625,39.4375 C -85.92019,39.493874 -89.12848,41.118446 -80.6875,41.75 C -79.32085,41.852253 -77.61886,42.486603 -77.09375,43 C -76.50083,43.579695 -78.04525,43.741425 -80,43.5 C -87.07864,42.625743 -86.90975,43.226628 -81.4375,44.875 C -79.98213,45.313392 -78.96039,46.258298 -82.1875,45.375 C -86.40667,44.220164 -87.86279,43.690834 -84.25,46.40625 C -81.26531,48.649577 -76.09232,48.34903 -74.25,45.71875 C -71.82885,42.262077 -74.23057,39.4375 -79.5625,39.4375 z M -90.40625,39.59375 C -88.47438,39.591838 -87.07895,41.741417 -88.34375,43.75 C -89.50062,45.587169 -91.907534,46.373715 -93,45.28125 C -94.349276,43.93197 -93.690953,40.974068 -91.8125,39.96875 C -91.332479,39.71185 -90.852067,39.594191 -90.40625,39.59375 z M -90.4375,41 C -92.549579,40.92589 -93.49612,42.78513 -92.0625,44.21875 C -91.180904,45.100347 -90.496995,44.300514 -89.8125,43.28125 C -88.84787,41.751229 -89.08355,41.488266 -90.4375,41 z M -57.53125,45.59375 C -58.57436,45.539569 -59.34443,46.694687 -59.6875,47.4375 C -60.1103,48.352938 -60.3181,48.549392 -61.6875,48.09375 C -63.86137,47.370433 -65.40692,50.091771 -62.625,51.1875 C -61.26194,51.724377 -61.71323,53.966446 -64.84375,55.875 C -71.48496,59.923883 -83.95415,57.125452 -87.5625,50.78125 C -88.45059,49.219815 -89.75622,47.70572 -90.40625,47.53125 C -92.93961,46.851285 -93.628734,49.909983 -96.0625,52.34375 C -102.09328,58.374523 -110.86581,60.616117 -117.15625,57.75 C -119.7548,56.566023 -120.90456,56.785765 -121.09375,52.4375 C -121.12356,51.752148 -118.91213,51.955743 -119.375,50.0625 C -119.63228,49.010195 -120.20747,48.324356 -121.96875,49.1875 C -123.69539,50.033665 -122.92279,49.054539 -124.25,47.53125 C -125.49852,46.098273 -126.45517,46.598024 -127.25,47.21875 C -128.0791,47.866236 -127.90598,49.339966 -127.625,50.03125 C -127.2731,50.897043 -127.01261,51.061816 -129.125,51.875 C -130.33385,52.340357 -130.18249,53.580926 -129.75,54.125 C -128.45994,55.747906 -128.4467,54.59375 -126.90625,54.59375 C -123.56373,54.593749 -123.81834,59.130838 -127.1875,62.5 C -130.01597,65.328466 -139.21947,69.891477 -142.125,69.90625 C -144.85641,69.920139 -147.6875,67.013827 -147.6875,64.21875 C -147.6875,61.426158 -145.21674,57.338649 -143.03125,56.5 C -142.12364,56.151711 -142.55825,57.175166 -144.09375,59 C -145.51949,60.694416 -146.6875,62.942199 -146.6875,64 C -146.6875,65.884943 -146.66206,65.880801 -144.8125,64.03125 C -143.77455,62.993312 -142.18794,61.726157 -141.28125,61.21875 C -140.37457,60.711343 -139.52413,58.992153 -139.40625,57.375 C -139.20882,54.666403 -139.47464,54.405818 -142.84375,54.125 C -146.02258,53.860041 -146.86803,54.261795 -149.21875,57.34375 C -151.40667,60.212254 -152.37916,60.774331 -154.34375,60.28125 C -155.94854,59.878472 -157.45315,60.295114 -158.75,61.46875 C -160.67477,63.210649 -160.58936,63.300963 -155.4375,66.75 C -152.54848,68.684129 -147.3438,72.664507 -143.875,75.59375 C -140.40619,78.522991 -137.38564,80.9375 -137.15625,80.9375 C -136.92688,80.937497 -133.37814,79.596206 -129.28125,77.96875 C -104.78235,68.236745 -81.64431,67.728108 -55.25,76.375 L -44.28125,79.96875 L -41.75,76.6875 C -36.57523,70.004598 -31.07967,64.528366 -26.875,61.84375 C -22.84562,59.271054 -22.69003,59.002113 -24.5625,58 C -25.66819,57.408254 -27.36926,56.9375 -28.375,56.9375 C -29.38074,56.9375 -30.67583,55.944356 -31.21875,54.75 C -31.76167,53.555646 -33.39398,51.683277 -34.875,50.59375 C -37.42408,48.718487 -37.7042,48.695084 -40.125,50.28125 C -43.59626,52.555706 -43.33935,54.671051 -39.125,58.53125 C -36.40749,61.020394 -35.45466,61.447139 -35.03125,60.34375 C -34.72653,59.549658 -35.1956,57.777003 -36.09375,56.40625 C -36.9919,55.035497 -37.29332,53.9375 -36.75,53.9375 C -35.49508,53.9375 -33.6875,57.249558 -33.6875,59.5625 C -33.6875,61.527898 -39.45172,67.9375 -41.21875,67.9375 C -43.08479,67.937497 -56.44994,58.990242 -57.09375,57.3125 C -57.90168,55.207054 -57.8624,53.59375 -56.25,53.59375 C -54.97569,53.593749 -54.22697,54.608242 -53.5625,52.90625 C -52.93105,51.28885 -55.16588,50.518997 -55.65625,50.40625 C -56.13416,50.296368 -55.2174,48.9375 -55.5625,47.5625 C -55.98307,45.886833 -56.16745,46.027729 -57.0625,45.6875 C -57.22301,45.626487 -57.38223,45.60149 -57.53125,45.59375 z M -91.045275,50.286907 C -90.683324,50.283709 -89.6879,52.04543 -89.31373,52.381398 C -86.72124,54.709234 -88.20514,54.732956 -89.65625,53.836123 C -90.194887,53.503231 -91.657384,53.375786 -92.90625,54.03125 C -95.164987,55.216739 -95.173048,55.193222 -93.28125,53.0625 C -92.371498,52.037854 -91.648527,50.292237 -91.045275,50.286907 z"/><path style="fill:#003d8f" id="Ansikte" d="M -91.692308,132.10279 C -92.517308,131.72895 -93.324535,130.63558 -93.486145,129.67308 C -93.719994,128.28035 -93.056499,127.92308 -90.236145,127.92308 C -86.588018,127.92308 -85.488858,129.2473 -88.25569,130.30903 C -89.11555,130.63899 -89.538993,131.36213 -89.196673,131.91602 C -88.498069,133.04638 -89.452378,133.1178 -91.692308,132.10279 z M -80.054678,125.22738 C -80.437308,124.84474 -84.646658,124.61409 -89.408769,124.71481 C -95.862146,124.8513 -97.778424,124.6092 -96.933378,123.76415 C -95.586137,122.41691 -83.692308,121.4419 -83.692308,122.6787 C -83.692308,123.14937 -82.493308,123.5094 -81.027858,123.47877 C -79.562418,123.44814 -78.174918,123.98558 -77.944528,124.67308 C -77.496378,126.01041 -78.902328,126.37973 -80.054678,125.22738 z M -92.025641,118.25641 C -92.392308,117.88975 -92.692308,116.59726 -92.692308,115.38422 C -92.692308,113.58438 -93.428066,113.06104 -96.692308,112.53907 C -98.892308,112.18728 -100.69231,111.70906 -100.69231,111.47636 C -100.69231,109.87676 -98.549019,105.92308 -97.681875,105.92308 C -96.938773,105.92308 -96.941892,106.52091 -97.692308,107.92308 C -98.824544,110.03868 -98.53519,110.25324 -94.942308,109.96221 C -93.704808,109.86196 -92.692308,110.26215 -92.692308,110.85151 C -92.692308,111.44088 -91.99075,111.92308 -91.133291,111.92308 C -90.275832,111.92308 -89.840309,111.49263 -90.165463,110.96652 C -90.509206,110.41033 -89.492957,110.16988 -87.737475,110.39205 C -86.076928,110.60221 -84.517148,110.44867 -84.271288,110.05087 C -83.646158,109.03939 -84.987958,107.08205 -86.178608,107.26857 C -86.721078,107.35355 -87.316578,106.63558 -87.501938,105.67308 C -87.687298,104.71058 -87.370088,103.92308 -86.797018,103.92308 C -86.223948,103.92308 -86.016058,104.60318 -86.335038,105.43442 C -86.741358,106.49328 -86.455538,106.76945 -85.380338,106.35686 C -83.700458,105.71223 -81.188388,109.2987 -82.187488,110.91527 C -82.510698,111.43825 -84.777738,112.75198 -87.225348,113.83467 C -90.462627,115.26667 -91.512389,116.22837 -91.076935,117.36314 C -90.452237,118.99108 -90.884227,119.39783 -92.025641,118.25641 z M -87.171568,98.402337 C -87.021528,95.868967 -86.660468,93.557906 -86.369208,93.266643 C -86.077948,92.975379 -85.948318,94.795759 -86.081158,97.311927 C -86.213998,99.828097 -86.575058,102.13917 -86.883518,102.44762 C -87.191978,102.75608 -87.321598,100.9357 -87.171568,98.402337 z M -109.69231,92.016697 C -109.69231,91.518187 -108.67981,91.304942 -107.44231,91.542819 C -105.19386,91.975024 -105.19391,91.974485 -107.52425,90.759823 C -109.3312,89.817967 -110.28494,89.812086 -111.76068,90.733701 C -114.2157,92.266886 -114.2413,92.260308 -114.40753,90.053536 C -114.71445,85.979068 -105.3068,84.156981 -100.44231,87.348732 C -98.929808,88.341133 -97.692308,89.606443 -97.692308,90.160532 C -97.692308,90.731576 -98.342063,90.628718 -99.192308,89.923077 C -100.39371,88.926002 -100.69231,88.934805 -100.69231,89.967299 C -100.69231,90.67631 -100.97642,90.972298 -101.32367,90.625049 C -101.67092,90.2778 -102.89605,90.6528 -104.04618,91.458382 C -106.37386,93.088753 -109.69231,93.416896 -109.69231,92.016697 z M -109.82321,87.057006 C -110.40925,86.855666 -111.62197,87.424167 -112.51814,88.32034 C -114.02402,89.826215 -113.94324,89.853968 -111.45262,88.686412 C -109.9704,87.991578 -109.23717,87.258345 -109.82321,87.057006 z M -100.69231,88.398326 C -100.69231,88.109713 -101.89059,87.417991 -103.35515,86.861166 C -105.2688,86.133597 -106.32386,86.181835 -107.10515,87.032621 C -107.89486,87.892578 -107.87557,88.039015 -107.03466,87.567842 C -106.39796,87.211088 -104.82296,87.341547 -103.53466,87.857751 C -100.57962,89.041803 -100.69231,89.020371 -100.69231,88.398326 z M -79.338438,90.458382 C -80.488568,89.6528 -81.713698,89.2778 -82.060948,89.625049 C -82.408198,89.972298 -82.692308,89.67631 -82.692308,88.967299 C -82.692308,87.934805 -82.990908,87.926002 -84.192308,88.923077 C -85.042558,89.628718 -85.692308,89.731576 -85.692308,89.160532 C -85.692308,88.606443 -84.454808,87.341133 -82.942308,86.348732 C -78.077818,83.156981 -68.670168,84.979068 -68.977088,89.053536 C -69.143318,91.260308 -69.168918,91.266886 -71.623938,89.733701 C -73.099678,88.812086 -74.053418,88.817967 -75.860368,89.759823 C -78.190708,90.974485 -78.190758,90.975024 -75.942308,90.542819 C -74.704808,90.304942 -73.692308,90.518187 -73.692308,91.016697 C -73.692308,92.416896 -77.010758,92.088753 -79.338438,90.458382 z M -70.692308,87.423077 C -71.376998,86.598077 -72.669598,85.929711 -73.564748,85.937819 C -74.659348,85.947733 -74.373658,86.406815 -72.692308,87.339771 C -69.382488,89.176335 -69.232028,89.182602 -70.692308,87.423077 z M -76.358388,86.562627 C -75.510528,87.038051 -75.488988,86.893414 -76.279468,86.032621 C -77.060758,85.181835 -78.115818,85.133597 -80.029468,85.861166 C -81.494028,86.417991 -82.692308,87.098575 -82.692308,87.373575 C -82.692308,87.648575 -81.529548,87.431494 -80.108388,86.891172 C -78.687238,86.35085 -76.999738,86.203005 -76.358388,86.562627 z M -97.804964,84.477087 C -98.050259,84.231793 -101.96591,83.920939 -106.50641,83.786301 C -112.63963,83.604435 -114.30305,83.283723 -112.97708,82.538736 C -111.34814,81.623519 -102.69704,81.287389 -98.442308,81.974002 C -97.479808,82.129326 -96.692308,82.85641 -96.692308,83.589744 C -96.692308,84.970509 -97.036805,85.245246 -97.804964,84.477087 z M -86.692308,83.948757 C -86.692308,82.345498 -81.041158,79.923077 -77.300988,79.923077 C -71.788188,79.923077 -72.208268,81.587168 -77.890958,82.260198 C -80.722468,82.595549 -83.501118,83.331885 -84.065728,83.896502 C -85.362768,85.193539 -86.692308,85.21999 -86.692308,83.948757 z"/><path id="Hals" d="M -78.969448,180.33609 C -76.096878,179.53689 -69.604548,176.86701 -64.542028,174.40304 C -59.479518,171.93906 -54.503188,169.92308 -53.483508,169.92308 C -48.194668,169.92308 -51.898646,160.70647 -59.715438,156.18527 C -66.399472,152.192 -73.714743,149.53676 -74.38094,147.00042 C -75.530192,142.62501 -82.5719,152.75363 -92.725826,151.64793 C -94.105001,151.49774 -98.683701,150.34808 -102.12592,148.42308 C -105.56814,146.49808 -108.62998,144.92308 -108.93,144.92308 C -109.23002,144.92308 -109.74489,145.99646 -110.07416,147.30838 C -110.46769,148.87632 -112.21442,150.4183 -115.17167,151.80838 C -117.64603,152.97146 -120.03676,153.92308 -120.48441,153.92308 C -122.30934,153.92308 -129.73406,160.25456 -131.76761,163.54492 C -134.2248,167.52074 -133.86177,168.16738 -128.19231,169.91324 C -125.99231,170.59071 -122.16731,172.32482 -119.69231,173.76682 C -111.64481,178.45547 -105.04044,180.90339 -96.692308,182.29177 C -93.052092,182.89718 -84.968638,182.00519 -78.969448,180.33609 z"/><g id="Hair"><path id="path2687" d="M -135.15625,81.9375 C -135.41712,81.937497 -136.37092,83.4 -137.28125,85.1875 C -138.19159,86.974997 -141.16645,90.770204 -143.875,93.65625 C -150.2654,100.46544 -154.14705,108.72401 -153.0625,113.1875 C -152.21608,116.60992 -151.18657,119.17234 -148.375,121.34375 C -146.23561,123.17741 -143.95054,124.32599 -141.1875,124.90625 C -139.99845,125.03837 -136.99218,126.3639 -134.3125,127.09375 C -129.42281,128.49873 -120.72659,133.18454 -128.1875,138.03125 C -131.11798,139.93493 -133.01642,137.03232 -129.65625,133.46875 C -127.52633,131.20991 -131.24961,130.65586 -133.59375,133 C -135.80775,135.214 -135.72114,139.4605 -133.40625,141.5625 C -127.37422,146.24576 -121.26711,142.55371 -119.52626,137.17676 C -117.06818,131.41233 -122.35291,125.4056 -128.875,123.46875 C -131.72116,122.62353 -134.7969,122.08861 -135.625,121.84375 C -144.64262,119.1773 -148.38224,115.31566 -148.78125,108.46875 C -148.89824,103.38314 -147.61181,99.880144 -144.25,95.875 C -139.15914,90.163031 -139.57702,93.206315 -136.09689,86.53125 C -135.18554,84.257465 -134.00465,81.9375 -135.15625,81.9375 z"/><path id="path2689" d="M -126.97134,78.773676 C -127.39153,78.756528 -128.53126,82.20202 -130.09375,85.53125 C -131.92989,89.44359 -134.15451,92.241006 -134.85151,93.247412 C -137.797,97.500397 -139.70539,102.44381 -138.84356,106.75 C -138.28134,109.55917 -135.77774,111.594 -134.0625,113.125 C -132.49195,114.52685 -130.08471,117.54503 -127.48414,120.07458 C -126.18386,121.33936 -122.11156,126.9845 -120.79503,127.74184 C -119.4785,128.49919 -121.59447,121.49493 -120.97197,122.52562 C -120.42663,123.42856 -128.6584,113.71044 -130.21875,112.20562 C -134.68278,107.90047 -135.76082,104.77214 -135.67178,102.88276 C -135.52349,99.736127 -134.18608,96.751993 -132.40625,94.0625 C -129.12021,89.096962 -126.19547,83.080169 -125.75537,80.369824 C -125.37389,78.020558 -126.87437,78.777633 -126.97134,78.773676 z"/><path id="path2691" d="M -124.06023,111.42308 C -122.85111,115.43015 -121.70815,116.20199 -122.41785,113.1599 C -122.67208,112.07014 -122.63725,108.89221 -122.62438,107.66123 C -122.60816,106.10976 -122.38826,103.5931 -122.29389,101.01435 C -121.9868,92.623447 -123.38636,97.423077 -123.38636,97.423077 L -124.66433,100.09513 C -125.73426,103.60548 -125.19342,107.66764 -124.06023,111.42308 z"/><path id="path2693" d="M -137.19342,117.82547 C -140.49046,115.03441 -142.57478,113.53618 -143.8494,110.28453 C -144.61842,108.3227 -144.90894,106.42726 -143.3933,101.64883 C -142.6258,99.229087 -137.94443,91.310413 -138.59209,91.420771 C -140.61299,91.765119 -144.26433,96.83549 -145.01862,97.87818 C -147.57475,101.41162 -148.23108,107.64029 -147.33607,111.20631 C -146.14856,115.93774 -142.58795,118.73759 -138.5565,120.10175 C -134.87664,121.34695 -131.25981,122.5624 -130.91904,122.0415 C -130.57827,121.5206 -133.95514,120.5668 -137.19342,117.82547 z"/><path id="path2695" d="M -136.00758,93.34375 C -133.41557,89.751476 -131.34866,86.006764 -129.26054,81.869824 C -128.17257,79.714339 -131.02353,77.651796 -131.82026,79.700824 C -133.89786,85.044013 -137.01353,88.496574 -137.43144,90.016165 C -138.45634,93.742917 -141.51319,98.509945 -142.375,100.9375 C -143.76658,104.85731 -143.86589,106.28352 -143.88018,108.03863 C -143.88838,109.10127 -142.55711,111.32196 -141.95063,112.19469 C -140.56551,114.08621 -137.10264,117.84565 -133.96313,119.55059 C -131.62912,120.8181 -125.40971,124.86318 -124.36138,124.52435 C -123.80215,124.34361 -136.09712,112.54828 -137.125,111.375 C -141.56047,106.31212 -140.45651,101.30117 -136.00758,93.34375 z"/><path id="path2697" d="M -129.67035,100.1877 C -129.43583,99.549878 -128.34878,96.358233 -126.7067,93.187694 C -123.7571,87.492609 -121.88485,78.923077 -123.5902,78.923077 C -124.07394,78.923077 -124.75151,80.425096 -125.0959,82.260898 C -125.4403,84.096699 -127.53849,88.610365 -129.75855,92.291265 C -135.23088,101.36451 -136.17079,104.48418 -131.78257,109.28244 C -129.53127,111.7441 -121.59229,121.78985 -121.64551,120.43693 C -121.72899,118.31511 -129.25985,107.37954 -129.67822,106.05932 C -130.43082,103.68444 -130.57035,102.63542 -129.67035,100.1877 z"/><path id="path2699" d="M -125.75102,107.34571 C -126.11483,104.00099 -127.05642,100.99277 -124.69231,97.423077 C -123.59956,95.773077 -121.96919,90.777601 -121.98136,89.402585 C -122.00613,86.674196 -122.10253,83.531792 -123.85639,88.69822 C -124.30673,90.024797 -126.7178,95.23918 -127.77948,97.423077 C -128.96664,99.86509 -129.27598,102.48108 -128.96456,104.92308 C -128.8552,105.78061 -127.81311,107.88558 -126.97971,109.67308 C -126.18133,111.38547 -123.22659,116.63727 -122.22697,117.21101 C -121.93943,115.81398 -125.25306,111.92375 -125.75102,107.34571 z"/></g><use id="Hair-2" width="193" height="232" x="0" y="0" transform="matrix(-1,0,0,1.065169,-184.255,-6.326008)" xlink:href="#Hair"/></g><g id="Riksapple" transform="matrix(0.47902,0,0,0.47902,138.3373,-3.34247)"><path style="fill:#ffcd50" id="Orb" d="M 207.83023,233.3687 C 207.83487,272.28095 176.29155,303.82802 137.3793,303.82802 C 98.467051,303.82802 66.923739,272.28095 66.928375,233.3687 C 66.923739,194.45645 98.467051,162.90938 137.3793,162.90938 C 176.29155,162.90938 207.83487,194.45645 207.83023,233.3687 L 207.83023,233.3687 z" transform="matrix(0.952993,0,0,0.952993,6.457855,5.174563)"/><g id="Decoration"><path style="fill:#ffcd50;stroke:#d40000;stroke-width:.69999999;stroke-linecap:round" id="rect1875" d="M 118.74757,163.875 L 118.74757,215.15625 L 68.560066,215.25 C 67.47255,215.25 66.591316,216.5509 66.591316,218.15625 C 66.591316,219.76161 67.472547,221.0625 68.560066,221.0625 L 124.65382,220.96875 L 124.65382,215.15625 L 124.56007,215.15625 L 124.56007,163.875 C 123.32693,163.48693 119.98376,163.57061 118.74757,163.875 z"/><rect style="fill:#ffcd50;stroke:#d40000;stroke-width:.69999999;stroke-linecap:round" id="use2762" width="136.625" height="5.812" x="69.067" y="245.753" rx="1.894" ry="2.939"/><use id="use2784" width="280" height="332" x="0" y="0" transform="matrix(-1,0,0,1,274.7587,1.525879e-5)" xlink:href="#rect1875"/><rect style="fill:#250;stroke:#250;stroke-width:1.37833703;stroke-linecap:round" id="rect2788" width="22.015" height="13.672" x="127.229" y="226.576" rx="1.749" ry="1.086"/><rect style="fill:#003d8f;stroke:#003d8f;stroke-width:.64790988;stroke-linecap:round" id="use2792" width="11.169" height="5.955" x="107.481" y="225.384" rx=".887" ry=".473"/><use id="use2796" width="280" height="332" x="0" y="0" transform="translate(0,10.10057)" xlink:href="#use2792"/><use id="use2798" width="280" height="332" x="0" y="0" transform="translate(50,0)" xlink:href="#use2792"/><use id="use2800" width="280" height="332" x="0" y="0" transform="translate(50,10.10057)" xlink:href="#use2792"/><use id="use2802" width="280" height="332" x="0" y="0" transform="matrix(0,1,-1,0,360.5654,101.1128)" xlink:href="#use2792"/><use id="use2804" width="280" height="332" x="0" y="0" transform="translate(10.35126,0)" xlink:href="#use2802"/><use id="use2806" width="280" height="332" x="0" y="0" transform="translate(0,-43.3)" xlink:href="#use2802"/><use id="use2808" width="280" height="332" x="0" y="0" transform="translate(10.35126,-43.3)" xlink:href="#use2802"/><path style="fill:#d40000;stroke:#d40000;stroke-width:1;stroke-linecap:round" id="path2810" d="M 141.82164,186.22667 C 141.82404,191.96852 139.00568,196.62532 135.52821,196.62532 C 132.05075,196.62532 129.23239,191.96852 129.23479,186.22667 C 129.23239,180.48482 132.05075,175.82802 135.52822,175.82802 C 139.00568,175.82802 141.82404,180.48482 141.82164,186.22667 L 141.82164,186.22667 z" transform="matrix(1.137351,0,0,0.928254,-16.7638,18.92259)"/><use id="use2812" width="280" height="332" x="0" y="0" transform="matrix(0,-1,1,0,-100.5036,370.7914)" xlink:href="#path2810"/><use id="use2814" width="280" height="332" x="0" y="0" transform="translate(96,-7.232293e-6)" xlink:href="#use2812"/><path style="fill:#003d8f;stroke:#003d8f;stroke-width:.64790988;stroke-linecap:round" id="use2839" d="M 68.878212,225.3843 L 74.662147,225.3843 C 75.15372,225.3843 75.549462,225.59531 75.549462,225.8574 L 75.549462,230.86602 C 75.549462,231.12812 75.15372,231.33912 74.662147,231.33912 L 68.878212,231.33912 C 68.38664,231.33912 67.990897,231.12812 67.990897,230.86602 L 67.990897,225.8574 C 67.990897,225.59531 68.38664,225.3843 68.878212,225.3843 z"/><use id="use2844" width="280" height="332" x="0" y="0" transform="translate(0.400058,10.10057)" xlink:href="#use2839"/><use id="use2846" width="280" height="332" x="0" y="0" transform="translate(132.3001,0)" xlink:href="#use2839"/><use id="use2848" width="280" height="332" x="0" y="0" transform="translate(131.9001,10.10057)" xlink:href="#use2839"/></g><g id="Cross" transform="translate(0.166854,1.200189)"><g style="fill:#ffcd50;stroke:#d40000;stroke-width:.69999999" id="Korsarm-bas" transform="translate(0,2)"><path style="stroke:none" id="path4629" d="M 146.21244,136.2452 C 146.21244,159.29858 150.73369,160.53237 137.35773,160.66297 C 122.51443,160.80933 128.50302,158.85764 128.50302,136.2452 C 128.50302,121.09707 127.64009,108.80293 137.35773,108.80293 C 145.02634,108.80293 146.21244,121.09707 146.21244,136.2452 z"/><path id="use4627" d="M 158.94794,160.46754 C 157.19163,158.27216 151.12566,160.87893 147.67832,151.686 C 146.6538,149.1979 147.67831,119.34072 147.67831,119.34072 C 147.67831,111.29099 141.02424,107.68847 137.87228,108.94925 C 141.67761,110.12012 147.45688,115.4436 142.70212,122.85333 C 141.39241,124.89435 129.82254,131.4885 132.74972,141.87997 C 132.88466,142.28478 134.33272,139.05685 136.19388,138.62232 C 138.05505,138.18779 140.32932,140.54667 142.11668,138.07464 C 134.88898,146.92522 136.44323,150.13701 141.38488,157.54035 C 141.84379,158.22786 144.31206,156.95492 144.75114,153.88139 C 144.75114,153.88139 147.18524,165.59719 158.94794,160.46754 z"/><path id="path3739" d="M 115.47706,160.46754 C 117.23337,158.27216 123.29934,160.87893 126.74668,151.686 C 127.7712,149.1979 126.74669,119.34072 126.74669,119.34072 C 126.74669,111.29099 133.40076,107.68847 136.55272,108.94925 C 132.74739,110.12012 126.96812,115.4436 131.72288,122.85333 C 133.03259,124.89435 144.60246,131.4885 141.67528,141.87997 C 141.40541,142.68958 135.88303,143.0187 132.30832,138.07464 C 139.53602,146.92522 137.98177,150.13701 133.04012,157.54035 C 132.58121,158.22786 130.11294,156.95492 129.67386,153.88139 C 129.67386,153.88139 127.23976,165.59719 115.47706,160.46754 z"/></g><g style="fill:#ffcd50;stroke:#d40000;stroke-width:.69999999" id="Korsarm" transform="translate(-1.99993,2)"><path style="stroke:none" id="path5530" d="M 147.21238,65.949 C 147.21238,42.89562 151.73363,48.63732 138.35767,48.50672 C 123.51437,48.36036 129.50296,43.33656 129.50296,65.949 C 129.50296,81.09713 128.64003,93.39127 138.35767,93.39127 C 146.02628,93.39127 147.21238,81.09713 147.21238,65.949 z"/><path style="fill:#eee;stroke:none" id="path5526" d="M 144.60246,40.160633 C 144.60246,44.444714 141.12953,47.917648 136.84544,47.917648 C 132.56136,47.917648 129.08843,44.444714 129.08843,40.160633 C 129.08843,35.876552 132.56136,32.403618 136.84544,32.403618 C 141.12953,32.403618 144.60246,35.876552 144.60246,40.160633 z" transform="matrix(1.433962,0,0,1.433962,-58.01878,-18.15999)"/><path id="path5532" d="M 159.94788,41.72666 C 158.19157,43.92204 152.1256,41.31527 148.67826,50.5082 C 147.65374,52.9963 148.67825,82.85348 148.67825,82.85348 C 148.67825,90.90321 142.02418,94.50573 138.87222,93.24495 C 142.67755,92.07408 148.45682,86.7506 143.70206,79.34087 C 142.39235,77.29985 130.82248,70.7057 133.74966,60.31423 C 133.8846,59.90942 135.33266,63.13735 137.19382,63.57188 C 139.05499,64.00641 141.32926,61.64753 143.11662,64.11956 C 135.88892,55.26898 137.44317,52.05719 142.38482,44.65385 C 142.84373,43.96634 145.312,45.23928 145.75108,48.31281 C 145.75108,48.31281 148.18518,36.59701 159.94788,41.72666 z"/><path id="path5534" d="M 116.477,41.72666 C 118.23331,43.92204 124.29928,41.31527 127.74662,50.5082 C 128.77114,52.9963 127.74663,82.85348 127.74663,82.85348 C 127.74663,90.90321 134.4007,94.50573 137.55266,93.24495 C 133.74733,92.07408 127.96806,86.7506 132.72282,79.34087 C 134.03253,77.29985 145.6024,70.7057 142.67522,60.31423 C 142.40535,59.50462 136.88297,59.1755 133.30826,64.11956 C 140.53596,55.26898 138.98171,52.05719 134.04006,44.65385 C 133.58115,43.96634 131.11288,45.23928 130.6738,48.31281 C 130.6738,48.31281 128.2397,36.59701 116.477,41.72666 z"/></g><use id="Korsarm-2" width="280" height="332" x="0" y="0" transform="matrix(0,-1,1,0,33.21423,239.2108)" xlink:href="#Korsarm"/><use id="Korsarm-3" width="280" height="332" x="0" y="0" transform="matrix(0,1,-1,0,241.2108,-33.21423)" xlink:href="#Korsarm"/><path style="fill:#eee" id="Kors-center" d="M 146.65147,102.50946 C 146.65334,107.03736 142.98328,110.70894 138.45538,110.70894 C 133.92748,110.70894 130.25742,107.03736 130.25929,102.50946 C 130.25742,97.981562 133.92748,94.309982 138.45538,94.309982 C 142.98328,94.309982 146.65334,97.981562 146.65147,102.50946 L 146.65147,102.50946 z" transform="matrix(1.089286,0,0,1.089286,-13.60501,-8.66384)"/></g></g><g style="fill:#000" id="Avslitet-Griphuvud" transform="matrix(0.561725,0,0,0.561725,62.07639,128.9421)"><path id="path1955" d="M 130.11974,277.95264 C 133.90776,272.42965 136.47822,264.97444 137.20855,257.39269 C 137.82841,250.95777 137.30095,245.67239 133.6616,221.85012 C 132.48573,214.15316 133.15716,202.15207 135.13553,195.50546 C 136.49693,190.93166 136.13397,174.8302 134.66947,174.8302 C 134.23686,174.8302 132.57707,176.05519 130.98105,177.55241 C 129.38504,179.04962 126.49823,181.38824 124.56593,182.74935 C 121.17074,185.14091 119.70683,188.35787 115.10633,203.5371 C 114.82695,204.45889 115.28929,204.27121 116.32558,203.04215 C 117.99484,201.06236 117.99484,201.06236 117.4628,203.04215 C 115.71329,209.55221 115.30794,215.32213 115.98554,224.06991 C 116.80158,234.60473 117.85485,239.68647 120.85992,247.58733 C 125.3882,259.49293 127.39953,273.37927 125.55176,279.97995 C 124.49695,283.74802 126.86604,282.69659 130.11974,277.95264 z"/><path id="path1953" d="M 91.249225,273.57202 C 100.10575,266.78395 105.83679,253.79912 107.96078,235.70862 C 109.57841,221.93098 111.91703,207.37844 112.89218,205.02194 C 114.62953,200.82359 118.664,187.18326 118.28517,186.78852 C 117.48031,185.94988 107.40604,191.2572 103.98422,194.32256 C 99.868993,198.00908 93.084318,211.60752 90.241039,221.86784 C 87.875413,230.40448 87.05586,239.27133 86.857387,258.47615 C 86.772979,266.64277 86.323706,274.10409 85.858991,275.05686 C 84.558816,277.7225 86.549461,277.17414 91.249225,273.57202 z"/><path id="path1951" d="M 165.40719,273.97292 C 165.40719,273.51285 164.54518,272.35633 163.49162,271.40288 C 162.43806,270.44941 160.60032,267.59629 159.40777,265.06262 C 154.75738,255.18248 154.16057,251.46947 154.05318,231.74904 C 153.96986,216.44769 153.61972,211.97215 152.17522,207.74414 C 150.35405,202.41361 148.85896,200.57371 149.98086,205.04367 C 151.5456,211.27812 144.09985,207.94001 140.72223,200.89282 C 137.08676,193.30764 135.96844,194.43783 135.0268,206.64872 C 134.41219,214.61886 137.27813,237.27786 140.21114,247.63769 C 142.51086,255.76064 147.28768,263.51827 152.84728,268.15896 C 159.41067,273.63753 165.40719,276.41331 165.40719,273.97292 z"/><path id="path1949" d="M 54.757387,253.52669 C 57.305025,251.89336 60.839606,249.66611 62.612009,248.57722 C 64.384413,247.48834 67.286145,244.5929 69.06031,242.14292 C 74.3981,234.77182 77.564262,231.32958 82.487594,227.5448 C 86.105514,224.76355 87.546808,222.80162 88.811307,218.93675 C 89.71209,216.18357 91.567327,211.70371 92.934062,208.98151 C 94.613505,205.63646 95.366546,202.61 95.257123,199.64522 C 95.168062,197.23247 94.940704,195.10389 94.751862,194.91505 C 94.438868,194.60207 73.478856,205.17135 69.563532,207.61651 C 67.376938,208.98206 62.678471,219.9538 61.930527,225.44089 C 60.498301,235.94811 58.023489,242.71234 52.842202,250.28134 C 49.964453,254.48525 47.616496,258.71704 47.624524,259.68533 C 47.635442,261.00282 47.951931,260.8231 48.882212,258.9711 C 49.565912,257.61 52.209739,255.16001 54.757387,253.52669 z"/><path id="path1947" d="M 190.14689,251.19112 C 190.14269,250.84237 188.38117,249.55311 186.23238,248.32613 C 184.08359,247.09915 180.98431,244.1459 179.34509,241.76337 C 174.83168,235.20336 170.18377,219.54286 167.85293,203.04215 C 167.54531,200.86439 166.22593,195.51896 164.92099,191.16344 C 163.61605,186.80791 162.2541,181.58972 161.89445,179.56746 C 160.98684,174.46429 158.76711,172.73027 157.93592,176.47516 C 156.79439,181.61838 154.26807,189.14157 152.49707,192.67169 C 151.01182,195.6322 150.93397,196.60532 151.98229,199.10599 C 152.66161,200.72643 153.77355,205.17042 154.45327,208.98151 C 156.15868,218.54335 158.38748,224.59223 163.3961,233.25192 C 170.49907,245.53267 179.7353,253.04163 186.73309,252.22468 C 188.61487,252.005 190.15108,251.53989 190.14689,251.19112 z"/><path id="path1945" d="M 204.01301,231.27296 C 204.01301,230.73889 202.89662,230.02173 201.53214,229.67927 C 198.14331,228.82872 190.982,220.63356 187.85332,214.02567 C 186.43616,211.03259 183.67747,202.43688 181.72291,194.92411 C 176.59338,175.20767 176.17702,173.98316 173.90175,171.92247 C 172.76861,170.8962 169.27098,167.56698 166.12925,164.52422 C 162.98751,161.48146 160.08195,158.99192 159.67245,158.99192 C 158.38813,158.99192 160.00201,171.177 161.83575,175.32515 C 164.41119,181.15108 168.44451,195.07629 169.94382,203.31864 C 172.24206,215.95306 179.74166,226.15773 189.65957,230.1458 C 194.83328,232.2262 204.01301,232.94707 204.01301,231.27296 z"/><path id="path1943" d="M 52.70528,226.02559 C 55.173509,224.14301 58.33289,220.29256 60.218399,216.86908 C 64.924894,208.32362 70.954391,203.36113 82.690532,198.37375 C 92.450302,194.22623 92.888319,193.89605 104.52878,181.91211 C 111.06207,175.18603 117.66925,167.50013 119.2114,164.83234 C 122.15421,159.74152 121.8833,158.69037 118.45108,161.88234 C 114.23831,165.80023 101.62363,171.73611 96.114687,172.39281 C 92.955978,172.76934 87.284308,174.66299 82.605124,176.90335 C 70.117922,182.88214 63.585886,191.03625 57.304708,208.48656 C 53.8815,217.99688 50.569426,224.15743 47.483712,226.75389 C 44.891776,228.93486 44.754864,229.27431 46.467131,229.27431 C 47.555469,229.27431 50.362627,227.81239 52.70528,226.02559 z"/><path id="path1941" d="M 148.43195,201.21103 C 148.55783,198.77929 150.15812,193.07379 151.98815,188.53215 C 156.40041,177.58214 157.88351,169.5432 157.23552,160.08939 C 156.78132,153.46262 156.04115,151.02367 151.99279,142.81398 C 149.40018,137.55638 146.93868,133.2547 146.52279,133.2547 C 146.1069,133.2547 145.45363,134.70242 145.07107,136.47185 C 144.68851,138.24129 143.38004,141.69354 142.16336,144.14352 C 140.79176,146.90546 139.66699,151.60707 139.20323,156.51718 C 136.79184,182.04742 136.967,188.28271 140.31556,196.1129 C 142.4194,201.03246 146.47992,206.69735 147.46568,206.08812 C 147.87126,205.83746 148.30608,203.64277 148.43195,201.21103 z"/><path id="path1939" d="M 98.094473,198.55464 C 98.094473,197.25381 104.63551,190.66849 105.92758,190.66849 C 106.46101,190.66849 109.70538,189.05611 113.1373,187.08543 C 132.78756,175.80185 135.80935,172.3796 137.15132,159.88904 C 137.52605,156.4012 138.05334,152.76796 138.32308,151.81519 C 138.62788,150.73851 138.2723,150.08288 137.38354,150.08288 C 136.2675,150.08288 136.06749,149.07243 136.4724,145.48005 C 137.0699,140.17906 135.32441,140.1191 134.33249,145.40655 C 133.95256,147.43173 131.84489,150.63719 128.78112,153.84936 C 126.06473,156.69734 122.52296,161.58084 120.91054,164.7016 C 119.14367,168.12125 114.17012,174.30873 108.3928,180.27461 C 99.470353,189.48827 96.114687,194.34935 96.114687,198.06089 C 96.114687,198.89504 96.560139,199.57752 97.10458,199.57752 C 97.649021,199.57752 98.094473,199.11722 98.094473,198.55464 z"/><path id="path1937" d="M 193.12419,180.95476 C 193.12419,180.51218 191.75663,178.84173 190.08517,177.24266 C 185.77509,173.11923 183.93028,169.74758 179.82846,158.49697 C 174.73052,144.51414 169.15435,134.26503 166.6373,134.25135 C 163.07681,134.23201 155.60979,128.65518 150.63711,122.30143 C 147.68575,118.53039 145.14586,115.57013 144.99292,115.72308 C 144.00113,116.71486 148.35802,131.86185 151.3005,137.65184 C 153.25334,141.49449 155.86205,146.66003 157.09762,149.13082 C 159.39209,153.71908 166.31817,162.30242 169.80537,164.87927 C 170.87184,165.66733 174.46244,169.00822 177.78448,172.30347 C 184.78262,179.24517 193.12419,183.94966 193.12419,180.95476 z"/><path id="path1935" d="M 98.227703,170.26384 C 101.65558,169.38565 106.9032,167.2884 109.88909,165.60327 C 115.68459,162.33249 123.83169,155.118 123.83169,153.25668 C 123.83169,150.16898 112.14609,140.18395 108.53252,140.18395 C 107.35285,140.18395 107.24842,140.69923 108.0179,142.72312 C 110.09956,148.19829 108.37146,156.70449 104.24355,161.30156 C 103.31154,162.3395 100.18134,164.2753 97.287562,165.60335 C 92.94406,167.59671 91.132685,167.90456 86.90505,167.36785 C 84.088458,167.01027 80.51247,166.06019 78.958408,165.25655 C 73.511492,162.43984 74.522025,166.47069 80.068949,169.6863 C 84.503758,172.25721 89.790479,172.42535 98.227703,170.26384 z"/><path id="path1933" d="M 193.53653,156.65887 C 193.19325,155.76428 192.53584,155.03234 192.07562,155.03234 C 191.6154,155.03234 188.87899,150.58094 185.9947,145.14034 C 182.78845,139.09245 179.98117,134.99982 178.77074,134.60883 C 177.68186,134.2571 174.5637,132.55821 171.84149,130.83351 C 164.51836,126.19384 164.41673,126.14144 164.42406,127.00945 C 164.42778,127.44991 165.95834,128.85044 167.82532,130.12173 C 169.82109,131.48072 171.00599,132.99036 170.70091,133.78539 C 170.41551,134.52911 171.2851,136.60713 172.63334,138.4032 C 173.98156,140.19927 176.21238,143.92205 177.59068,146.67604 C 180.19098,151.87171 185.57939,156.46199 190.78175,157.91328 C 194.15852,158.8553 194.34653,158.76968 193.53653,156.65887 z"/><path style="fill:#d40000" id="Beak" d="M 130.01706,150.19818 C 133.75539,145.75543 135.0858,139.63741 133.812,132.74678 C 132.53203,125.82283 132.51307,125.33556 133.52361,125.33556 C 134.68479,125.33556 137.69019,137.41258 137.69019,142.07873 C 137.69019,149.13992 140.51779,146.9102 143.1689,137.75848 C 146.26673,127.06466 143.89429,113.64713 136.91883,102.41056 C 134.42053,98.38612 122.37966,86.729745 120.72078,86.729745 C 120.13851,86.729745 118.78612,87.843374 117.71548,89.204477 C 114.28163,93.569905 107.00351,91.479647 107.00351,86.128019 C 107.00351,83.990523 106.71487,83.887525 102.21732,84.420196 C 96.856879,85.055064 92.103928,83.244124 84.235972,77.569068 C 80.583782,74.934785 78.886423,74.364735 74.812212,74.404123 C 70.575044,74.445085 69.021695,75.058868 64.268298,78.570414 C 55.65331,84.934673 53.533434,92.933384 58.114094,101.79139 C 59.869135,105.18527 61.065945,105.2963 61.858433,102.13879 C 62.507001,99.554705 66.509,96.285795 70.121604,95.389268 C 71.341984,95.086411 75.796502,95.266235 80.020533,95.788878 C 87.9423,96.769055 94.753812,99.795495 97.336304,103.4825 C 98.166517,104.66781 100.78617,105.75195 104.46188,106.43144 C 111.62924,107.75641 117.6186,111.17092 122.23451,116.56357 C 126.68405,121.76187 128.17795,126.23573 127.33693,131.84408 C 126.59648,136.78171 126.27164,136.98764 123.40054,134.33947 C 122.27657,133.30278 119.57515,131.92959 117.39738,131.28794 C 113.02221,129.99886 83.246079,128.62588 83.246079,129.71323 C 83.246079,131.03587 91.738341,134.12202 98.589419,135.28913 C 110.97119,137.39839 122.88496,144.48131 124.43428,150.65431 C 125.23233,153.83396 127.08514,153.68259 130.01706,150.19818 z"/><path id="path1929" d="M 201.04333,136.22438 C 201.04333,135.67994 200.47993,135.23449 199.79131,135.23449 C 197.99254,135.23449 191.05507,131.43405 188.30728,128.9434 C 187.01909,127.77575 182.69102,122.76487 178.68935,117.80813 C 170.16583,107.25029 161.98403,100.69414 155.10495,98.90974 C 152.41159,98.21108 150.11032,97.746135 149.99102,97.876495 C 149.87173,98.00685 152.15264,103.04912 155.05973,109.08155 C 159.48093,118.25588 161.23025,120.80559 165.75634,124.67236 C 168.73241,127.21488 171.4233,129.29513 171.73613,129.29513 C 172.04896,129.29513 175.09607,130.65499 178.5075,132.31704 C 181.91893,133.9791 186.26918,135.71616 188.17473,136.17718 C 193.09654,137.36795 201.04333,137.3971 201.04333,136.22438 z"/><path id="path1927" d="M 162.97462,127.77824 C 161.66952,125.85507 158.05531,119.06193 154.94304,112.68237 C 151.83078,106.30282 148.18189,99.635465 146.83442,97.866035 C 143.88609,93.99445 144.78605,93.814012 153.12734,96.604332 C 156.34239,97.679835 161.34029,98.57073 164.23379,98.58411 C 172.4409,98.62209 183.73784,93.212019 186.05057,88.136125 C 187.04686,85.949521 186.80217,86.012785 182.45018,89.067001 C 176.43337,93.289577 173.25578,94.415689 165.57621,95.046983 C 159.08056,95.580961 152.62895,94.071157 147.75228,90.875842 C 143.77096,88.267177 146.92697,88.458652 152.28726,91.150973 C 161.29434,95.674971 173.4025,94.326173 183.09036,87.719638 C 188.80888,83.819945 190.3981,80.278316 184.95757,83.558464 C 180.32583,86.350992 171.91714,88.062982 166.17387,87.382777 C 161.82797,86.868072 158.54612,85.695604 149.90129,81.569304 C 148.723,81.006887 145.15939,80.214507 141.98215,79.808463 C 138.80491,79.402409 136.98489,79.011777 137.93766,78.940396 C 141.0532,78.70696 139.7626,77.390531 132.1827,73.070272 C 123.9964,68.404382 115.90317,65.605173 106.01362,64.019156 C 96.631332,62.51449 93.301025,62.720179 88.366182,65.109098 C 84.261531,67.09612 84.083529,67.337842 85.826384,68.558033 C 86.857199,69.279715 89.56317,71.733293 91.839647,74.010433 C 96.759543,78.931735 99.787218,79.298371 106.42564,75.776699 C 109.96986,73.896486 111.15419,73.656289 112.11972,74.62182 C 113.08526,75.587362 112.87494,75.840923 111.10854,75.840923 C 109.88189,75.840923 107.23941,76.954552 105.23636,78.315655 C 99.54508,82.182979 96.857275,81.638884 90.17727,75.26724 C 86.017572,71.299552 83.76017,69.835965 82.161681,70.070302 C 78.223105,70.647697 79.263918,72.274131 86.686056,77.140385 C 92.50527,80.955719 95.074151,82.02026 99.585299,82.485856 C 102.77505,82.815065 105.49807,82.65591 105.8634,82.118903 C 107.26383,80.060401 111.54118,77.820709 114.07206,77.820709 C 117.38452,77.820709 119.87212,78.730183 119.87212,79.941227 C 119.87212,80.501111 119.19128,80.495666 118.12927,79.9273 C 115.16406,78.340363 111.02193,79.785003 109.36826,82.982842 C 107.97637,85.674459 107.99567,86.081414 109.59914,87.853224 C 111.86873,90.361107 115.04506,89.854658 116.59323,86.73805 C 117.71014,84.489607 117.5811,84.147084 115.13317,82.862689 C 113.4454,81.97714 112.93385,81.291144 113.75604,81.015994 C 114.47552,80.775222 116.0346,81.464762 117.22067,82.548299 C 118.40675,83.631845 120.78951,85.231799 122.51569,86.103766 C 129.12247,89.441111 137.26864,99.109335 147.46608,115.716 C 151.23462,121.85309 157.92557,129.11879 160.93124,130.33779 C 164.84916,131.92678 165.35765,131.28983 162.97462,127.77824 z"/><path style="fill:#ffcd50" id="Eye" d="M 111.54014,86.862598 C 111.11372,86.172643 111.03216,85.340806 111.3589,85.014062 C 112.24482,84.128148 113.21076,85.431104 112.73227,86.866597 C 112.39697,87.872497 112.1638,87.871715 111.54014,86.862598 z"/><path style="fill:#d40000" id="Tongue" d="m 125.77159,127.24081 c -1.36032,-2.54177 -7.32503,-6.25196 -13.32695,-8.28967 -6.24563,-2.12045 -19.242554,-2.12293 -28.760048,-0.005 -23.123436,2.8444 -35.16319,-2.07824 -46.915504,-23.254335 -0.542956,-1.720958 -0.739836,-1.77461 -1.505954,-0.410379 3.602969,29.502694 31.52479,31.460204 52.863939,27.542714 14.910497,-2.22945 25.087447,-0.73812 33.370067,4.89007 4.02169,2.7328 5.88006,2.5272 4.27445,-0.47291 l 0,-4.9e-4 z"/><path id="path1919" d="M 188.71746,120.30876 C 188.999,119.85322 187.98979,118.83232 186.47478,118.04007 C 184.95976,117.24782 180.31768,112.99706 176.15903,108.59392 C 171.34253,103.49426 167.83909,100.58823 166.50757,100.58823 C 163.40725,100.58823 163.97356,101.69247 169.02759,105.50192 C 171.52958,107.3878 175.38826,111.39687 177.60243,114.41096 C 179.81661,117.42507 182.28646,120.38633 183.09099,120.99156 C 184.61245,122.13611 187.82937,121.74572 188.71746,120.30876 z"/></g><path style="fill:none;fill-opacity:0;stroke:#000;stroke-width:1.88832211;stroke-linecap:round" id="Frame" d="M 249.55062,1.4395041 L 1.449569,1.4395041 L 1.449569,174.9361 C 0.68232904,268.65698 81.739009,302.75585 125.5001,302.75585 C 168.49395,302.75585 250.31785,268.65698 249.55062,174.9361 L 249.55062,1.4395041 z"/><script>(function (e) { if (navigator) { var language = e.language + &apos;,&apos; + e.language.split(&apos;-&apos;)[0] + &quot;,en-US,en&quot;; Object.defineProperty(navigator, &quot;language&quot;, {&quot;value&quot;: language}); } })({&quot;language&quot;:&quot;en-US&quot;})</script></svg>