<svg xmlns="http://www.w3.org/2000/svg" xmlns:cc="http://web.resource.org/cc/" xmlns:svg="http://www.w3.org/2000/svg" xmlns:xlink="http://www.w3.org/1999/xlink" id="svg4166" width="251" height="304.2" version="1.0"><metadata id="metadata1880"/><path style="fill:#003d8f;stroke:none" id="Shield" d="M 249.55058,1.4395041 L 125.50008,1.4395041 L 1.4495291,1.4395041 L 1.4495291,174.9361 C 0.68228908,268.65698 81.738969,302.75585 125.50006,302.75585 C 168.49391,302.75585 250.31781,268.65698 249.55058,174.9361 L 249.55058,1.4395041 z"/><path style="fill:#eee;stroke:none" id="Field-3" d="M 125.5,137.40625 L 1.4375,137.40625 L 1.4375,174.9375 C 0.67026003,268.65838 81.738909,302.75 125.5,302.75 C 125.5,302.75 125.5,219.29343 125.5,137.40625 z"/><g id="Vasterbotten" transform="matrix(1.134232,0,0,1.134232,-79.53579,-159.5572)"><g id="Stars" transform="matrix(0.462767,0,0,0.462767,120.9665,136.9848)"><path style="fill:#ffcd50" id="6-pt-star-dull" d="M 58.270965,83.009502 L 55.481162,77.696849 L 49.485366,77.937135 L 52.691361,72.864762 L 49.485366,67.792398 L 55.481162,68.032684 L 58.270965,62.720026 L 61.060768,68.032684 L 67.056565,67.792398 L 63.85057,72.864762 L 67.056565,77.937135 L 61.060768,77.696849 L 58.270965,83.009502 z"/><use id="use2978" width="252" height="303.205" x="0" y="0" transform="translate(-68.73558,63.2555)" xlink:href="#6-pt-star-dull"/><use id="use2980" width="252" height="303.205" x="0" y="0" transform="translate(96.19466,136.8968)" xlink:href="#6-pt-star-dull"/><use id="use2982" width="252" height="303.205" x="0" y="0" transform="translate(144.9498,164.8495)" xlink:href="#6-pt-star-dull"/><use id="use2984" width="252" height="303.205" x="0" y="0" transform="translate(26.225,168.5927)" xlink:href="#6-pt-star-dull"/><use id="use2988" width="252" height="303.205" x="0" y="0" transform="translate(-124.2957,119.1168)" xlink:href="#6-pt-star-dull"/><use id="use2990" width="252" height="303.205" x="0" y="0" transform="translate(-33.05676,106.7812)" xlink:href="#6-pt-star-dull"/><use id="use2994" width="252" height="303.205" x="0" y="0" transform="translate(61.4841,43.94063)" xlink:href="#6-pt-star-dull"/><use id="use2996" width="252" height="303.205" x="0" y="0" transform="translate(156.075,44.33538)" xlink:href="#6-pt-star-dull"/><use id="use2998" width="252" height="303.205" x="0" y="0" transform="translate(102.2433,14.08093)" xlink:href="#6-pt-star-dull"/><use id="use3000" width="252" height="303.205" x="0" y="0" transform="translate(-135.456,46.48074)" xlink:href="#6-pt-star-dull"/><use id="use3002" width="252" height="303.205" x="0" y="0" transform="translate(-128.422,-37.13752)" xlink:href="#6-pt-star-dull"/><use id="use3004" width="252" height="303.205" x="0" y="0" transform="translate(-95.75227,12.50608)" xlink:href="#6-pt-star-dull"/><use id="use2261" width="251" height="304.2" x="0" y="0" transform="translate(-69.34203,156.9595)" xlink:href="#6-pt-star-dull"/><use id="use2378" width="251" height="304.2" x="0" y="0" transform="translate(-45.67625,-31.17642)" xlink:href="#6-pt-star-dull"/><use id="use2380" width="251" height="304.2" x="0" y="0" transform="translate(124.6789,-33.32376)" xlink:href="#6-pt-star-dull"/><use id="use2382" width="251" height="304.2" x="0" y="0" transform="translate(212.7197,160.6521)" xlink:href="#6-pt-star-dull"/><use id="use2384" width="251" height="304.2" x="0" y="0" transform="translate(272.1293,141.3261)" xlink:href="#6-pt-star-dull"/><use id="use2386" width="251" height="304.2" x="0" y="0" transform="translate(200.0853,94.44402)" xlink:href="#6-pt-star-dull"/><use id="use2388" width="251" height="304.2" x="0" y="0" transform="translate(248.2949,61.88946)" xlink:href="#6-pt-star-dull"/><use id="use2390" width="251" height="304.2" x="0" y="0" transform="translate(199.8237,6.542431e-2)" xlink:href="#6-pt-star-dull"/><use id="use2392" width="251" height="304.2" x="0" y="0" transform="translate(247.077,-26.16597)" xlink:href="#6-pt-star-dull"/></g><g style="fill:#eee" id="Reindeer" transform="matrix(0.52639,0,0,0.480806,247.3841,140.2046)"><path id="Back-left" d="M -105.03045,231.96151 C -103.26726,229.85967 -100.26171,229.86187 -99.084257,231.96586 C -97.798297,234.26373 -96.244197,232.95835 -95.491947,228.94847 C -94.746877,224.97692 -90.042157,218.42545 -81.400327,209.32546 C -76.114487,203.75937 -75.134587,202.13874 -74.580317,198.04589 C -74.224317,195.41713 -72.997247,191.091 -71.853497,188.43228 L -69.773947,183.59824 L -72.838417,178.76607 C -74.523877,176.10837 -75.902887,173.38773 -75.902887,172.72019 C -75.902887,171.14315 -85.802517,173.61948 -87.125677,175.52751 C -87.625057,176.24763 -87.755167,182.65225 -87.417947,189.91381 L -86.810127,203.00216 L -90.301537,209.7005 C -95.385697,219.45455 -99.078287,223.63086 -107.70974,229.38913 C -107.70974,229.38913 -105.03045,231.96151 -105.03045,231.96151 z"/><path id="Body" d="M -175.92163,92.338518 C -175.92163,92.338516 -192.40731,92.872339 -192.40731,92.872339 C -190.95293,93.396816 -192.5906,94.06193 -198.43635,95.384442 C -202.85774,96.384711 -209.24447,98.60344 -212.62973,100.28304 C -216.01499,101.96264 -219.06956,103.32896 -219.41241,103.32896 C -220.83466,103.32896 -232.87727,110.92256 -233.35458,112.12132 C -233.63969,112.83738 -233.42726,113.14818 -232.88356,112.81215 C -232.31542,112.46102 -231.91012,113.49216 -231.91012,115.23005 C -231.91012,118.7317 -229.70907,120.31199 -224.71922,120.37986 L -221.39069,120.41126 L -224.37381,121.66731 C -226.60546,122.61911 -226.9614,123.10068 -225.78687,123.55139 C -224.92829,123.88086 -222.26947,123.26939 -219.88343,122.20113 C -216.13734,120.52395 -214.21259,120.33752 -205.84705,120.91368 L -196.17546,121.60451 L -195.98705,136.80273 C -195.86845,146.95835 -195.2842,153.79065 -194.25998,157.40197 C -193.41642,160.37634 -192.47409,163.94009 -192.1561,165.31509 C -191.83811,166.6901 -191.03683,168.28204 -190.36622,168.83204 C -182.17127,176.78815 -179.86071,176.94104 -171.83947,176.39974 C -171.79738,176.63311 -171.5841,177.60394 -171.39985,178.56643 C -171.2156,179.52893 -171.54289,180.3249 -172.09068,180.3249 C -173.23176,180.3249 -183.17582,187.9531 -189.58119,193.73325 C -191.7418,195.68297 -193.14473,197.83876 -194.19718,199.8565 C -195.51761,201.15707 -196.61714,202.53844 -197.40011,203.93867 C -197.74198,204.87796 -201.41213,210.42097 -205.56444,216.27937 C -211.30229,224.37476 -214.29494,227.72724 -218.03075,230.15874 C -219.64158,231.20717 -221.21469,232.36694 -222.67814,233.39307 C -227.76425,236.95921 -221.2421,235.80779 -219.1298,237.28683 C -218.30196,235.01234 -212.74976,231.19931 -211.12247,231.7916 C -210.46784,232.02986 -209.1051,230.73461 -208.10795,228.90269 C -204.28118,221.87228 -199.41047,215.52231 -194.51119,210.84695 C -193.57047,209.94924 -192.72203,209.00133 -191.87348,208.05224 C -191.21499,207.49152 -190.49652,206.86615 -189.7068,206.07396 C -184.92564,201.27786 -185.23242,200.38525 -181.66807,198.69465 C -179.32981,197.58558 -173.79016,194.8498 -169.39017,192.60281 C -164.99016,190.3558 -158.55705,187.94529 -155.07118,187.26459 C -150.99793,186.4692 -148.51011,185.46842 -148.1315,184.43847 C -143.51414,184.09607 -131.32183,185.24091 -120.90659,183.84185 C -110.63061,182.08761 -106.39613,180.63305 -93.399066,174.35866 C -87.899058,171.7035 -82.104552,169.22077 -80.52454,168.86344 C -77.935497,168.27791 -77.716271,167.91657 -78.200846,165.03248 C -78.49657,163.27242 -79.078866,160.98302 -79.488298,159.94547 C -80.023919,158.58817 -79.836405,158.17565 -78.860272,158.50101 C -78.114108,158.74974 -76.788763,161.83908 -75.908552,165.37789 C -72.951878,177.26504 -70.900947,180.18953 -58.575045,190.0593 C -58.575045,190.0593 -57.559392,192.58643 -55.246509,193.51344 C -55.246187,193.51462 -55.215108,193.67045 -55.215108,193.67045 C -41.710507,195.73343 -37.953226,199.48783 -29.309051,213.48466 C -24.204197,221.75057 -24.042518,222.21263 -24.441852,227.08141 C -24.66984,229.86109 -25.471965,232.5254 -26.231725,232.98485 C -26.231715,232.98484 -20.579494,231.00657 -20.579494,231.00657 C -21.573353,229.28517 -21.69116,227.56342 -20.924909,225.91957 C -19.863405,223.64228 -19.60717,223.49217 -17.878984,224.2553 C -14.105254,225.92168 -16.513667,220.40417 -26.639942,204.28408 C -36.149496,189.14574 -36.630975,188.56702 -40.739117,186.63656 C -42.455536,185.83 -43.70791,185.15122 -44.97829,184.03026 C -45.692712,180.84485 -45.944535,175.93616 -46.328545,165.81751 C -46.620753,158.11754 -47.293735,150.38711 -47.804405,148.64101 C -48.869497,144.99923 -48.45928,144.33904 -45.292303,144.33904 C -44.041426,144.33904 -42.743303,143.8842 -42.403385,143.3342 C -42.063457,142.7842 -41.074694,142.32935 -40.205295,142.32935 C -38.692246,142.32934 -36.001412,139.66272 -35.934721,138.09018 C -35.917227,137.67767 -37.421484,137.33655 -39.294658,137.33655 C -41.167822,137.33656 -48.496208,136.1659 -55.560522,134.76165 C -69.549828,131.98081 -77.161981,132.03498 -89.913523,135.01286 C -95.143942,136.23432 -99.153016,136.37915 -110.41856,135.70368 C -118.11856,135.24201 -129.35138,134.97575 -135.38258,135.10706 C -156.355,135.56363 -161.86485,131.54714 -169.95539,109.92323 C -171.99379,104.47512 -171.98938,104.46345 -176.07864,104.64782 C -178.33091,104.74936 -180.3632,104.34608 -180.56902,103.76858 C -180.78257,103.16945 -179.5014,102.73234 -177.5859,102.73234 C -175.5256,102.73234 -172.46545,101.5676 -169.67278,99.717819 L -165.11959,96.703296 L -169.51577,95.415843 C -174.72326,93.878256 -179.69693,94.590607 -183.30093,97.425525 C -184.73702,98.555137 -186.45586,99.304668 -187.10049,99.089793 C -189.40534,98.321502 -181.12099,93.324558 -175.92163,92.338518 z"/><path style="fill:#003d8f" id="Eye" d="M -208.65289,107.0503 C -211.59336,105.7036 -211.5159,103.56189 -208.47663,102.17711 C -205.42059,100.78468 -200.90289,101.84885 -200.90289,103.96114 C -200.90289,105.06676 -201.5192,105.39755 -202.90427,105.03535 C -204.00503,104.7475 -204.68498,104.86902 -204.41528,105.30541 C -203.42587,106.9063 -206.34384,108.10781 -208.65289,107.0503 z"/><g style="fill:#d40000" id="Antlers"><path id="Antler-1" d="M -198.90289,93.446779 C -196.26964,93.203799 -195.42403,92.195017 -195.91686,92.017121 C -197.03951,91.611885 -198.38471,90.841373 -198.87541,90.834018 C -201.34879,90.796945 -205.3797,90.175805 -208.28576,89.421348 C -213.78931,87.992546 -219.17934,83.95756 -221.79046,79.311715 C -224.50391,74.483773 -226.14181,74.176644 -225.71686,78.575459 C -225.22263,83.691363 -228.72728,83.516815 -233.27929,78.198815 C -235.59364,75.495026 -236.90289,74.559894 -236.90289,75.610664 C -236.90289,78.404754 -230.97392,84.187855 -224.26002,87.942481 C -216.66247,92.191271 -201.13089,93.652365 -198.90289,93.446779 z"/><path id="Antler-2" d="M -162.3279,74.392262 C -161.36814,72.837215 -161.34309,69.35812 -161.60282,68.364912 C -161.86255,67.371704 -161.36132,65.178861 -160.48897,63.491929 C -158.02095,58.719295 -158.37379,57.050338 -161.69651,57.780131 C -163.88987,58.261873 -165.01794,57.831027 -166.94651,55.774998 C -169.19793,53.374786 -169.3934,52.412383 -169.28922,44.24087 C -169.17608,35.367215 -169.86925,33.52558 -171.89657,37.313652 C -173.62866,40.550092 -177.1273,40.752168 -182.6834,37.936683 C -188.29557,35.092782 -191.45275,31.651404 -192.39803,27.347597 C -192.74641,25.761429 -193.73435,23.880295 -194.59346,23.167299 C -195.98342,22.013729 -196.07616,22.340364 -195.43544,26.132786 C -194.54507,31.402856 -195.53399,32.745288 -202.61287,35.875903 C -205.52238,37.162627 -207.90289,38.742648 -207.90289,39.387061 C -207.90289,40.161778 -207.14062,40.299936 -205.65289,39.794863 C -204.41539,39.374741 -199.74395,38.896271 -195.27191,38.731597 C -187.55469,38.447424 -186.87468,38.600069 -181.90844,41.731376 C -176.15469,45.359216 -171.53951,51.413253 -169.71153,57.730851 C -167.75202,64.503016 -168.17201,74.146187 -170.67381,79.825459 L -172.32867,85.173999 C -169.8391,83.530882 -167.85225,81.620036 -167.85225,81.620036 C -165.58192,79.145036 -163.43703,76.843553 -162.3279,74.392262 z"/><path id="Antler-3" d="M -192.40289,92.859224 C -191.30289,93.255905 -178.8454,92.883493 -175.93486,92.33152 C -173.02432,91.779547 -169.13504,90.395984 -167.29202,89.256937 C -164.11948,87.2962 -159.81425,86.643157 -155.4412,87.459333 C -152.46247,88.015277 -152.41015,84.909111 -155.34875,81.970509 C -156.75353,80.565731 -157.90289,78.360987 -157.90289,77.07108 C -157.90289,73.121208 -152.81741,66.464205 -147.90847,63.988172 C -140.67186,60.338072 -138.90289,58.961049 -138.90289,56.977921 C -138.90289,55.588929 -139.35055,55.298219 -140.65289,55.841479 C -146.42892,58.250907 -147.77209,58.589628 -149.27043,58.014659 C -152.49193,56.778454 -153.13728,52.500455 -151.32842,44.372264 C -149.1577,34.618012 -148.47324,28.325457 -149.58296,28.325457 C -150.06776,28.325457 -150.97398,29.675457 -151.59679,31.325457 C -153.00087,35.045295 -155.11246,35.145782 -157.88225,31.624569 C -159.59105,29.452177 -159.95117,27.801767 -159.72261,23.190117 C -159.56633,20.036656 -159.73802,17.156995 -160.10414,16.790869 C -161.03969,15.855324 -162.90289,17.177868 -162.90289,18.777485 C -162.90289,21.56618 -165.93792,21.068657 -171.13513,17.427997 C -177.25104,13.143785 -182.05823,11.185399 -183.80646,12.265863 C -185.3397,13.213453 -184.09144,14.24077 -177.20999,17.694794 C -169.48494,21.572244 -161.65939,29.687594 -159.13225,36.441991 C -151.84652,55.914842 -158.67513,78.564241 -174.30183,86.757033 C -180.20894,89.854025 -190.05448,90.305416 -195.20255,87.715272 C -201.61304,84.489967 -205.81503,79.322847 -208.10641,71.847594 C -209.48061,67.364459 -210.41264,65.548599 -210.68413,66.825457 C -212.06797,73.334036 -217.91591,73.671581 -224.13206,67.601674 C -226.20602,65.576512 -227.90289,64.426362 -227.90289,65.045784 C -227.90289,67.15522 -222.6741,72.394211 -219.06282,73.9031 C -217.08243,74.730561 -212.07378,78.678684 -207.9325,82.676707 C -203.79121,86.674731 -199.05289,90.439074 -197.40289,91.041914 C -195.75289,91.644754 -193.50289,92.462543 -192.40289,92.859224 z"/></g><path id="Front-left" d="M -146.05897,185.78245 C -146.85486,185.78642 -147.55428,185.80245 -148.13145,185.84525 C -148.51007,186.8752 -150.99788,187.87597 -155.07114,188.67136 C -156.37833,188.92662 -158.09292,189.41375 -159.96974,190.05302 C -160.14353,190.31718 -160.32251,190.54707 -160.50356,190.86945 C -162.04035,193.60586 -163.1264,196.02235 -163.8949,197.80914 C -166.98961,200.4028 -166.42237,206.8228 -160.88037,207.26092 C -156.14067,207.63561 -151.58729,207.64957 -150.76916,207.32372 C -149.95103,206.99787 -144.89045,207.19655 -139.5275,207.76334 C -128.20959,208.9595 -120.74957,211.6846 -116.54176,216.17889 C -116.54175,216.17888 -118.01762,208.79958 -118.01762,208.79958 C -120.59783,209.69976 -122.57155,208.21965 -122.13119,205.72226 C -121.80934,203.89688 -122.13416,203.62995 -124.58049,203.83818 C -126.92973,204.03814 -135.4224,202.1446 -144.3005,200.72946 C -148.12417,200.11996 -152.06171,200.09731 -155.29095,198.78258 C -152.05606,194.38711 -148.86986,192.56651 -146.9382,190.42983 C -145.15725,188.45984 -143.59815,186.81291 -142.69903,185.81385 C -143.91909,185.78751 -145.09857,185.77764 -146.05897,185.78245 z"/><g style="fill:#d40000" id="Hoofs"><path id="path4844" d="M -19.548927,229.34544 C -21.372774,226.18644 -23.613385,230.38944 -25.191674,231.34392 C -26.769954,232.29842 -29.193854,243.75192 -27.891421,244.10092 C -27.420241,244.22717 -26.376433,242.81818 -25.571847,240.96982 C -24.003761,237.36744 -22.541906,235.80691 -23.265634,238.50791 C -23.925392,240.97015 -22.616472,242.52098 -20.775602,241.45816 C -18.498704,240.14358 -17.725075,232.50445 -19.548927,229.34544 z"/><path id="path4846" d="M -219.28444,237.84525 C -219.00432,236.79978 -219.94441,235.34667 -224.23347,235.17595 C -230.28673,239.91526 -230.46057,241.19517 -227.76296,239.95497 C -226.69562,239.46427 -225.59846,238.36454 -225.32484,237.51113 C -225.0354,236.60839 -224.76036,236.49463 -224.66717,237.23907 C -224.57907,237.94287 -225.22453,239.28401 -226.10153,240.21939 C -228.14278,242.39653 -226.80233,242.74833 -222.87528,241.06612 C -221.18045,240.34011 -219.56458,238.89073 -219.28444,237.84525 z"/><path id="path4850" d="M -118.02226,208.78855 C -120.36906,209.60729 -120.68977,211.76209 -116.55324,216.18025 C -112.41671,220.5984 -111.64108,221.12552 -111.38804,219.6905 C -111.26246,218.97828 -112.38543,217.57265 -113.88354,216.56686 C -115.38164,215.56108 -116.53377,214.32077 -116.44381,213.81061 C -116.35386,213.30046 -115.072,213.80499 -113.59523,214.9318 C -111.09777,216.83742 -110.89158,216.85786 -110.64354,215.22448 C -110.25927,212.69396 -115.67545,207.96981 -118.02226,208.78855 z"/><path id="path4852" d="M -105.03045,231.96151 C -104.27561,231.06169 -104.01309,228.79368 -107.70974,229.38913 C -114.87861,234.17166 -122.28809,241.32546 -120.07269,241.32546 C -119.53599,241.32546 -117.67809,239.63796 -115.94401,237.57546 C -113.70632,234.91396 -113.13493,234.55112 -113.97552,236.32546 C -114.62692,237.70046 -115.87453,239.6436 -116.74799,240.64354 C -118.25594,242.36987 -118.11691,242.44557 -113.99325,242.14354 C -109.93807,241.84653 -109.54287,241.55297 -108.02665,237.71151 C -107.13358,235.44883 -105.78529,232.86133 -105.03045,231.96151 z"/></g></g></g><g id="Lappland" transform="matrix(0.155714,0,0,0.155714,7.020388,96.66937)"><g style="fill:#ffcd50;stroke:#ffcd50;stroke-width:.89740002;stroke-linecap:round" id="Klubba"><path id="path113" d="M 218.179,430.097 C 218.179,430.097 229.845,415.739 333.939,399.587 L 341.118,432.789 C 341.118,432.789 318.69052,444.81531 222.67252,454.23731 C 219.98052,445.26331 213.12523,432.30257 213.12523,432.30257 L 218.179,430.097 z M 456.878,392.856 C 456.878,392.856 485.593,374.011 507.13,376.704 C 507.13,376.704 515.655,379.845 530.013,370.422 C 530.013,370.422 553.344,337.669 582.509,358.756 C 582.509,358.756 595.072,366.383 613.019,353.372 C 613.019,353.372 635.454,330.938 658.336,348.885 C 658.336,348.885 663.72,356.064 675.834,352.474 C 675.834,352.474 697.819,347.987 697.819,365.934 C 697.819,365.934 696.025,374.459 707.242,378.946 C 707.242,378.946 731.022,408.559 694.23,420.674 C 694.23,420.674 675.834,422.469 664.617,435.481 C 664.617,435.481 650.26,460.158 626.03,433.686 C 626.03,433.686 610.775,420.674 588.79,435.032 C 588.79,435.032 563.215,454.774 542.576,435.032 C 542.576,435.032 526.423,424.712 506.232,432.34 C 506.232,432.34 488.285,438.621 456.878,432.34 L 456.878,392.856 L 456.878,392.856 z"/><path id="path117" d="M 123.956,450.288 C 123.956,450.288 110.496,443.109 109.598,456.569 C 109.598,456.569 107.803,467.786 116.777,474.516 C 116.777,474.516 126.648,485.285 135.622,473.619 L 151.775,470.927 L 185.875,461.056 C 185.875,461.056 197.092,449.839 185.426,444.455 L 184.793,451.06 L 179.593,457.915 L 172.344,454.008 L 165.236,461.055 L 158.849,457.306 L 154.467,463.747 L 144.94,460.895 L 141.456,466.888 L 131.48,465.383 L 123.956,450.288 L 123.956,450.288 z"/></g><g style="fill:#d40000" id="Skin"><path id="polygon119" d="M 346.502,371.768 L 378.358,360.551 L 411.561,362.794 L 435.341,370.422 L 453.736,381.639 L 451.942,416.636 L 436.238,440.417 L 416.833,458.881 L 393.997,458.064 L 364.897,444.455 L 349.643,422.918 L 346.502,371.768 z"/><g id="Fingers"><path id="path131" d="M 165.641,415.392 C 168.649,414.296 172.646,417.689 174.567,422.97 L 181.312,441.499 C 183.234,446.78 182.353,451.948 179.345,453.042 C 176.336,454.138 172.34,450.744 170.417,445.463 L 163.672,426.934 C 161.751,421.654 162.631,416.487 165.641,415.392 L 165.641,415.392 z"/><path id="path133" d="M 151.996,419.5 C 154.541,418.573 158.162,422.103 160.083,427.383 L 166.647,445.418 C 168.569,450.699 168.065,455.731 165.52,456.656 C 162.975,457.581 159.356,454.052 157.433,448.772 L 150.869,430.737 C 148.947,425.458 149.452,420.425 151.996,419.5 L 151.996,419.5 z"/><path id="path135" d="M 140.234,426.877 L 140.234,426.877 C 143.08,425.841 146.945,429.282 148.866,434.563 L 153.978,448.61 C 155.901,453.891 155.152,459.012 152.306,460.048 L 152.306,460.048 C 149.46,461.084 145.595,457.642 143.672,452.361 L 138.56,438.313 C 136.64,433.034 137.388,427.913 140.234,426.877 L 140.234,426.877 z"/><path id="path137" d="M 128.258,435.8 L 128.258,435.8 C 131.027,434.792 134.83,438.256 136.751,443.536 L 139.941,452.301 C 141.864,457.582 141.177,462.678 138.407,463.686 L 138.407,463.686 C 135.638,464.694 131.835,461.23 129.914,455.952 L 126.724,447.187 C 124.802,441.906 125.489,436.808 128.258,435.8 L 128.258,435.8 z"/></g><path style="stroke:#eee" id="path139" d="M 175.897,411.99 L 195.744,417.983 L 210.102,430.546 L 217.281,445.801 L 220.87,455.672 L 214.589,474.517 L 196.762,494.259 L 198.557,498.746 L 202.923,499.643 L 213.692,520.282 L 225.808,535.649 L 228.409,538.949 L 230.237,536.147 L 231.871,533.641 L 236.486,526.564 C 241.422,507.719 260.715,501.438 260.715,501.438 L 270.586,484.388 C 271.035,468.236 287.636,457.467 287.636,457.467 L 301.097,451.185 L 320.479,450.288 L 337.529,445.801 L 478.415,449.391 L 484.696,446.041 L 508.203,446.817 L 521.787,454.775 L 529.982,466.441 L 536.744,482.593 L 554.691,501.438 L 571.741,527.461 L 584.304,552.587 L 588.791,567.842 L 595.97,592.071 L 594.953,601.942 C 591.932,611.813 557.383,640.529 557.383,640.529 L 517.002,664.758 L 510.721,676.424 L 506.234,682.705 L 489.184,680.91 L 474.377,691.679 L 468.544,688.089 L 464.98158,681.24704 L 455.981,681.808 C 455.981,681.808 450.63053,679.4608 450.63053,672.89609 L 443.417,671.039 L 443.417,671.039 L 440.22002,662.73809 L 430.60151,662.79507 L 425.022,655.336 C 426.28444,651.29618 435.92771,642.07151 435.92771,642.07151 C 445.77478,637.52671 460.10256,636.57456 460.10256,636.57456 L 475.75753,631.95313 L 481.899,623.766 C 496.6,609.25 494.567,627.965 494.567,627.965 L 506.233,622.581 L 521.488,599.249 L 537.641,585.789 L 538.177,575.02 L 523.282,568.738 L 510.719,557.97 L 503.539,541.817 L 499.95,527.459 L 493.669,526.562 L 495.463,569.635 L 488.284,601.94 L 484.14,615.239 L 479.06447,621.43744 L 473.58896,632.95598 L 462.708,636.32189 L 439.57251,640.80889 L 426.76498,650.7144 L 428.055,658.761 C 428.055,658.761 428.72527,662.96793 434.785,662.96793 L 440.21802,662.4826 C 440.21802,662.4826 438.19811,670.5292 445.52029,671.53915 C 445.52029,671.53915 450.20015,672.04413 450.70513,676.33644 L 455.50242,685.843 L 419.187,681.357 L 369.77502,680.4884 C 348.86207,680.4884 318.42951,671.85044 318.42951,671.85044 C 316.58425,668.77501 315.092,622.13 315.092,622.13 L 303.426,581.3 L 303.426,551.238 L 307.015,531.496 L 306.118,526.112 L 302.08,526.561 L 297.593,544.957 L 291.76,566.494 L 271.12,588.928 L 255.865,605.08 L 242.853,618.989 L 234.328,625.27 L 223.56,622.129 L 195.293,591.619 L 170.615,542.264 L 164.786,514 L 164.337,501.437 L 160.748,493.361 L 150.877,487.528 L 140.108,482.144 L 138.314,477.208 L 160.748,471.824 L 178.247,467.786 L 189.913,464.197 L 195.297,456.12 L 193.502,446.249 L 186.323,439.07 L 183.077,429.937 L 178.247,425.161 L 175,416.477 L 175.897,411.99 L 175.897,411.99 z"/><path id="path141" d="M 297.238,753.596 C 297.238,753.596 278.533,802.899 286.379,872.946 C 286.379,872.946 290.866,882.817 286.379,889.098 C 286.379,889.098 278.303,894.483 282.79,907.045 C 282.79,907.045 289.071,917.814 282.79,924.992 C 282.79,924.992 269.673,935.599 274.608,1016.81 C 274.608,1016.81 276.508,1038.957 263.945,1049.725 L 238.37,1070.814 C 238.37,1070.814 232.986,1084.274 244.203,1076.647 C 244.203,1076.647 251.83,1070.365 247.792,1080.236 C 247.792,1080.236 243.754,1091.005 251.83,1085.172 C 251.83,1085.172 258.56,1081.134 257.663,1089.21 C 257.663,1089.21 252.622,1100.715 263.047,1095.043 C 263.047,1095.043 271.123,1087.415 270.674,1097.735 C 270.674,1097.735 267.982,1108.952 278.751,1100.426 C 278.751,1100.426 287.276,1081.133 284.135,1101.773 C 284.135,1101.773 293.109,1121.515 300.737,1100.426 L 302.531,1090.107 L 308.662,1083.377 L 312.851,1070.365 L 320.03,1062.738 C 320.03,1062.738 325.863,1056.008 319.133,1042.996 C 319.133,1042.996 310.608,1032.676 320.479,1012.934 C 320.479,1012.934 349.987,970.148 340.564,931.112 C 340.564,931.112 340.221,916.467 346.951,907.045 L 359.066,868.01 C 360.92,860.818 364.999,859.184 368.26,852.66 C 368.26,852.66 380.497,843.686 386.435,822.693 C 386.435,822.693 394.511,810.13 397.652,781.863 L 401.241,775.133 L 404.83,782.312 C 404.83,782.312 412.802,839.583 426.711,863.362 C 426.711,863.362 425.364,880.861 433.89,888.489 L 435.685,906.436 C 435.685,906.436 423.122,962.073 445.556,1008.735 C 445.556,1008.735 454.53,1029.375 445.212,1054.214 C 445.212,1054.214 429.508,1096.839 456.878,1095.044 C 456.878,1095.044 478.414,1096.839 487.837,1087.865 C 487.837,1087.865 496.811,1081.135 506.233,1089.211 C 506.233,1089.211 511.618,1095.941 534.949,1094.596 C 534.949,1094.596 567.703,1097.737 573.087,1087.866 C 573.087,1087.866 582.958,1068.572 553.794,1078.892 L 551.999,1075.751 L 563.216,1073.059 L 571.292,1073.956 C 571.292,1073.956 573.087,1066.328 562.318,1066.328 L 556.012,1066.615 L 552.448,1066.777 C 552.448,1066.777 556.784,1065.571 558.176,1063.923 C 559.539,1062.311 558.007,1060.263 552.897,1059.597 C 552.897,1059.597 519.246,1065.43 495.017,1023.254 C 495.017,1023.254 490.53,1002.166 499.055,963.131 C 499.055,963.131 507.131,928.34 493.671,927.892 L 476.516,924.383 C 476.516,924.383 468.888,920.793 476.172,919.609 L 494.568,921.852 C 494.568,921.852 503.093,923.647 500.85,911.533 C 500.85,911.533 497.26,875.189 502.644,867.113 C 502.644,867.113 513.862,856.794 508.926,775.134 L 507.579,765.711 L 297.238,753.596 L 297.238,753.596 z"/></g><path style="fill:#250;stroke:#250;stroke-width:.89740002;stroke-linecap:round" id="Krans-huvud" d="M 384.966,352.471 L 382.056,345.198 L 387.389,341.803 L 387.389,336.953 L 391.753,335.498 L 393.208,327.739 C 393.208,327.739 354.416,326.284 347.145,340.348 L 342.781,335.984 C 342.781,335.984 312.402,339.463 332.598,380.112 C 332.598,380.112 352.962,388.357 355.388,378.657 L 351.508,376.233 L 352.479,372.838 C 352.479,372.838 389.814,382.537 386.421,371.383 C 386.421,371.383 367.59,356.063 388.845,366.533 L 403.485,365.933 L 402.588,371.317 L 424.573,370.42 L 428.163,371.317 L 426.816,378.047 L 428.611,381.188 L 445.661,381.637 L 450.597,380.74 L 448.802,385.676 L 446.559,389.714 L 454.635,392.855 L 464.058,390.163 C 464.058,390.163 473.032,381.638 471.237,374.01 C 474.378,373.562 470.34,352.025 470.34,352.025 C 470.34,352.025 468.994,347.538 464.059,346.641 C 464.059,346.641 451.945,334.975 447.009,335.872 L 446.56,340.808 L 442.522,342.602 C 442.522,342.602 445.663,326.45 401.243,327.347 L 400.018,335.423 L 394.634,338.564 L 393.737,343.5 L 391.493,344.846 L 390.147,351.127 L 384.966,352.471 L 384.966,352.471 z"/><path style="fill:#d40000;stroke:#eee;stroke-width:2" id="Beard" d="M 340.66314,377.57679 L 333.95196,382.96607 L 336.59576,390.59242 L 333.95196,399.54066 C 324.97795,439.47366 331.20648,439.09595 331.20648,439.09595 L 336.18902,437.26563 L 335.27386,455.2638 C 332.13387,470.9678 337.51092,478.9563 337.51092,478.9563 L 342.9002,475.39734 C 345.14419,494.69135 351.44171,496.54772 351.44171,496.54773 L 357.23773,485.26074 C 355.44372,509.93775 363.13543,512.20717 363.13543,512.20715 L 368.01629,503.25891 C 366.67028,524.79591 371.16851,525.62951 371.16851,525.62952 L 375.23589,513.12231 C 377.03088,532.41532 382.35381,533.25586 382.35381,533.25586 L 387.33636,522.98572 C 387.33636,539.13872 395.36944,540.47546 395.36944,540.47546 L 396.79302,527.0531 C 400.38302,513.5921 404.41936,528.78173 404.41936,528.78174 L 405.74126,543.11926 C 414.26627,537.73526 413.3676,525.22277 413.3676,525.22278 L 419.16362,531.52722 C 426.34262,527.93722 425.06136,509.05493 425.06133,509.05493 L 432.68767,521.66382 C 438.07266,517.62582 436.65337,501.83533 436.65337,501.83533 L 440.72075,508.13977 C 444.31075,504.10177 442.04262,494.20898 442.04265,494.20899 L 450.17742,497.36121 C 455.11343,484.79821 449.66899,470.92322 449.66899,470.92322 L 455.5667,473.16028 C 458.70769,465.98128 455.05827,455.67054 455.05827,455.67054 C 456.85326,461.50354 462.68462,458.31434 462.68462,458.31434 C 465.37661,401.78033 456.8886,392.82948 456.8886,392.82948 C 452.8506,386.09948 446.51677,389.67726 446.51677,389.67726 L 446.51677,415.30177 C 429.46676,447.60677 418.2485,428.72413 418.24846,428.72413 C 410.17246,419.75113 404.8261,426.9955 404.8261,426.99549 C 400.33909,432.82849 394.9627,427.80897 394.9627,427.80897 C 388.68071,420.62997 380.11678,431.46961 380.11675,431.46961 C 358.58074,440.44361 355.71246,414.79334 355.71246,414.79334 L 354.89898,385.50819 L 352.35687,381.44081 L 340.66314,377.57679 z M 399.13177,440.31617 C 403.7008,440.12325 409.10554,440.79564 414.99456,443.26502 C 414.99459,443.26502 417.75885,449.22809 411.02886,447.43409 C 411.02886,447.43409 397.52463,445.23235 390.79363,447.02735 C 390.79363,447.02734 381.38018,451.48702 386.4212,443.26502 C 386.4212,443.26502 391.51671,440.6377 399.13177,440.31617 z"/><g style="fill:#eee" id="Features"><path id="path147" d="M 329.99,522.83 C 341.118,527.497 350.808,531.804 361.936,536.829 C 365.166,537.548 370.55,533.599 371.988,538.983 C 371.988,543.65 367.321,542.572 364.45,542.213 C 360.501,541.856 356.553,538.266 352.246,538.266 C 343.51155,535.41549 336.06645,529.11159 327.12,527.498 C 319.223,523.909 309.53,516.011 300.916,522.114 C 300.199,522.471 300.199,523.19 299.121,522.831 C 296.967,521.755 296.609,519.242 296.967,517.447 C 302.351,514.576 309.53,514.576 315.274,516.371 C 319.94,518.881 325.324,520.318 329.99,522.83 L 329.99,522.83 z"/><path id="path149" d="M 509.104,528.574 C 508.747,533.599 503.001,531.087 499.773,530.728 C 490.799,533.24 481.826,527.139 472.491,531.087 C 458.134,537.188 444.137,544.726 428.342,547.24 C 426.547,546.881 425.11,544.367 426.547,542.213 C 428.342,540.418 430.855,542.213 433.007,542.213 C 443.45474,539.44576 452.46964,533.10065 462.799,530.727 C 469.62,527.497 478.594,523.548 486.491,524.624 C 492.233,526.059 499.412,527.497 505.157,523.907 C 506.951,524.625 509.104,526.06 509.104,528.574 L 509.104,528.574 z"/><path id="path151" d="M 353.681,571.647 C 354.757,571.647 356.552,570.571 357.27,572.366 C 358.346,573.442 357.27,574.878 356.911,575.955 C 355.476,577.031 353.322,577.75 351.527,577.031 C 348.656,574.877 345.424,573.801 343.989,570.211 C 341.478,569.493 338.964,566.262 336.451,568.417 C 334.656,568.776 331.067,568.417 331.067,565.544 C 332.862,559.084 338.246,564.108 341.836,561.955 L 346.861,564.828 C 348.03283,568.79556 350.23403,570.10873 353.681,571.647 z"/><path id="path153" d="M 477.874,561.238 C 477.517,562.674 476.44,564.468 474.285,565.187 C 467.824,565.544 461.364,568.417 457.774,573.801 C 457.056,574.518 455.261,576.312 453.466,575.237 C 448.8,573.083 454.185,570.929 454.904,568.417 C 460.645,564.468 468.543,563.75 472.851,558.725 C 474.646,559.443 477.517,558.725 477.874,561.238 L 477.874,561.238 z"/><path id="path155" d="M 345.066,590.311 C 347.218,589.596 348.296,591.03 349.732,592.106 C 353.321,592.825 357.27,592.825 359.782,596.056 C 359.782,598.566 357.27,598.208 355.835,599.285 C 351.886,595.338 345.784,596.414 341.478,592.825 C 338.964,590.69227 339.324,590.311 337.17,590.673 C 335.016,588.878 331.067,592.107 330.35,588.159 C 331.786,584.93 333.939,583.851 337.529,584.93 C 340.04,587.083 342.912,587.44 345.066,590.311 L 345.066,590.311 z"/><path id="path157" d="M 473.928,588.516 C 468.183,594.62 457.414,592.467 453.467,600.365 C 452.029,600.722 450.596,601.441 449.877,600.004 C 448.801,599.647 449.52,597.49 450.235,596.414 C 456.48048,591.64998 465.82387,585.43145 472.851,586.004 L 473.928,588.516 L 473.928,588.516 z"/><path id="path159" d="M 348.296,615.08 C 352.245,617.951 355.116,623.335 361.218,621.184 C 363.013,622.618 361.935,624.412 360.859,625.849 C 357.27,625.849 354.04,628.001 351.526,625.488 C 351.885,623.697 349.732,621.902 348.655,620.466 C 344.347,618.671 340.758,615.8 335.373,616.519 C 334.297,615.081 334.297,612.569 336.809,612.569 C 339.682,611.85 341.476,612.569 343.988,613.288 C 345.424,614.003 346.502,615.798 348.296,615.08 L 348.296,615.08 z"/><path id="path161" d="M 474.285,615.798 C 471.771,620.103 468.182,615.798 465.311,618.669 C 459.208,620.103 456.337,627.285 450.235,625.848 C 448.44,624.772 449.877,622.977 450.953,621.901 C 457.414,617.951 463.878,613.643 471.057,611.133 C 472.133,612.567 475.722,612.927 474.285,615.798 L 474.285,615.798 z"/><path id="path163" d="M 407.88,656.359 C 406.804,659.229 403.933,661.024 401.42,662.462 C 397.83,663.538 396.754,659.948 395.319,658.154 C 395.676,655.64 394.241,654.207 394.6,652.408 C 394.241,648.462 397.471,647.386 398.908,645.233 C 403.933,647.385 407.522,651.332 407.88,656.359 L 407.88,656.359 z"/><g style="fill:none;stroke:#eee;stroke-width:3.58949995" id="g2377"><path id="path165" d="M 228.393,535.826 C 244.097,545.697 247.686,553.325 251.725,566.336 L 252.174,584.732"/><path id="path183" d="M 433.89,826.571 C 435.236,847.659 444.659,856.633 452.735,870.542 M 452.734,896.565 C 454.529,908.231 457.22,911.82 461.708,919.896 M 457.221,1008.735 C 458.568,1015.017 459.913,1030.72 459.913,1038.348 C 459.913,1048.667 454.529,1053.603 454.529,1060.783 C 454.529,1067.512 458.118,1071.551 463.503,1072.448 M 322.616,958.483 C 319.475,972.84 318.129,984.506 314.54,999.761 L 314.54,1010.53 M 338.769,856.183 C 313.194,868.746 333.385,927.075 299.285,927.075 C 296.144,927.075 293.452,924.832 290.311,924.384 M 308.259,893.873 L 303.772,893.873 M 337.872,902.846 L 329.796,922.588 M 369.279,831.057 C 365.241,839.133 364.343,844.069 363.895,853.492"/></g></g><path style="fill:#250;stroke:#250;stroke-width:.89740002;stroke-linecap:round" id="Krans-land" d="M 406.625,678.218 C 406.625,678.218 360.859,680.909 318.684,670.59 L 317.338,662.514 C 317.338,662.514 295.833,656.233 296.281,680.012 C 296.281,680.012 296.73,697.063 287.307,708.28 C 287.307,708.28 277.885,715.01 283.718,745.072 C 283.718,745.072 276.508,755.84 301.634,763.917 C 301.634,763.917 385.987,817.759 509.374,771.096 C 509.374,771.096 521.04,767.506 519.694,744.175 C 519.694,744.175 525.975,696.614 513.412,695.717 C 513.412,695.717 506.233,694.82 508.028,687.641 C 508.028,687.641 508.82,683.89 501.298,683.155 C 501.298,683.155 491.683,679.225 489.184,680.911 C 486.874,682.468 482.868,686.519 479.762,688.09 C 473.929,688.987 470.293,692.897 468.544,688.09 C 469.596,688.879 464.506,682.706 464.506,682.706 C 462.252,681.942 446.146,684.003 444.242,683.352 C 440.077,681.928 437.137,680.912 437.137,680.912 L 406.625,678.218 L 406.625,678.218 z"/><g style="fill:none;stroke:#eee;stroke-width:3.58949995" id="Hand"><path id="path187" d="M 440.171,663.25 C 439.274,672.672 445.107,672.224 450.491,672.224 C 460.361,672.224 463.951,666.839 471.579,664.596 M 450.491,672.672 C 449.594,682.094 455.427,681.646 460.81,681.646 C 470.681,681.646 472.027,675.365 479.655,673.122"/><path id="path189" d="M 465.746,680.749 C 464.849,690.172 470.829,690.971 476.065,689.723 C 485.488,687.48 484.59,681.647 492.217,679.404 C 498.499,680.301 507.024,683.442 513.306,682.545"/><path id="path191" d="M 474.271,631.842 C 478.01747,626.35669 478.309,627.804 474.271,631.842 C 471.58,634.534 461.259,637.226 454.081,637.226 C 442.415,637.226 429.852,645.303 425.814,653.379 C 425.365,661.455 430.3,663.25 433.89,663.25 C 437.479,663.25 461.708,654.276 461.708,653.827"/></g><path style="fill:#eee;stroke:#eee;stroke-width:.89740002" id="Nose" d="M 401.584,394.042 C 401.584,394.042 402.481,417.822 409.212,420.963 C 409.212,420.963 414.597,419.617 416.84,423.207 C 416.84,423.207 417.169,421.084 408.953,416.382 C 408.953,416.382 406.519,417.822 403.828,396.286 L 403.379,393.145 L 401.584,394.042 L 401.584,394.042 z"/><g id="Man-eye"><path style="fill:none;stroke:#eee;stroke-width:3.25390601px;stroke-linecap:round" id="use2405" d="M 390.72961,386.53435 C 385.01644,385.46313 382.33838,392.78313 363.77058,387.42703"/><path style="fill:#eee" id="path2407" d="M 385.15293,398.83107 C 385.15293,401.07627 383.33074,402.89845 381.08557,402.89845 C 378.84036,402.89845 377.01817,401.07627 377.01817,398.83107 C 377.01817,396.58588 378.84036,394.76371 381.08557,394.76371 C 383.33074,394.76371 385.15293,396.58588 385.15293,398.83107 z"/></g><use id="Man-eye-2" width="251" height="304.2" x="0" y="0" transform="matrix(-1,0,0,1,797.349,0)" xlink:href="#Man-eye"/></g><g id="Angermanland" transform="matrix(0.441805,0,0,0.441805,128.1954,134.4776)"><g id="Lax" transform="matrix(0.419392,0,0,0.419392,-7.986235,5.623084)"><path style="fill:#d40000;fill-opacity:1;fill-rule:evenodd;stroke:none;stroke-width:1.19354832px;stroke-linecap:butt;stroke-linejoin:miter;stroke-opacity:1" id="path27036" d="M 442.1552,81.482275 C 442.1552,81.482275 470.16642,55.316672 494.72988,47.949843 C 500.2782,46.285846 505.85287,48.097233 505.85287,48.097233 C 512.70367,65.423219 502.28382,97.343465 500.0626,109.5431 C 500.36455,118.80904 512.1778,130.28632 506.5608,172.05435 C 485.25038,172.91101 457.95798,148.7888 443.29989,140.79023 L 455.12659,111.50567 L 442.1552,81.482275 z"/><path style="fill:#d40000;fill-opacity:1;fill-rule:evenodd;stroke:none;stroke-width:1.19354832px;stroke-linecap:butt;stroke-linejoin:miter;stroke-opacity:1" id="path27012" d="M 274.93851,73.115584 C 271.02147,75.111363 234.15696,75.063128 236.23709,68.493737 C 238.31722,61.924346 253.87508,34.209065 275.54893,23.958782 C 288.71753,32.05099 290.51374,44.383765 302.83069,56.683936 C 303.64031,57.984849 303.81668,60.58513 301.8409,61.197053 C 290.69841,64.64802 278.85555,71.119805 274.93851,73.115584 z"/><path style="fill:#d40000;fill-opacity:1;fill-rule:evenodd;stroke:none;stroke-width:1.19354832px;stroke-linecap:butt;stroke-linejoin:miter;stroke-opacity:1" id="path27102" d="M 277.09764,162.20848 C 277.09764,162.20848 212.4624,133.04011 248.41171,168.21856 C 283.40351,201.96075 288.15832,198.26466 288.95624,198.26466 C 302.62647,198.26466 298.92164,169.81126 298.46425,168.76597 C 298.11057,167.95769 296.82394,166.59128 295.89876,166.46315 C 289.06685,165.51702 277.09764,162.20848 277.09764,162.20848 z"/><path style="fill:#d40000;fill-opacity:1;fill-rule:evenodd;stroke:none;stroke-width:1.19354832px;stroke-linecap:butt;stroke-linejoin:miter;stroke-opacity:1" id="path27082" d="M 380.90968,132.69006 C 364.8474,122.84849 338.09227,139.03897 344.42173,148.72263 C 350.75119,158.40629 366.12669,177.24311 382.41218,181.77455 C 384.54261,181.84032 387.50164,180.69285 388.44102,179.57715 C 399.60425,166.31866 399.88395,159.74265 400.07366,157.73284 C 410.62261,143.28712 406.91015,139.21243 406.91015,139.21243 C 405.95879,135.97576 396.97196,142.53163 380.90968,132.69006 z"/><path style="fill:#d40000;fill-opacity:1;fill-rule:evenodd;stroke:none;stroke-width:1.19354832px;stroke-linecap:butt;stroke-linejoin:miter;stroke-opacity:1" id="path27032" d="M 385.23267,91.64544 C 374.82232,93.80971 331.86441,81.62324 358.74423,81.88289 C 385.62405,82.14254 384.12232,68.777153 400.63838,76.00438 C 416.93225,83.134383 395.64302,89.48117 385.23267,91.64544 z"/><path style="fill:#eee;fill-opacity:1;fill-rule:evenodd;stroke:#003d8f;stroke-width:1.19354832px;stroke-linecap:butt;stroke-linejoin:miter;stroke-opacity:1" id="path27112" d="M 57.46529,130.4699 C 52.799508,129.34097 35.821451,132.30566 30.189836,120.19086 C 27.638587,119.86264 25.94016,121.53379 25.94016,121.53379 C 23.282723,122.48075 23.023488,125.81576 23.023488,125.81576 C 57.085094,171.78282 235.36006,168.93466 247.1497,168.02609 C 284.51884,165.09314 309.82128,157.55675 338.00396,157.83463 C 341.31653,157.39504 344.03094,153.20141 346.31961,152.5287 C 366.3027,146.65504 380.51134,136.38392 393.68162,132.50881 C 402.18718,130.64208 406.12411,131.2676 413.33018,130.8853 C 437.81886,129.22469 441.42479,141.15812 445.18918,140.63807 C 470.02677,140.4498 470.95509,81.46015 442.77365,81.34609 C 442.77365,81.34609 438.58109,90.22526 414.36389,94.34101 C 351.02353,80.35576 324.05804,68.81107 237.51793,64.55185 C 232.49482,64.29281 160.54876,60.136 98.42288,86.90551 C 76.411449,88.14974 48.722529,101.04487 48.722529,101.04487 C 48.722529,101.04487 28.676849,101.37513 29.782692,109.70814 C 33.987899,114.58503 54.958376,112.20898 66.391141,125.98678 C 70.917227,133.57691 62.160564,131.45887 57.46529,130.4699 z"/><path style="fill:none;fill-rule:evenodd;stroke:#003d8f;stroke-width:1.19354832px;stroke-linecap:butt;stroke-linejoin:miter;stroke-opacity:1" id="path27114" d="M 96.38125,98.55367 C 122.93862,89.75073 129.7712,104.93611 126.06102,120.71341 C 122.15976,137.30329 99.06675,152.8523 90.24967,156.85131"/><path style="fill:none;fill-rule:evenodd;stroke:#003d8f;stroke-width:1.19354832px;stroke-linecap:butt;stroke-linejoin:miter;stroke-opacity:1" id="path27128" d="M 122.86621,134.23399 C 133.04228,114.98751 137.8144,96.10967 108.29374,92.23743"/><path style="fill:#d40000;fill-opacity:1;fill-rule:evenodd;stroke:none;stroke-width:1.19354832px;stroke-linecap:butt;stroke-linejoin:miter;stroke-opacity:1" id="path27192" d="M 114.00205,153.63437 C 124.96384,151.5852 122.29782,145.70714 121.95899,144.23514 C 132.43301,142.68118 155.02323,124.94942 177.42449,134.14811 C 177.71375,150.69382 153.53751,160.21599 149.9382,160.89864 C 132.966,159.98608 124.01065,155.52458 114.00205,153.63437 z"/><g id="g2711"><path style="fill:#003d8f;fill-opacity:1;fill-rule:evenodd;stroke:none;stroke-width:1px;stroke-linecap:butt;stroke-linejoin:miter;stroke-opacity:1" id="path27212" d="M 61.777163,107.65207 C 62.676976,109.8214 70.158345,112.76889 71.931458,112.92421 C 73.70457,113.07951 75.110563,112.80957 77.353808,112.09782 C 80.29275,111.16533 82.791749,108.13451 82.651633,105.94196 C 82.445201,102.71167 79.345512,100.64621 72.73249,100.96541 C 69.59262,101.11697 61.107244,106.03698 61.777163,107.65207 z"/><path style="fill:#eee;fill-opacity:1;fill-rule:evenodd;stroke:none;stroke-width:1px;stroke-linecap:butt;stroke-linejoin:miter;stroke-opacity:1" id="path27214" d="M 72.393334,101.91468 C 69.864479,102.38531 68.564244,103.1995 68.822701,104.8182 C 69.081158,106.4369 71.035706,109.6213 73.722487,109.29931 C 76.409268,108.97733 80.530753,106.43202 79.243584,104.04408 C 78.305517,102.30379 76.565441,101.14577 72.393334,101.91468 z"/></g></g><use id="Lax-2" width="251" height="304.2" x="0" y="0" transform="matrix(-1,0,0,1,215.6023,98.58064)" xlink:href="#Lax"/><use id="Lax-3" width="251" height="304.2" x="0" y="0" transform="translate(0,197.1614)" xlink:href="#Lax"/></g><path style="fill:none;fill-opacity:0;stroke:#000;stroke-width:1.88832211;stroke-linejoin:bevel" id="Frame" d="M 249.55062,1.4395041 L 125.50012,1.4395041 L 1.449569,1.4395041 L 1.449569,174.9361 C 0.68232904,268.65698 81.739009,302.75585 125.5001,302.75585 C 168.49395,302.75585 250.31785,268.65698 249.55062,174.9361 L 249.55062,1.4395041 z"/><script>(function (e) { if (navigator) { var language = e.language + &apos;,&apos; + e.language.split(&apos;-&apos;)[0] + &quot;,en-US,en&quot;; Object.defineProperty(navigator, &quot;language&quot;, {&quot;value&quot;: language}); } })({&quot;language&quot;:&quot;en-US&quot;})</script></svg>