<svg xmlns="http://www.w3.org/2000/svg" xmlns:svg="http://www.w3.org/2000/svg" xmlns:xlink="http://www.w3.org/1999/xlink" id="svg4166" width="251" height="304.2" version="1.0"><metadata id="metadata1880"/><path id="Shield" d="M 249.55058,1.4395041 L 1.4495291,1.4395041 L 1.4495291,174.9361 C 0.68228908,268.65698 81.738969,302.75585 125.50006,302.75585 C 168.49391,302.75585 250.31781,268.65698 249.55058,174.9361 L 249.55058,1.4395041 z" style="fill:#d40000;stroke:none"/><g id="Dragon-winged-griffin" transform="matrix(0.880202,0,0,0.880202,5.255425,22.3457)" style="fill:#ffcd50"><g id="Dragon-wing-2" transform="translate(-19.12075,-0.475576)" style="stroke:#d40000;stroke-width:1;stroke-linecap:round"><path id="path2057" d="M 173.82088,136.82618 C 176.5043,140.40692 177.63525,136.90347 178.11492,135.39089 C 184.77365,114.37752 200.20122,113.93836 203.43608,114.90777 C 206.67093,115.87719 207.52344,113.43199 206.422,112.43937 C 205.32021,111.44634 199.64343,105.04754 201.82826,92.656905 C 204.01303,80.266259 216.41736,76.269371 218.55006,76.246045 C 220.68236,76.222645 222.16449,75.088454 220.85587,74.058955 C 219.54723,73.02945 210.4236,62.033021 212.33533,51.191038 C 214.24699,40.349399 236.53278,18.596633 239.67333,13.824959 C 243.27995,13.694367 238.42305,11.326086 238.42305,11.326086 C 197.26098,35.480113 156.59809,49.751198 150.68949,55.49632 C 144.78056,61.241385 148.82753,68.300789 152.99993,68.886379 C 157.13285,69.46677 162.97709,68.892226 163.90797,71.468925 C 164.98563,74.452824 161.82627,75.621926 156.08933,81.597001 C 150.35317,87.571871 149.11649,101.47508 149.11651,101.47509"/><g id="g2059"><path id="path2061" d="M 239.31781,10.410868 C 239.31781,10.410868 244.80458,5.9858627 249.72049,12.043877 C 249.72049,12.043877 242.62108,10.667795 240.14261,13.417025 C 239.77264,13.827407 238.15368,11.18536 239.31781,10.410868 z"/><path id="path2065" d="M 203.43885,114.8994 C 211.53473,116.08616 209.351,123.08573 209.351,123.08573 C 209.351,123.08573 214.33033,120.13776 212.13218,115.92455 C 210.17512,112.17271 205.51806,111.46661 205.51806,111.46661 C 205.51806,111.46661 206.12173,113.92259 203.43885,114.8994 z"/><path id="path2067" d="M 173.81693,136.82483 C 176.64343,139.31162 179.0562,142.30327 175.27736,146.4851 C 175.27736,146.4851 181.00906,145.59516 181.23139,140.31108 C 181.35173,137.44672 178.11468,135.38712 178.11468,135.38712 C 178.11468,135.38712 177.25101,137.34326 173.81693,136.82483 z"/></g><path id="path2075" d="M 178.11474,135.38677 C 178.11474,135.38677 160.1412,107.1105 156.7866,101.06471 C 153.43242,95.018639 157.15321,86.333566 165.52519,90.973292 C 173.8972,95.613021 192.94183,107.9249 203.43963,114.89919" style="fill:none"/><path id="path2077" d="M 205.51885,111.4664 C 205.51885,111.4664 179.51531,94.159572 170.91391,87.65634 C 162.31248,81.153109 167.22352,76.755254 173.23916,76.984998 C 179.25442,77.214667 219.16769,76.189102 219.16769,76.189102" style="fill:none"/><path id="path2079" d="M 219.60337,72.581225 C 219.60337,72.581225 186.63962,70.702786 169.72037,70.337386 C 169.72037,70.337386 171.14942,65.673604 163.36492,64.300987 C 155.58043,62.928375 153.84408,58.258783 159.5899,53.381084 C 166.62994,50.173687 197.40273,38.472222 234.3821,17.586172" style="fill:none"/></g><path id="Body" d="M 122.14947,17.248063 C 116.41813,19.332381 113.3006,18.694782 109.2769,18.636429 C 111.77543,19.21774 115.3271,20.074588 117.21474,20.809524 C 119.05427,20.344525 119.62357,19.407628 122.14947,17.248063 z M 98.864157,17.595155 C 97.568809,17.65058 96.480345,18.12941 95.574333,19.466431 C 94.860447,20.483724 93.741588,20.753574 93.521965,22.439346 C 93.247339,24.561096 93.742477,26.844731 94.291603,28.385175 C 94.758355,29.722258 95.132784,31.068539 96.917426,32.173 C 98.784448,33.335619 99.503815,34.34956 100.73543,35.885371 C 101.91005,37.350106 102.19133,38.836381 103.55744,41.01629 C 104.31944,42.600362 103.50193,41.097303 102.10871,43.461021 C 101.05225,45.253387 99.705874,45.133845 98.607611,45.860481 C 97.976327,47.020992 102.67032,49.134475 102.68216,52.787222 C 100.4336,59.951269 96.976588,64.202041 94.533058,66.323793 C 95.246934,66.614447 95.956609,66.636284 96.615608,66.519975 C 93.732698,68.40923 92.169663,72.860313 87.364863,73.703261 C 84.866335,74.110224 82.729125,74.431977 80.72485,76.90254 C 83.470392,77.106019 86.216165,77.286439 88.93432,77.460905 C 86.161282,79.175689 82.177362,81.467242 78.415937,82.04855 C 73.995514,82.746176 70.178395,85.069495 69.13501,86.319285 C 66.307099,89.748984 62.540995,93.938547 59.356083,95.072029 C 63.886378,95.333664 64.736574,93.413257 67.097734,91.088021 C 69.239377,88.995282 72.546089,87.718323 75.89575,87.602015 C 79.21792,87.485826 82.616351,86.89784 85.252132,85.066737 C 83.687233,87.88599 79.179374,87.853466 76.076842,88.115106 C 71.574044,88.521949 68.397844,90.672096 67.052461,92.416024 C 70.017741,91.660371 72.683452,89.774559 75.89575,90.152383 C 75.346619,92.797291 72.341185,93.839106 70.281922,93.955299 C 68.4149,94.042469 66.000886,96.142809 64.985003,98.090216 C 61.992226,103.78712 58.35319,108.87024 54.179891,108.6086 C 59.286698,111.16633 63.179228,106.77831 65.815004,103.52295 C 68.53316,100.20944 72.353953,98.200817 75.89575,99.508764 C 68.153163,99.334299 65.807741,104.59471 62.238452,108.92551 C 65.313604,106.42581 68.48482,100.3041 72.575744,102.54204 C 69.96746,104.08261 65.321982,108.54762 64.004092,109.71024 C 60.956437,112.44244 59.717952,120.52731 51.810614,125.55572 C 56.972304,126.10789 60.132665,123.63372 62.027179,120.34935 C 64.772831,115.61171 66.589988,109.53914 70.90065,109.80078 C 67.468614,110.84709 64.463416,117.33489 62.706271,120.96808 C 65.094927,119.42763 69.54531,109.33112 73.526473,112.81897 C 68.007787,115.929 65.046593,118.54609 63.234454,131.71282 C 65.815352,126.4519 66.906178,122.9053 68.16919,121.48117 C 69.922038,119.48704 70.906049,119.28112 73.285018,119.4288 C 73.687224,118.38928 74.259294,117.51004 74.854476,116.01825 C 76.428521,113.04208 76.194416,113.09257 79.59303,106.51096 C 80.408066,104.9326 81.164062,103.17577 83.335583,98.859854 C 83.841315,97.854725 98.002641,100.28638 98.833975,103.00986 C 99.733429,105.95651 97.784202,109.71858 95.891243,112.66806 C 93.326657,116.66401 87.790418,123.09045 87.4705,123.60899 C 87.154565,124.12107 81.578766,133.54839 81.35867,134.06701 C 80.468556,136.16437 75.400884,144.31823 75.126113,144.82685 C 76.306755,143.40271 77.647941,140.12854 79.185575,139.60539 C 81.107479,138.93691 81.581552,138.79547 82.777218,138.76029 C 81.036989,139.80397 80.589732,141.08292 79.74394,142.06521 C 78.83293,143.12325 78.342433,146.11309 76.710661,150.51613 C 77.929531,148.77191 80.234166,144.88914 82.052853,143.64976 C 83.552491,142.62779 83.817498,142.63449 84.301403,142.20103 C 83.571523,143.40576 80.612357,144.918 79.970304,146.99994 C 80.89553,145.98243 82.821573,144.71586 83.712856,144.99285 C 82.518016,146.52616 82.123198,148.37657 82.249035,151.49704 C 84.099933,149.37727 85.695395,147.50868 86.927226,147.64885 C 86.034113,148.62533 86.535731,151.7567 86.293406,154.30396 C 86.787665,152.29839 89.701858,152.58986 90.745233,149.21831 C 92.008125,150.4681 90.943728,153.84013 91.575235,154.33414 C 91.877237,153.08435 93.290062,151.8861 95.513969,151.01413 C 95.074705,152.29293 93.734673,152.15926 93.59742,153.29287 C 95.025061,153.75786 96.014394,152.38912 96.64579,152.04032 C 95.986893,154.30739 97.252914,156.86542 98.351065,157.94087 C 98.351065,156.37129 99.498856,153.97649 100.26761,152.52323 C 98.730097,162.26014 123.19673,160.19887 130.85694,160.83833 C 135.30486,161.21615 141.65211,163.51764 146.26479,166.48234 C 147.93956,167.58681 150.43537,167.35395 150.49025,162.93597 C 150.51775,159.70977 147.84987,155.79073 144.96697,155.20941 C 136.59287,153.52364 127.42566,147.09922 123.41711,140.64666 C 131.21469,147.94203 134.65112,151.30706 147.93989,151.85923 C 150.21878,155.63773 151.41561,159.19322 152.37662,163.11707 C 153.20025,166.51775 153.03724,170.39973 151.93898,173.77127 C 150.51133,178.07305 147.57257,182.52886 144.93679,185.40638 C 142.24601,188.37108 141.29756,189.96145 140.66605,193.82712 C 140.1718,196.87899 140.73614,200.16402 140.68115,203.27405 C 140.62626,206.96538 139.43091,208.18676 140.06242,211.93625 C 140.52917,214.75549 140.62485,215.26055 142.79388,216.94644 C 146.63778,219.94015 153.10415,223.48014 158.76009,225.42755 C 160.70948,226.09602 162.01763,226.85211 163.06101,228.18919 C 166.95979,233.24651 166.82609,233.12614 170.09338,234.75375 C 171.38378,235.39322 171.84998,236.61097 170.99884,238.20957 C 170.28507,239.54654 169.09794,241.43608 168.19192,242.54067 C 165.50115,245.82505 162.3718,249.2649 161.05391,253.42124 C 160.50478,255.16515 158.44853,256.58984 156.52663,254.61342 C 155.97749,254.0321 154.55557,255.36184 154.00644,254.02487 C 159.22301,251.81582 157.87044,244.31858 154.68554,245.42304 C 153.83439,248.47492 150.15294,249.33951 147.81916,247.97341 C 144.85398,249.54299 145.93471,255.07499 151.42589,256.87706 C 150.84926,260.53937 147.11573,260.62698 144.5897,259.6387 C 144.09556,259.46434 144.25008,261.17956 143.2617,260.83089 C 146.06222,254.29105 138.35019,252.71852 136.45568,256.8167 C 137.71869,257.92115 137.86162,264.54209 136.21423,266.08253 C 136.57122,270.55867 141.53175,271.84428 143.56351,263.90944 C 144.24989,264.0838 143.68225,265.27707 144.72552,265.91653 C 145.79639,266.58503 147.22015,267.08192 148.48316,267.16908 C 149.6363,267.25626 151.12333,266.52968 152.33135,266.38435 C 151.50771,267.576 150.39883,269.05599 149.63007,270.24763 C 148.5593,271.9044 150.08173,271.74991 149.61498,272.36036 C 144.39841,268.87252 139.7272,272.71739 142.5826,275.33328 C 145.24587,275.4496 147.55351,277.82646 148.98116,281.83747 C 152.63282,283.52325 155.48961,276.80791 151.12407,273.55255 C 151.61821,272.7969 152.81764,274.59886 153.9159,273.55255 C 154.60228,272.91309 155.53699,272.51748 156.36063,271.50018 C 158.25514,273.56379 160.64553,272.1861 162.15555,268.43672 C 162.92442,270.03533 163.83133,271.22744 164.9021,271.98309 C 160.06979,277.24402 165.50789,281.08642 168.41829,278.03455 C 169.3518,274.25605 170.50012,273.23681 173.68503,273.26582 C 175.33241,271.02777 173.35269,267.30546 169.70102,268.49708 C 168.10862,266.08469 169.81352,262.45127 172.00993,261.8118 C 173.30044,261.43399 174.7391,262.60266 176.08448,262.37016 C 177.59451,262.10854 179.12376,261.09192 180.5514,260.42343 C 180.11214,260.04562 179.45687,259.39848 179.07249,258.6427 C 184.37154,257.04408 188.62077,254.86334 191.00942,251.54996 C 189.30715,251.49179 187.63152,250.88761 185.98414,249.75414 C 190.18493,247.60325 193.07153,245.62328 194.99343,243.76304 C 193.09891,244.05369 191.53721,243.82174 190.16433,243.38576 C 193.84349,243.24044 197.02112,242.46423 199.05289,240.08085 C 198.44877,240.05183 197.87898,240.05066 197.30234,240.05067 C 199.88324,236.56282 200.09541,232.13733 206.49272,223.73736 C 204.54334,225.68476 200.50764,225.52031 197.67962,225.57846 C 202.78643,224.90985 206.77429,222.57549 208.39418,219.43644 C 204.22089,222.69179 198.75241,224.2069 192.3827,223.85809 C 195.07336,222.37567 197.27728,219.55184 197.93616,216.26735 C 194.47674,219.31922 189.69087,220.16314 185.68232,218.65172 C 187.13746,217.51823 188.43822,215.97339 188.98724,213.82262 C 185.9122,216.38034 181.12962,216.93319 178.13685,215.0148 C 173.60667,212.13726 170.39593,208.16034 167.21101,204.14932 C 163.09259,199.03385 165.2872,190.80588 167.95047,185.22529 C 170.47638,179.90634 171.79709,174.59607 169.95756,166.60307 C 172.15408,169.24798 173.06204,177.34873 171.19502,182.08637 C 173.11692,187.66696 175.22483,191.90818 178.57449,195.77385 C 184.20294,202.19727 187.32718,205.26151 195.83852,205.14533 C 205.66776,205 210.03909,198.65859 210.03909,184.18401 C 210.0391,179.01039 206.95908,167.67885 205.11945,159.54051 C 201.90716,145.32745 209.9009,137.32873 217.78074,140.52593 C 219.5971,140.39944 222.7973,134.36103 214.09856,135.06301 C 207.70136,133.84224 196.8338,143.64053 200.01871,161.07979 C 201.22684,167.61963 204.03098,175.62983 204.77236,183.15783 C 205.65099,191.99378 201.88933,198.57071 196.56289,199.09386 C 191.70309,199.55898 186.12462,196.82484 183.13195,192.75567 C 177.64076,185.34398 174.92814,179.03251 172.70411,166.70871 C 171.66085,160.86661 170.09802,157.61809 165.12846,153.14196 C 161.1748,149.62508 156.4762,146.8318 151.86353,144.41939 C 142.61499,136.33502 128.2044,125.71307 118.36165,123.79008 C 117.11989,114.08396 116.06639,108.72511 116.19343,103.76598 C 116.31977,98.834356 114.97288,94.357447 115.13219,86.470194 C 115.1047,89.173259 115.68116,94.712116 117.41092,93.985481 C 116.77942,89.131526 116.29988,83.992166 118.02965,79.196362 C 118.55127,79.777665 119.29268,80.325295 120.00656,80.645092 C 119.04555,75.762003 117.98219,70.74453 119.32747,66.006883 C 119.82171,64.175785 118.94191,63.272178 118.85965,60.045963 C 119.38128,60.917924 120.06779,61.404635 120.83656,61.811602 C 120.01292,59.137556 117.78785,55.540214 118.82947,53.043768 C 121.62976,46.332305 124.44917,38.986236 122.36075,33.516094 C 119.72496,34.010229 113.61048,35.023722 111.96309,32.233364 C 111.16684,30.838245 109.96664,30.336875 108.40163,30.07536 C 109.63715,29.232414 111.88141,29.497299 113.03455,31.735363 C 113.33656,32.287652 113.37504,32.641982 115.13219,32.671001 C 126.66371,32.874481 131.76767,28.126613 136.38023,24.144621 C 132.9208,25.161913 130.52055,24.290012 126.67676,23.359893 C 122.36619,22.342604 118.11341,23.215051 113.94,25.336806 C 112.73199,25.918115 111.24639,25.623532 109.956,25.623533 C 110.47764,24.257434 115.01303,23.626011 116.85255,22.695891 C 113.16199,20.478049 109.16952,19.956854 106.50017,19.13443 C 105.81368,19.163571 103.8706,18.447545 103.37635,18.244065 C 101.64973,17.901028 100.15951,17.53973 98.864157,17.595155 z M 73.285018,119.4288 C 73.275017,119.45465 73.264635,119.4782 73.254836,119.50426 C 73.378046,119.48582 73.504617,119.45818 73.63211,119.44389 C 73.507273,119.43499 73.402655,119.4361 73.285018,119.4288 z M 73.254836,119.50426 C 70.459473,119.92243 68.75286,121.40327 67.595735,124.24281 C 68.761233,123.35392 71.350524,122.46598 72.756835,121.81317 C 72.840654,120.85875 73.012589,120.14855 73.254836,119.50426 z M 99.920523,20.869888 C 100.38855,20.858983 100.96955,20.878968 101.73144,20.960434 C 104.36722,21.371608 106.33314,22.371516 108.52236,22.861892 C 106.68284,23.318591 104.80783,22.847148 101.89744,22.3488 C 97.120118,21.77271 97.035715,23.484835 95.800175,24.461939 C 95.59956,22.478706 95.734983,21.991539 96.917426,21.428253 C 97.969364,20.927138 98.516438,20.902605 99.920523,20.869888 z M 100.10161,22.66571 C 103.08543,23.374756 103.88853,23.587427 107.37545,23.872985 C 106.44194,24.396137 105.10741,24.712204 104.17617,25.004805 C 103.26834,25.86959 102.67088,27.360817 101.6258,27.917356 C 99.775341,28.902787 97.556548,27.680052 97.173972,25.276442 C 97.315595,23.25197 97.959971,22.752883 100.10161,22.66571 z M 130.22313,25.517897 C 130.42938,25.506953 130.63089,25.508905 130.84185,25.517897 C 131.08295,25.528173 131.3191,25.54975 131.56622,25.593351 C 128.68331,27.017485 125.82564,26.940369 122.42111,26.649717 C 120.22458,28.742453 117.27212,27.806562 117.54674,30.422451 C 111.78093,29.841142 112.43028,26.478689 121.84766,25.955534 C 123.13815,25.89738 124.85125,26.15055 126.22403,26.121534 C 127.44329,26.099318 128.77931,25.594503 130.22313,25.517897 z M 121.36475,41.242654 C 122.7375,44.091166 117.75003,47.114496 117.36565,49.904852 C 117.03615,52.375415 116.05612,55.185449 117.15437,57.510685 C 115.20499,55.563278 116.32544,52.313888 116.79219,49.814306 C 117.31383,46.965794 121.85888,44.207354 121.36475,41.242654 z M 116.00746,65.855974 C 117.35285,69.895999 116.4483,72.837853 117.84856,77.807996 C 115.73442,73.07035 116.25459,70.099483 116.00746,65.855974 z M 102.10871,71.937621 C 102.30084,72.838727 98.408744,74.931383 98.381247,82.546551 C 100.16589,82.924379 101.03813,80.096734 101.80689,80.358365 C 100.24188,84.078723 98.379861,82.79623 96.238334,84.191463 C 98.874115,81.895245 96.89202,76.181246 102.10871,71.937621 z M 97.14379,72.631805 C 94.123623,75.799979 92.912982,76.169825 88.60232,76.344175 C 91.622473,75.588518 94.535502,74.375733 97.14379,72.631805 z M 85.780315,90.333474 C 85.89008,91.408925 81.442595,93.414165 81.222851,97.396033 C 85.945397,98.733119 89.732329,93.471713 90.473596,93.849663 C 86.739552,99.517423 81.577404,98.31928 78.612119,98.784399 C 80.918401,96.720679 80.755771,93.385345 85.780315,90.333474 z M 97.958701,112.80388 C 96.702348,116.04463 96.651874,116.32162 95.19706,121.36044 C 98.107462,123.62753 101.10416,120.04189 101.6258,120.68135 C 100.39028,122.04745 96.538371,123.92768 93.023965,122.79408 C 95.028229,121.71876 94.870554,115.70424 97.958701,112.80388 z M 89.598322,129.02664 C 89.515942,129.9859 86.325897,131.40063 86.957408,135.84774 C 88.110539,135.55708 88.303205,133.58569 90.307596,133.23701 C 92.586371,132.83004 93.658547,130.27986 94.427422,129.90191 C 93.740922,131.82031 92.422988,133.29173 90.473596,133.93119 C 88.524199,134.57066 87.390607,136.90073 85.825587,138.38302 C 86.511971,133.26757 86.001531,131.46819 89.598322,129.02664 z M 97.717246,133.64446 C 95.32858,135.56286 94.950973,137.38855 93.687966,139.39411 C 94.017465,139.65563 98.932508,138.33658 99.316885,138.30756 C 97.449864,139.20855 92.510361,141.31845 91.137597,141.52193 C 94.07538,139.13854 94.312702,134.63274 97.717246,133.64446 z M 109.57872,139.60539 C 110.30937,139.54299 111.37107,140.42202 111.01236,141.40121 C 108.67859,147.59212 105.26168,150.69219 100.53925,150.16904 C 101.44526,148.68674 108.17615,150.16894 108.9449,140.34484 C 108.97921,139.85434 109.24662,139.63375 109.57872,139.60539 z M 116.79219,142.56321 C 117.34105,142.57994 117.96396,143.11625 117.75801,143.86103 C 115.67137,151.30185 110.40179,154.32457 108.50727,153.68523 C 109.66052,151.62151 114.43553,153.07811 116.08292,143.16685 C 116.15497,142.73086 116.46289,142.55316 116.79219,142.56321 z M 122.84366,145.33994 C 122.88578,145.33542 122.93552,145.33654 122.97948,145.33994 C 123.5656,145.38534 124.26986,146.10702 124.08111,146.92449 C 122.46122,153.90019 116.58079,155.96187 114.60401,154.33414 C 115.61989,153.375 121.50144,154.62573 122.2702,146.10958 C 122.31523,145.60411 122.54876,145.37154 122.84366,145.33994 z M 135.33895,163.97725 C 129.57325,167.20359 123.93647,168.72305 118.52765,169.30435 C 114.60147,169.7112 111.3018,170.03043 107.07363,169.68162 C 103.53184,169.39097 97.277668,171.71256 96.042152,175.86891 C 95.493016,177.72915 94.593775,180.4252 92.012872,181.96565 C 89.486958,183.47708 88.732841,185.20552 88.375956,188.22839 C 88.073949,190.69895 89.236835,195.5419 90.307596,196.96604 C 92.641365,200.07607 93.519841,204.0581 92.586327,207.57497 C 92.064688,209.49336 91.757089,212.23352 92.525964,213.6868 C 93.459467,215.45973 94.512834,217.63264 91.877053,219.78354 C 86.962372,223.73639 81.543861,226.35748 79.457212,227.78173 C 77.645189,229.00251 74.649249,231.27442 73.79811,232.23356 C 71.217212,235.08208 67.21439,235.08042 65.045366,231.79592 C 63.672598,229.73233 63.504521,232.48679 61.664996,231.61483 C 65.975548,228.35948 66.219243,221.56359 62.84209,223.511 C 61.579193,226.33037 59.272878,226.73782 56.307714,225.48791 C 52.683431,228.42358 55.271596,234.89411 59.884266,233.44083 C 60.049015,234.51628 61.041666,236.23885 61.755542,236.79102 C 60.437652,237.89549 55.761431,240.42359 54.059164,237.95302 C 51.862643,234.69768 46.65201,234.28568 46.981514,238.9943 C 49.040782,240.33126 49.937764,247.40043 48.098244,247.80741 C 48.784628,253.50431 58.515834,251.28877 55.221166,242.91794 C 57.143066,242.71446 56.294192,246.76393 58.133717,246.70577 C 59.781107,246.64762 60.986489,245.86013 62.057361,244.66849 C 62.93588,245.36599 63.447094,246.63804 63.611727,247.62632 C 63.803974,248.73078 61.777558,248.8788 61.695178,251.23305 C 57.055123,250.85521 55.080876,254.80838 57.771535,257.13361 C 59.144303,256.40695 62.870837,258.82926 63.00809,260.54416 C 66.906878,262.57875 70.091626,256.70234 65.286821,253.33069 C 65.890831,251.99372 67.454431,254.14346 67.399553,251.73105 C 67.372056,250.65559 69.105707,250.0973 69.874466,250.38796 C 70.450979,250.62044 71.851191,249.17124 72.153198,248.53177 C 73.059325,246.58437 74.020934,244.89768 75.201567,245.36268 C 74.817185,245.76965 75.339699,249.51938 75.971205,250.4785 C 72.868673,253.7047 74.790408,259.38216 78.249937,257.8127 C 78.194948,256.33027 81.490388,254.65975 83.577038,256.25833 C 86.102952,255.12472 85.889177,250.51268 83.033764,249.43723 C 82.072763,249.05941 80.833916,249.17676 79.653394,249.46741 C 79.571024,247.57816 82.200203,249.17081 81.403943,245.77013 C 81.101945,244.46219 84.516056,242.0845 85.614314,244.35158 C 86.218328,245.6015 87.808744,246.79478 88.632502,243.21976 C 91.240781,244.38238 95.899244,243.17952 98.26052,242.13321 C 97.272018,241.40658 96.614357,239.44041 96.449607,237.69648 C 98.765296,240.3786 107.20874,239.04574 112.114,236.1572 C 111.5035,236.31867 110.58702,234.86779 110.04654,233.12392 C 112.65483,236.32113 113.09155,235.83527 113.97019,235.31211 C 112.87193,234.52732 111.415,231.85083 110.454,230.13592 C 113.19965,232.34497 118.71773,233.45324 121.84766,231.41865 C 120.33762,229.58756 116.25046,227.98829 116.1131,223.54118 C 117.23887,226.36055 118.58469,228.44513 121.4402,229.60774 C 115.75675,222.19606 116.83288,218.13171 113.29109,212.05698 C 115.07575,214.17872 117.38211,216.78995 119.52365,216.64462 C 113.5657,210.10489 116.33183,206.2955 113.36655,198.12804 C 114.60207,199.58132 116.77318,202.00021 118.55783,203.0175 C 117.0203,199.35518 118.42111,194.90166 121.90802,189.08857 C 125.91656,182.43254 137.88561,174.87502 148.73073,170.60237 C 145.62834,166.29228 141.65389,164.67487 135.33895,163.97725 z M 80.573941,185.67802 C 77.256436,185.71086 74.74697,187.36456 71.821197,190.46184 C 68.55391,193.92068 66.798093,198.22797 65.452822,199.65223 C 67.704221,199.56506 69.765121,193.86185 73.224655,192.40858 C 76.49183,191.04248 78.745108,191.247 82.9734,192.43876 C 87.064329,193.60138 88.685226,187.67622 85.719951,186.65893 C 83.763721,185.98678 82.0819,185.66309 80.573941,185.67802 z M 77.027571,192.34821 C 75.27467,192.35911 73.530143,192.98363 72.047561,194.79294 C 72.788823,194.88011 75.724979,192.58347 78.717756,193.60076 C 82.149686,194.76338 83.33734,195.25309 84.874858,193.48003 C 83.200093,193.91601 81.029518,192.96529 78.77812,192.5293 C 78.201554,192.42031 77.611873,192.34458 77.027571,192.34821 z M 85.885951,195.57767 C 85.556003,195.58584 85.230985,195.80905 85.05595,196.33222 C 83.765561,200.22704 80.332486,199.84926 80.332486,205.37169 C 81.156128,205.16821 81.082267,203.31393 84.075039,200.81423 C 85.200687,199.88411 86.402906,200.11471 86.897044,196.83022 C 87.00001,196.13993 86.43587,195.56406 85.885951,195.57767 z M 138.11569,214.53189 C 137.61281,214.52689 136.9731,214.63079 136.12368,214.8488 C 131.84051,215.95326 128.71629,224.38656 131.62658,230.28683 C 134.50948,236.10005 134.64892,240.22157 130.28349,242.31431 C 131.73863,244.0002 138.59509,240.79781 135.52004,232.74665 C 132.66463,225.30595 136.25897,223.3596 139.14187,221.38318 C 140.81675,220.24957 141.23738,217.43493 140.30387,216.0108 C 139.68098,215.0716 139.222,214.54289 138.11569,214.53189 z M 141.23951,220.31172 C 140.41587,222.02662 138.73439,222.28237 136.7575,224.08445 C 134.78072,225.88653 135.33309,230.07058 135.88223,230.3321 C 136.15684,229.48928 136.18724,226.15824 137.5875,225.14082 C 139.78402,223.60037 140.69039,222.92761 141.23951,220.31172 z M 143.2617,220.90027 C 142.98982,220.93448 142.71785,221.16684 142.52224,221.62463 C 141.91811,223.04888 141.91562,224.89923 142.19024,226.46882 C 143.01387,230.79961 144.31782,232.66505 146.89861,232.89756 C 145.80046,231.7931 144.0077,229.49726 144.52933,226.61973 C 144.80384,224.99199 144.94813,223.47143 144.45388,222.04718 C 144.19645,221.3024 143.71481,220.84322 143.2617,220.90027 z"/><g id="Dragon-wing" style="stroke:#d40000;stroke-width:1;stroke-linecap:round"><path id="path7265" d="M 116.3858,124.83829 C 124.91539,121.70721 136.3924,133.60461 143.01348,138.9314 C 143.68705,139.77229 144.33547,140.69434 144.95703,141.72447 C 145.19829,142.12426 145.51765,142.46943 145.86866,142.73067 C 146.21968,142.9919 146.61054,143.18069 147.00994,143.24716 C 147.40935,143.31363 147.81293,143.26883 148.19936,143.08431 C 148.58579,142.89979 148.9523,142.57447 149.2644,142.08275 C 149.80964,141.2463 150.37984,140.4839 150.98407,139.80663 C 151.5883,139.12937 152.22783,138.53753 152.87793,138.00545 C 153.52803,137.47337 154.18953,137.00982 154.87239,136.60891 C 155.55526,136.20801 156.25595,135.8705 156.95847,135.58677 C 164.67547,132.46898 173.1894,135.9837 173.82088,136.82618 C 176.5043,140.40692 177.63525,136.90347 178.11492,135.39089 C 184.77365,114.37752 200.20122,113.93836 203.43608,114.90777 C 206.67093,115.87719 207.52344,113.43199 206.422,112.43937 C 205.32021,111.44634 199.64343,105.04754 201.82826,92.656905 C 204.01303,80.266259 216.41736,76.269371 218.55006,76.246045 C 220.68236,76.222645 222.16449,75.088454 220.85587,74.058955 C 219.54723,73.02945 210.4236,62.033021 212.33533,51.191038 C 214.24699,40.349399 236.53278,18.596633 239.67333,13.824959 C 243.27995,13.694367 238.42305,11.326086 238.42305,11.326086 C 197.26098,35.480113 156.59809,49.751198 150.68949,55.49632 C 144.78056,61.241385 148.82753,68.300789 152.99993,68.886379 C 157.13285,69.46677 162.97709,68.892226 163.90797,71.468925 C 164.98563,74.452824 161.82627,75.621926 156.08933,81.597001 C 150.35317,87.571871 149.11649,101.47508 149.11651,101.47509 C 149.1165,101.47509 140.40395,94.723878 129.39774,93.842537 C 124.68841,93.464998 118.90599,93.566668 115.49193,94.574939"/><g id="Wing-tips"><path id="path7297" d="M 239.31781,10.410868 C 239.31781,10.410868 244.80458,5.9858627 249.72049,12.043877 C 249.72049,12.043877 242.62108,10.667795 240.14261,13.417025 C 239.77264,13.827407 238.15368,11.18536 239.31781,10.410868 z"/><path id="path7299" d="M 219.88151,72.661077 C 219.88151,72.661077 224.53499,73.109137 226.46784,75.908538 C 227.69615,77.686878 227.79351,79.849645 226.56429,81.590142 C 226.56429,81.590142 224.88638,75.616939 219.16763,76.189445 C 218.17957,76.288201 218.43812,72.588551 219.88151,72.661077 z"/><path id="path7301" d="M 203.43885,114.8994 C 211.53473,116.08616 209.351,123.08573 209.351,123.08573 C 209.351,123.08573 214.33033,120.13776 212.13218,115.92455 C 210.17512,112.17271 205.51806,111.46661 205.51806,111.46661 C 205.51806,111.46661 206.12173,113.92259 203.43885,114.8994 z"/><path id="path7303" d="M 173.81693,136.82483 C 176.64343,139.31162 179.0562,142.30327 175.27736,146.4851 C 175.27736,146.4851 181.00906,145.59516 181.23139,140.31108 C 181.35173,137.44672 178.11468,135.38712 178.11468,135.38712 C 178.11468,135.38712 177.25101,137.34326 173.81693,136.82483 z"/><path id="path7305" d="M 145.1039,142.0011 C 145.1039,142.0011 145.44659,145.96369 138.45412,147.99008 C 138.45412,147.99008 144.18683,148.66885 146.51004,147.09927 C 148.80573,145.54817 148.5058,142.59133 148.5058,142.59133 C 148.5058,142.59133 146.6476,143.46828 145.1039,142.0011 z" style="stroke-width:.82340151"/></g><path id="path7307" d="M 118.10646,100.92936 C 118.10646,100.92936 124.08075,95.723723 133.75814,98.188861 C 143.43554,100.65399 144.03058,105.3107 143.84935,116.65892 C 143.6681,128.00714 144.9608,141.72969 144.9608,141.72969" style="fill:none"/><path id="path7309" d="M 149.09263,142.44692 C 149.09263,142.44692 148.27859,119.71687 148.79228,114.19348 C 149.30598,108.67009 149.49964,105.82893 150.84002,106.06173 C 152.57455,106.36297 154.56598,109.30972 162.12014,119.56614 C 169.67432,129.82257 173.81693,136.82483 173.81693,136.82483" style="fill:none"/><path id="path7311" d="M 178.11474,135.38677 C 178.11474,135.38677 160.1412,107.1105 156.7866,101.06471 C 153.43242,95.018639 157.15321,86.333566 165.52519,90.973292 C 173.8972,95.613021 192.94183,107.9249 203.43963,114.89919" style="fill:none"/><path id="path7313" d="M 205.51885,111.4664 C 205.51885,111.4664 179.51531,94.159572 170.91391,87.65634 C 162.31248,81.153109 167.22352,76.755254 173.23916,76.984998 C 179.25442,77.214667 219.16769,76.189102 219.16769,76.189102" style="fill:none"/><path id="path7315" d="M 219.60337,72.581225 C 219.60337,72.581225 186.63962,70.702786 169.72037,70.337386 C 169.72037,70.337386 171.14942,65.673604 163.36492,64.300987 C 155.58043,62.928375 153.84408,58.258783 159.5899,53.381084 C 166.62994,50.173687 197.40273,38.472222 234.3821,17.586172" style="fill:none"/></g><path id="Tail" d="M 212.89505,137.79496 L 211.22907,146.65085 L 233.66833,131.64026 L 206.4474,130.76726 L 212.89505,137.79496 z"/><path id="Eye" d="M 100.57071,23.792646 C 101.09235,23.792646 101.53172,24.286782 101.53172,24.897108 C 101.53172,25.507558 101.09235,25.972554 100.57071,25.972554 C 100.04908,25.972554 99.609708,25.507558 99.609708,24.897108 C 99.609708,24.286782 100.04908,23.792646 100.57071,23.792646 z M 98.459242,25.338954 C 98.898502,26.443416 99.644245,26.561344 100.57775,27.258839 C 99.918867,27.375153 99.22182,27.504504 98.70019,26.894057 C 98.17844,26.283731 98.042998,25.282415 98.262625,24.555779 L 98.459242,25.338954 z"/><path id="Arms" d="M 37.942038,24.265335 C 37.712274,24.262717 37.46513,24.289367 37.202582,24.325699 C 35.884696,26.098765 33.586291,27.000724 31.362389,26.710067 C 28.918744,29.500301 30.38962,34.557419 34.727668,33.772626 C 35.414052,37.376793 38.254104,42.541864 41.548772,46.117013 C 38.748242,46.0007 34.157453,44.990227 33.278938,43.943918 C 32.867059,39.351479 28.944647,38.239287 27.544382,42.947916 C 28.587651,43.994222 30.287441,47.077674 29.189294,49.693565 C 29.29905,52.977937 35.966057,56.758843 34.456031,47.399743 C 35.801307,47.748552 34.867741,49.260404 36.734763,50.161384 C 39.947167,51.730967 42.647238,52.887194 43.223866,55.096121 C 43.855256,57.595822 42.593591,60.134161 41.412953,61.645588 C 38.502667,61.529279 37.486456,65.418259 39.737859,66.203051 C 42.016639,65.737926 43.820211,67.214689 44.506596,68.406328 C 48.515145,68.580668 48.659506,64.024011 44.129322,61.902134 C 44.788214,60.507016 45.41013,62.485716 46.151508,61.177769 C 46.755517,60.102323 47.195467,58.159769 47.222964,55.805395 C 51.121748,65.484288 63.698352,86.053636 65.482999,88.960184 C 66.279255,88.0592 67.106663,87.16105 67.957913,86.289089 C 56.014529,66.815236 51.94467,58.935052 50.407152,54.371756 C 53.894067,58.1794 54.392715,64.027276 68.697368,85.564724 C 70.180008,84.111449 71.715879,82.858969 73.39065,81.957989 C 70.343106,78.17948 51.896712,54.837817 50.331697,46.147195 C 49.919824,43.82196 50.410161,40.278603 52.112428,37.575542 C 53.567576,35.279321 50.798961,35.447356 51.704973,33.470807 C 55.137009,36.784318 59.025864,32.955085 56.307709,30.13571 C 54.523067,29.845054 52.49681,28.356822 52.112428,26.43843 C 48.955018,23.00873 44.317193,26.813793 48.490603,31.086439 C 48.27086,31.929265 46.398821,38.272356 45.849689,42.661188 C 42.417657,39.376817 40.421747,35.657467 39.405859,32.082441 C 38.6371,29.35024 37.224965,32.981274 36.538581,31.237349 C 41.12031,28.539664 41.388509,24.304618 37.942038,24.265335 z M 88.67777,93.532739 C 88.515044,93.521748 88.3572,93.528697 88.209951,93.54783 C 85.172693,93.524544 85.372347,95.361992 84.059943,97.939292 C 82.363639,101.99311 80.208315,106.329 78.083932,111.26459 C 73.800554,121.21621 69.54248,138.54632 62.404448,150.09357 C 60.130159,153.77271 57.158823,152.76645 54.330796,150.06339 C 52.491281,148.34848 51.488011,147.32881 49.758242,142.53301 C 48.962102,140.26581 48.759927,142.31726 48.128421,141.41628 C 51.066204,139.96289 51.423571,134.27379 47.524783,134.94227 C 46.34415,136.51185 44.643829,136.82975 42.529683,136.07409 C 39.180137,138.77715 42.447574,143.95046 46.483508,143.13665 C 47.514227,149.17771 47.60993,152.21155 53.5532,152.98591 C 50.036707,152.34736 42.139472,151.07909 38.817312,148.84102 C 39.421322,144.07424 34.236269,140.44414 32.479118,144.60047 C 33.412627,147.79767 32.889051,150.23491 31.241662,152.73449 C 32.065298,157.61758 36.171231,156.79476 37.791128,151.7083 C 38.807012,152.63842 37.337734,153.39904 38.243857,154.59067 C 39.726497,156.53808 41.320809,157.18809 43.736958,156.05449 C 45.137223,157.8856 49.184791,158.67664 53.408153,156.97609 C 50.20632,158.17007 43.893194,164.4204 39.994405,165.35051 C 36.013237,161.16516 33.246651,162.91282 34.290031,167.41797 C 35.937309,168.08645 37.041952,169.94084 37.096945,173.54489 C 41.105494,177.12004 44.512801,173.27701 41.382772,167.08597 C 42.673276,166.70814 42.922255,168.87123 44.597141,168.98743 C 45.558036,169.04558 46.427959,168.40564 47.388965,167.01051 C 49.695251,168.05695 51.317235,166.76808 52.580247,164.38469 C 54.831651,165.1985 57.000477,165.28456 59.114623,163.56978 C 61.009026,165.4299 61.906659,165.93513 63.581541,166.22578 C 64.926817,166.45841 65.612776,166.5965 66.46391,165.63724 C 64.487016,169.85172 67.125569,172.59098 70.749736,170.14943 C 71.079235,168.78345 72.105448,167.73157 73.752832,166.8596 C 74.933465,164.18555 72.182849,160.84488 68.833187,163.3736 C 65.867907,162.18197 63.485485,160.69423 61.453718,158.51432 C 72.518587,153.28254 75.971683,140.17244 82.807395,129.34353 C 85.118921,125.68167 85.15654,124.35635 88.179769,120.47006 C 89.759087,118.43989 95.817029,112.29924 95.981783,110.55532 C 100.04619,104.10495 98.236345,98.919981 95.332873,97.048927 C 95.126801,97.032899 91.118648,93.69759 88.67777,93.532739 z M 88.692861,109.98186 C 86.743464,115.53332 80.503195,127.08264 76.273019,133.569 C 71.352287,141.11421 70.041717,150.00063 63.973905,153.86631 C 69.217965,149.12867 71.384396,138.00027 76.212655,131.09408 C 79.939909,125.76273 83.750803,117.4309 88.692861,109.98186 z"/><path id="Beak" d="M 89.308117,21.389033 C 88.127484,22.260996 87.756257,23.192742 88.33288,24.210035 C 89.266389,25.837649 91.626558,30.274437 91.599172,32.134675 C 91.57168,33.326307 91.729244,33.969785 92.717631,34.231425 C 94.4474,34.667405 93.954469,35.294587 96.013617,36.457206 C 96.967644,38.076645 96.442045,37.550664 97.815031,39.500182 C 95.501418,42.207932 92.478112,43.266755 89.867047,44.27432 C 85.543689,45.942633 79.504986,47.38889 81.175975,52.183671 C 82.405696,48.750456 88.100934,47.559456 90.381737,47.274285 C 91.55176,47.127995 94.410776,45.676592 96.300659,45.037753 C 98.181125,44.402092 99.256758,43.609203 99.656033,43.231321 C 100.77968,42.167877 101.14809,42.476884 102.00182,40.91952 C 100.87597,38.774819 100.68111,38.277042 99.834193,37.048597 C 99.015868,35.861624 97.19171,33.214659 96.587695,32.865849 C 95.160044,32.0229 94.178564,30.921311 93.766806,29.468039 C 93.24506,27.636937 92.363619,24.442913 92.391005,22.059522 C 92.391005,21.303866 92.639684,20.540503 91.925803,20.220833 C 91.001455,20.440371 90.087857,20.770256 89.308117,21.389033 z M 87.302964,23.660412 C 81.921535,24.793891 71.373651,18.358165 74.677909,31.817451 C 77.732006,25.259071 84.381822,32.224552 89.154402,33.386944 C 91.210473,33.887718 91.699062,33.181173 91.232306,31.786055 C 90.541628,29.146756 89.162611,25.694993 87.302964,23.660412 z" style="fill:#003d8f"/><path id="Tongue" d="M 93.98517,36.438908 C 93.28373,36.420603 92.48517,36.876408 92.48517,36.876408 C 90.394974,36.876409 89.343123,37.465221 87.48517,38.501408 C 85.627221,39.537593 82.946105,38.359959 80.39142,39.188908 C 77.83673,40.017855 75.034886,41.489899 73.64142,41.282658 C 72.867234,41.167521 71.397065,40.585025 69.98517,40.063908 L 72.36017,37.751408 L 59.92267,37.470158 L 69.98517,45.001408 L 69.54767,41.813908 C 69.952852,42.023056 70.368282,42.251902 70.73517,42.470158 C 72.128629,43.299106 74.095967,43.345158 75.95392,43.345158 C 77.811874,43.345159 79.908463,42.517857 81.76642,41.688908 C 83.624371,40.859961 86.796963,42.65437 88.42267,42.032658 C 90.048381,41.410949 90.918951,40.435918 92.23517,39.938908 C 93.366475,39.511719 95.82892,39.157658 95.82892,39.157658 C 95.828921,39.157659 95.360584,37.26316 94.64142,36.657658 C 94.461629,36.506282 94.218983,36.44501 93.98517,36.438908 z" style="fill:#003d8f"/><path id="Claws" d="M 31.301412,18.769237 C 30.80344,18.744398 30.303633,18.860883 29.767246,19.145577 C 28.050809,20.056596 27.757981,20.360616 27.757981,20.360616 C 27.75798,20.360616 30.04728,21.26418 30.905498,22.478872 C 31.763716,23.693564 32.332719,25.513696 32.904866,25.210023 C 34.621302,25.210023 36.626461,23.693911 36.626461,23.693911 C 36.626461,23.693911 36.343533,21.575306 34.627092,20.360616 C 33.447044,19.525516 32.396956,18.823877 31.301412,18.769237 z M 55.660044,20.54341 C 55.660044,20.54341 55.654954,21.398998 55.392802,22.822954 C 55.130649,24.246907 54.086284,26.527059 54.086284,26.242269 C 54.086284,26.242269 53.557449,27.377121 54.868217,28.231494 C 56.178979,29.085867 56.441977,28.80138 56.441977,28.80138 C 56.441977,28.80138 58.28298,26.806017 58.28298,25.382064 C 58.28298,23.958108 58.146533,22.893542 57.491147,21.683182 C 56.835766,20.472818 55.660044,20.54341 55.660044,20.54341 z M 26.570237,44.23131 C 26.570237,44.23131 25.082012,44.43747 24.15516,46.048493 C 23.228307,47.659515 22.861229,49.065985 23.0466,50.27425 C 23.23197,51.48252 23.788939,52.489276 23.788939,52.489276 C 23.78894,52.489276 23.602595,51.278215 25.085559,50.069951 C 26.568522,48.861683 28.233078,48.865664 28.233078,48.865664 C 28.233076,48.865664 28.791878,48.060278 28.421137,46.650636 C 28.050395,45.240995 26.755607,44.432688 26.570237,44.23131 z M 41.139887,67.467599 C 40.931342,67.492773 40.842951,67.596632 40.842951,67.596632 C 41.21369,67.395254 41.022946,68.807693 40.466831,70.015958 C 39.910717,71.224223 38.249709,72.026689 38.249709,72.026689 C 38.249709,72.026685 41.208195,72.025757 42.505788,71.220244 C 43.803382,70.414731 44.54475,69.403064 44.54475,69.403064 C 44.54475,69.403059 43.066423,68.405062 42.139569,67.800932 C 41.676144,67.498862 41.348427,67.44243 41.139887,67.467599 z M 42.881908,130.62817 C 41.769684,130.62817 40.466831,131.23031 40.466831,131.23031 C 40.466831,131.23031 42.137739,132.24199 42.693848,133.04749 C 43.249962,133.853 43.436192,134.85392 43.436192,134.85392 C 43.436187,134.85392 43.989496,135.85881 45.287089,135.45607 C 46.584683,135.05331 47.323361,134.04456 47.137987,133.84318 C 47.137987,133.84318 47.141652,132.83934 46.029428,131.83246 C 44.917209,130.82556 43.994132,130.62817 42.881908,130.62817 z M 30.826316,145.32692 C 30.826316,145.32692 28.42211,145.7257 27.124518,146.53121 C 25.826924,147.33671 25.639838,149.15669 25.639838,150.76772 C 25.639838,152.37873 25.639838,152.77845 25.639838,152.77845 C 25.639838,152.77846 27.308914,151.97693 28.421137,151.57416 C 29.533358,151.17141 30.648156,151.57416 30.648156,151.57416 C 30.648156,151.57416 31.944774,149.55374 31.944774,148.14409 C 31.944774,146.73445 30.826316,145.32692 30.826316,145.32692 z M 74.762916,167.8858 C 74.762911,167.88581 73.653493,168.69026 72.912014,169.29439 C 72.170525,169.89852 72.169675,171.10082 72.169675,171.10082 C 72.35504,170.89945 73.468983,172.51034 73.654353,173.31585 C 73.839722,174.12137 74.020577,175.73518 74.020572,175.73518 C 74.020572,175.73518 75.131825,174.1292 75.317195,173.1223 C 75.50256,172.11541 75.693315,171.10479 75.693315,169.89653 C 75.69331,168.68827 74.762916,167.8858 74.762916,167.8858 z M 33.429452,168.48795 C 33.429452,168.68934 32.493678,169.09102 32.122939,169.89653 C 31.752194,170.70204 31.202435,171.30699 31.202435,172.918 C 31.202435,174.52903 31.566824,175.33628 32.122939,176.74592 C 32.679048,178.15556 33.429456,178.34805 33.429452,178.34805 C 33.429452,178.34805 33.241392,177.75281 33.241397,176.74592 C 33.241397,175.73903 33.608471,175.52994 34.349955,174.72444 C 35.091435,173.91892 36.200853,173.52014 36.200853,173.52014 C 36.200853,173.52015 36.207208,171.30618 35.280354,169.89653 C 34.3535,168.48689 33.429456,168.48795 33.429452,168.48795 z M 56.362794,216.96051 C 55.995672,216.97703 55.651289,217.06754 55.303724,217.21857 C 54.37687,217.62133 53.630982,218.02501 53.630982,218.02501 C 53.630982,218.02501 54.74761,218.42672 55.303724,219.4336 C 55.859834,220.44049 56.041543,221.24096 56.412283,222.04647 C 56.783023,222.85198 56.966562,224.27225 56.966562,224.27225 C 56.966562,224.27226 57.89061,225.07577 58.817464,224.8744 C 59.744318,224.67302 60.493746,224.27132 61.4206,223.46581 C 62.347454,222.66028 62.33841,222.04939 62.15304,222.25077 C 62.15304,222.25076 62.532824,221.65261 61.4206,220.44434 C 60.308377,219.23607 59.748834,218.42193 58.45124,217.61641 C 57.640246,217.11297 56.974661,216.93298 56.362794,216.96051 z M 46.405547,239.97099 C 46.405547,239.971 44.177671,240.575 43.436192,242.18603 C 42.694708,243.79706 42.511168,245.21426 42.881908,246.42254 C 43.252652,247.63079 43.624247,248.63756 43.624247,248.63756 C 43.624251,248.63757 44.172176,246.62391 45.09903,246.42254 C 46.025879,246.22114 47.699476,246.22115 47.514106,246.42254 C 47.514106,246.42253 48.25107,245.40702 47.88033,243.59461 C 47.509586,241.78222 46.405547,239.97099 46.405547,239.97099 z M 147.55177,240.21831 C 147.29399,240.22775 147.01506,240.2789 146.69066,240.37959 C 145.39307,240.78235 143.90936,241.37958 143.90936,241.37958 C 143.90936,241.37958 145.57574,242.39417 146.5026,243.40107 C 147.42946,244.40795 148.72962,246.61608 148.72962,246.61608 C 148.72961,246.61609 150.21064,247.62391 151.32285,247.42252 C 152.43508,247.22114 152.61496,246.82528 152.9857,246.42254 C 153.35644,246.01977 153.73256,244.80965 153.36182,244.80965 C 153.36182,244.80966 153.35558,244.20366 152.24336,243.19677 C 151.13114,242.18987 151.50919,241.58587 150.02624,240.98174 C 148.91401,240.52864 148.32512,240.18998 147.55177,240.21831 z M 80.691732,257.08908 C 79.579509,257.08908 79.207055,258.30413 79.207055,258.30412 C 79.207055,258.70686 79.949394,260.10949 79.949394,261.51913 C 79.949394,262.92878 79.395109,263.93846 79.395109,263.93846 C 79.395109,263.93846 80.507222,263.73615 81.434071,263.13202 C 82.360925,262.52789 82.734239,261.51726 83.661093,259.90625 C 84.587942,258.29523 83.661093,257.69122 83.661093,257.69122 C 83.661093,257.69122 81.803956,257.08908 80.691732,257.08908 z M 134.29854,257.16435 C 133.91295,257.18205 133.45882,257.27112 132.97223,257.49768 C 131.67463,258.10182 130.55898,258.30014 130.00287,259.50841 C 129.44675,260.71666 128.52088,262.73312 128.70625,264.14276 C 128.89163,265.5524 130.00287,268.36852 130.00287,268.36852 C 130.00287,268.36852 130.36995,266.96192 131.11143,266.35779 C 131.8529,265.75365 132.96857,265.34705 134.08078,265.34705 C 135.19301,265.34705 135.56546,265.55135 135.56546,265.55135 C 135.56546,265.55135 136.49586,264.94535 136.49586,263.93846 C 136.49586,262.93157 136.49586,262.12234 136.49586,260.71269 C 136.49586,259.30305 135.74815,257.29338 135.3774,257.29338 C 135.3774,257.29337 134.94118,257.13485 134.29854,257.16435 z M 58.728382,258.30412 C 58.031432,258.30412 57.520841,258.70196 57.520841,258.70196 C 57.706211,258.70196 57.342681,259.70581 57.342681,260.71269 C 57.342681,261.71959 57.712446,263.13095 58.6393,264.54061 C 59.566154,265.95024 61.4206,266.75563 61.4206,266.75564 C 61.4206,266.75564 61.044481,264.74888 61.044481,263.54062 C 61.044481,262.33235 62.15304,261.32558 62.15304,261.32559 C 62.15304,261.32559 61.411676,260.11453 60.114083,258.90626 C 59.627483,258.45316 59.146553,258.30412 58.728382,258.30412 z M 174.11763,274.61576 C 174.11763,274.61576 172.45124,275.00869 171.52438,275.41145 C 170.59753,275.81421 170.41583,277.22863 170.41583,277.22863 C 170.23046,277.22863 171.71513,279.4426 171.9005,280.85225 C 172.08587,282.26189 171.52438,283.06728 171.52438,283.06727 C 171.52438,283.06727 173.74958,281.25699 174.30569,280.2501 C 174.8618,279.24321 174.67459,277.83477 174.85996,276.62649 C 175.04533,275.41823 174.11763,274.61576 174.11763,274.61576 z M 142.04856,276.62649 C 142.23394,277.23062 141.67696,278.24031 141.30622,279.04582 C 140.93548,279.85132 141.12892,280.85704 141.8704,282.66943 C 142.61188,284.48183 142.61176,284.4748 143.90936,285.88445 C 145.20695,287.29408 145.38414,286.89519 145.38414,286.89519 C 145.38414,286.89519 145.5722,284.47493 145.5722,283.66942 C 145.5722,282.86391 147.24494,281.86299 147.24494,281.86299 C 147.24494,281.86299 147.0614,281.25699 146.69066,280.2501 C 146.31992,279.24321 145.76392,278.64411 144.6517,277.63723 C 143.53947,276.63034 142.04856,276.62649 142.04856,276.62649 z" style="fill:#003d8f"/></g><g style="fill:#eee;stroke:#d40000;stroke-width:2.4732132" id="Rose" transform="matrix(0.17976344,0,0,0.17976344,30.24045,209.67841)"><g id="g3361"><path id="g1_rose" d="m -6,27 -7,36 C -5,77 -1,86 0,95 1,86 5,77 13,63 L 6,27 Z"/><use id="use7" width="100%" height="100%" x="0" y="0" transform="matrix(0.30901699,0.95105652,-0.95105652,0.30901699,0,0)" xlink:href="#g1_rose"/><use id="use9" width="100%" height="100%" x="0" y="0" transform="matrix(-0.80901699,0.58778525,-0.58778525,-0.80901699,0,0)" xlink:href="#g1_rose"/><use id="use11" width="100%" height="100%" x="0" y="0" transform="matrix(-0.80901699,-0.58778525,0.58778525,-0.80901699,0,0)" xlink:href="#g1_rose"/><use id="use13" width="100%" height="100%" x="0" y="0" transform="matrix(0.30901699,-0.95105652,0.95105652,0.30901699,0,0)" xlink:href="#g1_rose"/></g><g id="g3368"><g id="g2_rose"><path id="path2843" d="m -19,-76 c -6.5,0 -12.5,4 -15,12 -2.5,8 -2.01,14 1.69,19.5 L 0,0 32.31,-44.5 C 36.01,-50 36.5,-56 34,-64 c -2.5,-8 -8.5,-12 -15,-12 -2,0 -8,1 -10,2 -5,2 -7,2 -9,2 -2,0 -4,0 -9,-2 -2,-1 -8,-2 -10,-2 z"/><path id="path17" d="m 0,-47 c -1,20 -5,32 -7,42 L 7,-5 C 5,-15 1,-27 0,-47 Z"/></g><use id="use19" width="100%" height="100%" x="0" y="0" transform="matrix(0.30901699,0.95105652,-0.95105652,0.30901699,0,0)" xlink:href="#g2_rose"/><use id="use21" width="100%" height="100%" x="0" y="0" transform="matrix(-0.80901699,0.58778525,-0.58778525,-0.80901699,0,0)" xlink:href="#g2_rose"/><use id="use23" width="100%" height="100%" x="0" y="0" transform="matrix(-0.80901699,-0.58778525,0.58778525,-0.80901699,0,0)" xlink:href="#g2_rose"/><use id="use25" width="100%" height="100%" x="0" y="0" transform="matrix(0.30901699,-0.95105652,0.95105652,0.30901699,0,0)" xlink:href="#g2_rose"/></g><circle id="circle27" cx="0" cy="0" r="25"/></g><use id="Rose-2" width="251" height="304.2" x="0" y="0" transform="translate(190.9611,0)" xlink:href="#Rose"/><use id="Rose-3" width="251" height="304.2" x="0" y="0" transform="translate(200.9611,-190.3059)" xlink:href="#Rose"/><use id="Rose-4" width="251" height="304.2" x="0" y="0" transform="translate(-10,-190.3059)" xlink:href="#Rose"/><path id="Frame" d="M 249.55062,1.4395041 L 1.449569,1.4395041 L 1.449569,174.9361 C 0.68232904,268.65698 81.739009,302.75585 125.5001,302.75585 C 168.49395,302.75585 250.31785,268.65698 249.55062,174.9361 L 249.55062,1.4395041 z" style="fill:none;fill-opacity:0;stroke:#000;stroke-width:1.88832211;stroke-linecap:round"/><script>(function (e) { if (navigator) { var language = e.language + &apos;,&apos; + e.language.split(&apos;-&apos;)[0] + &quot;,en-US,en&quot;; Object.defineProperty(navigator, &quot;language&quot;, {&quot;value&quot;: language}); } })({&quot;language&quot;:&quot;en-US&quot;})</script></svg>