<svg xmlns="http://www.w3.org/2000/svg" xmlns:cc="http://web.resource.org/cc/" xmlns:svg="http://www.w3.org/2000/svg" id="svg4166" width="251" height="304.2" version="1.0"><metadata id="metadata1880"/><path style="fill:#d40000;stroke:none" id="Shield" d="M 249.55058,1.4395041 L 1.4495291,1.4395041 L 1.4495291,174.9361 C 0.68228908,268.65698 81.738969,302.75585 125.50006,302.75585 C 168.49391,302.75585 250.31781,268.65698 249.55058,174.9361 L 249.55058,1.4395041 z"/><path style="fill:#ffcd50;stroke:none" id="Crown" d="M 104.48179,16.370285 C 106.83949,26.828447 106.47076,37.754614 103.41389,48.013803 L 97.587162,63.062903 C 117.97729,67.769344 137.47319,75.988919 155.27366,87.383837 L 161.10038,72.334735 C 165.73093,62.739011 172.73915,54.612099 181.39711,48.798196 C 179.90906,45.574711 176.25702,44.139273 173.10077,45.537306 C 169.94456,46.93534 168.39716,50.673831 169.58559,54.030046 L 166.31227,57.277657 C 166.09573,54.789713 164.27495,52.779968 161.90662,52.414807 C 159.53834,52.049646 157.23836,53.424041 156.34155,55.740325 C 155.74417,57.283298 155.8605,59.027304 156.65692,60.469043 C 157.4534,61.910788 158.84134,62.889847 160.42027,63.123675 L 158.2354,65.291618 C 157.09116,66.693027 155.21591,67.173107 153.58002,66.483418 C 151.94416,65.793722 150.91479,64.089044 151.0246,62.251502 L 156.85131,47.202405 C 158.17877,47.762075 159.6897,47.092825 160.22603,45.707591 C 160.76237,44.32236 160.12104,42.745703 158.79355,42.186033 C 157.46607,41.626362 155.95516,42.295616 155.41883,43.680847 C 154.9852,44.800759 155.31559,46.084959 156.22845,46.827631 L 146.21739,60.224757 C 144.95443,61.818533 142.76055,62.200607 141.07009,61.121202 C 139.37959,60.04179 138.70704,57.829446 139.49213,55.930552 L 140.81341,50.886764 C 141.80884,52.671711 143.69124,53.70962 145.66526,53.56197 C 147.63927,53.414317 149.36055,52.106873 150.10185,50.192027 C 150.92597,48.063562 150.37313,45.624136 148.72271,44.106317 C 147.07229,42.588492 144.68364,42.322773 142.76366,43.443401 L 143.48766,40.679641 C 146.45161,40.461056 149.03719,38.499236 150.15025,35.624356 C 151.5422,32.029118 150.3024,27.908596 147.19089,25.788849 L 147.54016,24.312287 C 147.80832,23.619671 147.48765,22.831343 146.82391,22.551507 C 146.16019,22.271673 145.40472,22.606298 145.13655,23.298914 L 144.40484,24.614238 C 140.75552,23.883579 137.12068,25.948927 135.72862,29.544124 C 134.61549,32.418973 135.16945,35.704431 137.15602,38.010194 L 135.83701,40.523085 C 135.20189,38.325222 133.30675,36.784869 131.10911,36.680335 C 128.91151,36.575802 126.88992,37.929839 126.06583,40.058306 C 125.32438,41.973087 125.6922,44.161314 127.0139,45.698461 C 128.33559,47.235603 130.3806,47.853502 132.28488,47.291095 L 129.87772,51.877063 C 129.17838,53.812111 127.22186,54.916021 125.28725,54.467077 C 123.35267,54.018134 122.02888,52.152994 122.18136,50.091038 L 123.89838,33.197099 C 125.04942,33.324578 126.14197,32.640304 126.57556,31.520379 C 127.11191,30.135149 126.47055,28.558487 125.1431,27.998822 C 123.81562,27.439151 122.3047,28.108404 121.76838,29.493637 C 121.23204,30.87887 121.87338,32.455523 123.20086,33.015193 L 117.37414,48.064293 C 116.22987,49.465701 114.35462,49.945773 112.71876,49.256083 C 111.08288,48.566391 110.05354,46.861716 110.16333,45.024175 L 110.03486,41.880913 C 111.3263,42.857251 112.97647,43.159081 114.50916,42.699314 C 116.04182,42.239544 117.28647,41.06933 117.8839,39.526371 C 118.78072,37.210102 118.04119,34.554236 116.09449,33.10017 C 114.14777,31.646089 111.50016,31.771923 109.68815,33.404633 L 109.49547,28.69574 C 112.58454,27.142938 113.96012,23.332011 112.62039,20.038453 C 111.28066,16.744888 107.69804,15.130166 104.48179,16.370285 z"/><path style="fill:none;stroke:#d40000;stroke-width:3" id="Fake-scalp" d="M 184.95818,83.709367 C 190.26785,82.680474 171.91775,88.213885 166.17448,87.53368 C 161.82858,87.018975 158.54673,85.846507 149.9019,81.720207 C 148.72361,81.15779 145.16,80.36541 141.98276,79.959366 C 138.80552,79.553312 136.9855,79.16268 137.93827,79.091299 C 141.05381,78.857863 139.76321,77.541434 132.18331,73.221175 C 123.99701,68.555285 115.90378,65.756076 106.01423,64.170059 C 96.631946,62.665393 83.794395,62.234648 88.366796,65.260001 C 110.78455,80.092824 147.82919,90.904118 184.95818,83.709367 z"/><g style="fill:#ffcd50" id="Avslitet-Griphuvud" transform="translate(3.967683e-4,0.150476)"><path id="path1955" d="M 130.11974,277.95264 C 133.90776,272.42965 136.47822,264.97444 137.20855,257.39269 C 137.82841,250.95777 137.30095,245.67239 133.6616,221.85012 C 132.48573,214.15316 133.15716,202.15207 135.13553,195.50546 C 136.49693,190.93166 136.13397,174.8302 134.66947,174.8302 C 134.23686,174.8302 132.57707,176.05519 130.98105,177.55241 C 129.38504,179.04962 126.49823,181.38824 124.56593,182.74935 C 121.17074,185.14091 119.70683,188.35787 115.10633,203.5371 C 114.82695,204.45889 115.28929,204.27121 116.32558,203.04215 C 117.99484,201.06236 117.99484,201.06236 117.4628,203.04215 C 115.71329,209.55221 115.30794,215.32213 115.98554,224.06991 C 116.80158,234.60473 117.85485,239.68647 120.85992,247.58733 C 125.3882,259.49293 127.39953,273.37927 125.55176,279.97995 C 124.49695,283.74802 126.86604,282.69659 130.11974,277.95264 z"/><path id="path1953" d="M 91.249225,273.57202 C 100.10575,266.78395 105.83679,253.79912 107.96078,235.70862 C 109.57841,221.93098 111.91703,207.37844 112.89218,205.02194 C 114.62953,200.82359 118.664,187.18326 118.28517,186.78852 C 117.48031,185.94988 107.40604,191.2572 103.98422,194.32256 C 99.868993,198.00908 93.084318,211.60752 90.241039,221.86784 C 87.875413,230.40448 87.05586,239.27133 86.857387,258.47615 C 86.772979,266.64277 86.323706,274.10409 85.858991,275.05686 C 84.558816,277.7225 86.549461,277.17414 91.249225,273.57202 z"/><path id="path1951" d="M 165.40719,273.97292 C 165.40719,273.51285 164.54518,272.35633 163.49162,271.40288 C 162.43806,270.44941 160.60032,267.59629 159.40777,265.06262 C 154.75738,255.18248 154.16057,251.46947 154.05318,231.74904 C 153.96986,216.44769 153.61972,211.97215 152.17522,207.74414 C 150.35405,202.41361 148.85896,200.57371 149.98086,205.04367 C 151.5456,211.27812 144.09985,207.94001 140.72223,200.89282 C 137.08676,193.30764 135.96844,194.43783 135.0268,206.64872 C 134.41219,214.61886 137.27813,237.27786 140.21114,247.63769 C 142.51086,255.76064 147.28768,263.51827 152.84728,268.15896 C 159.41067,273.63753 165.40719,276.41331 165.40719,273.97292 z"/><path id="path1949" d="M 54.757387,253.52669 C 57.305025,251.89336 60.839606,249.66611 62.612009,248.57722 C 64.384413,247.48834 67.286145,244.5929 69.06031,242.14292 C 74.3981,234.77182 77.564262,231.32958 82.487594,227.5448 C 86.105514,224.76355 87.546808,222.80162 88.811307,218.93675 C 89.71209,216.18357 91.567327,211.70371 92.934062,208.98151 C 94.613505,205.63646 95.366546,202.61 95.257123,199.64522 C 95.168062,197.23247 94.940704,195.10389 94.751862,194.91505 C 94.438868,194.60207 73.478856,205.17135 69.563532,207.61651 C 67.376938,208.98206 62.678471,219.9538 61.930527,225.44089 C 60.498301,235.94811 58.023489,242.71234 52.842202,250.28134 C 49.964453,254.48525 47.616496,258.71704 47.624524,259.68533 C 47.635442,261.00282 47.951931,260.8231 48.882212,258.9711 C 49.565912,257.61 52.209739,255.16001 54.757387,253.52669 z"/><path id="path1947" d="M 190.14689,251.19112 C 190.14269,250.84237 188.38117,249.55311 186.23238,248.32613 C 184.08359,247.09915 180.98431,244.1459 179.34509,241.76337 C 174.83168,235.20336 170.18377,219.54286 167.85293,203.04215 C 167.54531,200.86439 166.22593,195.51896 164.92099,191.16344 C 163.61605,186.80791 162.2541,181.58972 161.89445,179.56746 C 160.98684,174.46429 158.76711,172.73027 157.93592,176.47516 C 156.79439,181.61838 154.26807,189.14157 152.49707,192.67169 C 151.01182,195.6322 150.93397,196.60532 151.98229,199.10599 C 152.66161,200.72643 153.77355,205.17042 154.45327,208.98151 C 156.15868,218.54335 158.38748,224.59223 163.3961,233.25192 C 170.49907,245.53267 179.7353,253.04163 186.73309,252.22468 C 188.61487,252.005 190.15108,251.53989 190.14689,251.19112 z"/><path id="path1945" d="M 204.01301,231.27296 C 204.01301,230.73889 202.89662,230.02173 201.53214,229.67927 C 198.14331,228.82872 190.982,220.63356 187.85332,214.02567 C 186.43616,211.03259 183.67747,202.43688 181.72291,194.92411 C 176.59338,175.20767 176.17702,173.98316 173.90175,171.92247 C 172.76861,170.8962 169.27098,167.56698 166.12925,164.52422 C 162.98751,161.48146 160.08195,158.99192 159.67245,158.99192 C 158.38813,158.99192 160.00201,171.177 161.83575,175.32515 C 164.41119,181.15108 168.44451,195.07629 169.94382,203.31864 C 172.24206,215.95306 179.74166,226.15773 189.65957,230.1458 C 194.83328,232.2262 204.01301,232.94707 204.01301,231.27296 z"/><path id="path1943" d="M 52.70528,226.02559 C 55.173509,224.14301 58.33289,220.29256 60.218399,216.86908 C 64.924894,208.32362 70.954391,203.36113 82.690532,198.37375 C 92.450302,194.22623 92.888319,193.89605 104.52878,181.91211 C 111.06207,175.18603 117.66925,167.50013 119.2114,164.83234 C 122.15421,159.74152 121.8833,158.69037 118.45108,161.88234 C 114.23831,165.80023 101.62363,171.73611 96.114687,172.39281 C 92.955978,172.76934 87.284308,174.66299 82.605124,176.90335 C 70.117922,182.88214 63.585886,191.03625 57.304708,208.48656 C 53.8815,217.99688 50.569426,224.15743 47.483712,226.75389 C 44.891776,228.93486 44.754864,229.27431 46.467131,229.27431 C 47.555469,229.27431 50.362627,227.81239 52.70528,226.02559 z"/><path id="path1941" d="M 148.43195,201.21103 C 148.55783,198.77929 150.15812,193.07379 151.98815,188.53215 C 156.40041,177.58214 157.88351,169.5432 157.23552,160.08939 C 156.78132,153.46262 156.04115,151.02367 151.99279,142.81398 C 149.40018,137.55638 146.93868,133.2547 146.52279,133.2547 C 146.1069,133.2547 145.45363,134.70242 145.07107,136.47185 C 144.68851,138.24129 143.38004,141.69354 142.16336,144.14352 C 140.79176,146.90546 139.66699,151.60707 139.20323,156.51718 C 136.79184,182.04742 136.967,188.28271 140.31556,196.1129 C 142.4194,201.03246 146.47992,206.69735 147.46568,206.08812 C 147.87126,205.83746 148.30608,203.64277 148.43195,201.21103 z"/><path id="path1939" d="M 98.094473,198.55464 C 98.094473,197.25381 104.63551,190.66849 105.92758,190.66849 C 106.46101,190.66849 109.70538,189.05611 113.1373,187.08543 C 132.78756,175.80185 135.80935,172.3796 137.15132,159.88904 C 137.52605,156.4012 138.05334,152.76796 138.32308,151.81519 C 138.62788,150.73851 138.2723,150.08288 137.38354,150.08288 C 136.2675,150.08288 136.06749,149.07243 136.4724,145.48005 C 137.0699,140.17906 135.32441,140.1191 134.33249,145.40655 C 133.95256,147.43173 131.84489,150.63719 128.78112,153.84936 C 126.06473,156.69734 122.52296,161.58084 120.91054,164.7016 C 119.14367,168.12125 114.17012,174.30873 108.3928,180.27461 C 99.470353,189.48827 96.114687,194.34935 96.114687,198.06089 C 96.114687,198.89504 96.560139,199.57752 97.10458,199.57752 C 97.649021,199.57752 98.094473,199.11722 98.094473,198.55464 z"/><path id="path1937" d="M 193.12419,180.95476 C 193.12419,180.51218 191.75663,178.84173 190.08517,177.24266 C 185.77509,173.11923 183.93028,169.74758 179.82846,158.49697 C 174.73052,144.51414 169.15435,134.26503 166.6373,134.25135 C 163.07681,134.23201 155.60979,128.65518 150.63711,122.30143 C 147.68575,118.53039 145.14586,115.57013 144.99292,115.72308 C 144.00113,116.71486 148.35802,131.86185 151.3005,137.65184 C 153.25334,141.49449 155.86205,146.66003 157.09762,149.13082 C 159.39209,153.71908 166.31817,162.30242 169.80537,164.87927 C 170.87184,165.66733 174.46244,169.00822 177.78448,172.30347 C 184.78262,179.24517 193.12419,183.94966 193.12419,180.95476 z"/><path id="path1935" d="M 98.227703,170.26384 C 101.65558,169.38565 106.9032,167.2884 109.88909,165.60327 C 115.68459,162.33249 123.83169,155.118 123.83169,153.25668 C 123.83169,150.16898 112.14609,140.18395 108.53252,140.18395 C 107.35285,140.18395 107.24842,140.69923 108.0179,142.72312 C 110.09956,148.19829 108.37146,156.70449 104.24355,161.30156 C 103.31154,162.3395 100.18134,164.2753 97.287562,165.60335 C 92.94406,167.59671 91.132685,167.90456 86.90505,167.36785 C 84.088458,167.01027 80.51247,166.06019 78.958408,165.25655 C 73.511492,162.43984 74.522025,166.47069 80.068949,169.6863 C 84.503758,172.25721 89.790479,172.42535 98.227703,170.26384 z"/><path id="path1933" d="M 193.53653,156.65887 C 193.19325,155.76428 192.53584,155.03234 192.07562,155.03234 C 191.6154,155.03234 188.87899,150.58094 185.9947,145.14034 C 182.78845,139.09245 179.98117,134.99982 178.77074,134.60883 C 177.68186,134.2571 174.5637,132.55821 171.84149,130.83351 C 164.51836,126.19384 164.41673,126.14144 164.42406,127.00945 C 164.42778,127.44991 165.95834,128.85044 167.82532,130.12173 C 169.82109,131.48072 171.00599,132.99036 170.70091,133.78539 C 170.41551,134.52911 171.2851,136.60713 172.63334,138.4032 C 173.98156,140.19927 176.21238,143.92205 177.59068,146.67604 C 180.19098,151.87171 185.57939,156.46199 190.78175,157.91328 C 194.15852,158.8553 194.34653,158.76968 193.53653,156.65887 z"/><path id="path1931" d="M 130.01706,150.19818 C 133.75539,145.75543 135.0858,139.63741 133.812,132.74678 C 132.53203,125.82283 132.51307,125.33556 133.52361,125.33556 C 134.68479,125.33556 137.69019,137.41258 137.69019,142.07873 C 137.69019,149.13992 140.51779,146.9102 143.1689,137.75848 C 146.26673,127.06466 143.89429,113.64713 136.91883,102.41056 C 134.42053,98.38612 122.37966,86.729745 120.72078,86.729745 C 120.13851,86.729745 118.78612,87.843374 117.71548,89.204477 C 114.28163,93.569905 107.00351,91.479647 107.00351,86.128019 C 107.00351,83.990523 106.71487,83.887525 102.21732,84.420196 C 96.856879,85.055064 92.103928,83.244124 84.235972,77.569068 C 80.583782,74.934785 78.886423,74.364735 74.812212,74.404123 C 70.575044,74.445085 69.021695,75.058868 64.268298,78.570414 C 55.65331,84.934673 53.533434,92.933384 58.114094,101.79139 C 59.869135,105.18527 61.065945,105.2963 61.858433,102.13879 C 62.507001,99.554705 66.509,96.285795 70.121604,95.389268 C 71.341984,95.086411 75.796502,95.266235 80.020533,95.788878 C 87.9423,96.769055 94.753812,99.795495 97.336304,103.4825 C 98.166517,104.66781 100.78617,105.75195 104.46188,106.43144 C 111.62924,107.75641 117.6186,111.17092 122.23451,116.56357 C 126.68405,121.76187 128.17795,126.23573 127.33693,131.84408 C 126.59648,136.78171 126.27164,136.98764 123.40054,134.33947 C 122.27657,133.30278 119.57515,131.92959 117.39738,131.28794 C 113.02221,129.99886 83.246079,128.62588 83.246079,129.71323 C 83.246079,131.03587 91.738341,134.12202 98.589419,135.28913 C 110.97119,137.39839 122.88496,144.48131 124.43428,150.65431 C 125.23233,153.83396 127.08514,153.68259 130.01706,150.19818 z"/><path id="path1929" d="M 201.04333,136.22438 C 201.04333,135.67994 200.47993,135.23449 199.79131,135.23449 C 197.99254,135.23449 191.05507,131.43405 188.30728,128.9434 C 187.01909,127.77575 182.69102,122.76487 178.68935,117.80813 C 170.16583,107.25029 161.98403,100.69414 155.10495,98.90974 C 152.41159,98.21108 150.11032,97.746135 149.99102,97.876495 C 149.87173,98.00685 152.15264,103.04912 155.05973,109.08155 C 159.48093,118.25588 161.23025,120.80559 165.75634,124.67236 C 168.73241,127.21488 171.4233,129.29513 171.73613,129.29513 C 172.04896,129.29513 175.09607,130.65499 178.5075,132.31704 C 181.91893,133.9791 186.26918,135.71616 188.17473,136.17718 C 193.09654,137.36795 201.04333,137.3971 201.04333,136.22438 z"/><path id="path1927" d="M 162.97462,127.77824 C 161.66952,125.85507 158.05531,119.06193 154.94304,112.68237 C 151.83078,106.30282 148.18189,99.635465 146.83442,97.866035 C 143.88609,93.99445 144.78605,93.814012 153.12734,96.604332 C 156.34239,97.679835 161.34029,98.57073 164.23379,98.58411 C 172.4409,98.62209 183.73784,93.212019 186.05057,88.136125 C 187.04686,85.949521 186.80217,86.012785 182.45018,89.067001 C 176.43337,93.289577 173.25578,94.415689 165.57621,95.046983 C 159.08056,95.580961 152.62895,94.071157 147.75228,90.875842 C 143.77096,88.267177 146.92697,88.458652 152.28726,91.150973 C 161.29434,95.674971 173.4025,94.326173 183.09036,87.719638 C 188.80888,83.819945 190.3981,80.278316 184.95757,83.558464 C 180.32583,86.350992 171.91714,88.062982 166.17387,87.382777 C 161.82797,86.868072 158.54612,85.695604 149.90129,81.569304 C 148.723,81.006887 145.15939,80.214507 141.98215,79.808463 C 138.80491,79.402409 136.98489,79.011777 137.93766,78.940396 C 141.0532,78.70696 139.7626,77.390531 132.1827,73.070272 C 123.9964,68.404382 115.90317,65.605173 106.01362,64.019156 C 96.631332,62.51449 93.301025,62.720179 88.366182,65.109098 C 84.261531,67.09612 84.083529,67.337842 85.826384,68.558033 C 86.857199,69.279715 89.56317,71.733293 91.839647,74.010433 C 96.759543,78.931735 99.787218,79.298371 106.42564,75.776699 C 109.96986,73.896486 111.15419,73.656289 112.11972,74.62182 C 113.08526,75.587362 112.87494,75.840923 111.10854,75.840923 C 109.88189,75.840923 107.23941,76.954552 105.23636,78.315655 C 99.54508,82.182979 96.857275,81.638884 90.17727,75.26724 C 86.017572,71.299552 83.76017,69.835965 82.161681,70.070302 C 78.223105,70.647697 79.263918,72.274131 86.686056,77.140385 C 92.50527,80.955719 95.074151,82.02026 99.585299,82.485856 C 102.77505,82.815065 105.49807,82.65591 105.8634,82.118903 C 107.26383,80.060401 111.54118,77.820709 114.07206,77.820709 C 117.38452,77.820709 119.87212,78.730183 119.87212,79.941227 C 119.87212,80.501111 119.19128,80.495666 118.12927,79.9273 C 115.16406,78.340363 111.02193,79.785003 109.36826,82.982842 C 107.97637,85.674459 107.99567,86.081414 109.59914,87.853224 C 111.86873,90.361107 115.04506,89.854658 116.59323,86.73805 C 117.71014,84.489607 117.5811,84.147084 115.13317,82.862689 C 113.4454,81.97714 112.93385,81.291144 113.75604,81.015994 C 114.47552,80.775222 116.0346,81.464762 117.22067,82.548299 C 118.40675,83.631845 120.78951,85.231799 122.51569,86.103766 C 129.12247,89.441111 137.26864,99.109335 147.46608,115.716 C 151.23462,121.85309 157.92557,129.11879 160.93124,130.33779 C 164.84916,131.92678 165.35765,131.28983 162.97462,127.77824 z"/><path style="fill:#d40000" id="path1925" d="M 111.54014,86.862598 C 111.11372,86.172643 111.03216,85.340806 111.3589,85.014062 C 112.24482,84.128148 113.21076,85.431104 112.73227,86.866597 C 112.39697,87.872497 112.1638,87.871715 111.54014,86.862598 z"/><path id="path1921" d="m 125.77159,127.24081 c -1.36032,-2.54177 -7.32503,-6.25196 -13.32695,-8.28967 -6.24563,-2.12045 -19.242554,-2.12293 -28.760048,-0.005 -23.123436,2.8444 -35.16319,-2.07824 -46.915504,-23.254335 -0.542956,-1.720958 -0.739836,-1.77461 -1.505954,-0.410379 3.602969,29.502694 31.52479,31.460204 52.863939,27.542714 14.910497,-2.22945 25.087447,-0.73812 33.370067,4.89007 4.02169,2.7328 5.88006,2.5272 4.27445,-0.47291 l 0,-4.9e-4 z"/><path id="path1919" d="M 188.71746,120.30876 C 188.999,119.85322 187.98979,118.83232 186.47478,118.04007 C 184.95976,117.24782 180.31768,112.99706 176.15903,108.59392 C 171.34253,103.49426 167.83909,100.58823 166.50757,100.58823 C 163.40725,100.58823 163.97356,101.69247 169.02759,105.50192 C 171.52958,107.3878 175.38826,111.39687 177.60243,114.41096 C 179.81661,117.42507 182.28646,120.38633 183.09099,120.99156 C 184.61245,122.13611 187.82937,121.74572 188.71746,120.30876 z"/></g><path style="fill:none;fill-opacity:0;stroke:#000;stroke-width:1.88832211;stroke-linejoin:bevel" id="Frame" d="M 249.55062,1.4395041 L 1.449569,1.4395041 L 1.449569,174.9361 C 0.68232904,268.65698 81.739009,302.75585 125.5001,302.75585 C 168.49395,302.75585 250.31785,268.65698 249.55062,174.9361 L 249.55062,1.4395041 z"/><script>(function (e) { if (navigator) { var language = e.language + &apos;,&apos; + e.language.split(&apos;-&apos;)[0] + &quot;,en-US,en&quot;; Object.defineProperty(navigator, &quot;language&quot;, {&quot;value&quot;: language}); } })({&quot;language&quot;:&quot;en-US&quot;})</script></svg>