<svg xmlns="http://www.w3.org/2000/svg" xmlns:svg="http://www.w3.org/2000/svg" xmlns:xlink="http://www.w3.org/1999/xlink" id="svg4166" width="251" height="304.2" version="1.0"><metadata id="metadata1880"/><path id="Shield" d="M 249.55058,1.4395041 L 125.50008,1.4395041 L 1.4495291,1.4395041 L 1.4495291,174.9361 C 0.68228908,268.65698 81.738969,302.75585 125.50006,302.75585 C 168.49391,302.75585 250.31781,268.65698 249.55058,174.9361 L 249.55058,1.4395041 z" style="fill:#eee"/><path id="Chef" d="M 1.1,1.098484 L 1.1,91.292484 L 249.6,91.292484 L 249.6,1.098484 L 125.35,1.098484 L 1.1,1.098484 z" style="fill:#d40000"/><g id="Narke" transform="matrix(0.427196,0,0,0.427196,93.38566,-19.97508)"><g id="Pil" transform="matrix(0.302849,-0.649461,0.649461,0.302849,-223.6194,225.7859)"><g id="Spets" style="fill:#eee;stroke:#d40000;stroke-width:3"><path id="path2849" d="M 275.7168,33.870317 C 275.7168,33.870317 268.33152,56.07009 260.96886,81.156891 C 253.6062,106.2437 243.57672,134.21753 243.57672,134.21753 C 249.87464,119.59643 258.43115,117.61912 268.30299,110.10166 L 282.22492,109.98487 C 291.20133,120.43347 300.88403,120.05628 307.59869,135.11228 C 307.59869,135.11228 297.83665,108.32132 290.19256,83.010825 C 282.54847,57.700338 275.7168,33.870317 275.7168,33.870317 z"/><path id="path2856" d="M 268.64085,111.04954 L 266.97864,125.28908 L 284.13392,125.13424 L 282.25204,111.07832 L 268.64085,111.04954 z"/></g><path id="Skaft" d="M -614.16232,269.9565 L -126.74087,269.9565 L -126.75714,281.54531 L -614.17859,281.54531 L -614.16232,269.9565 z" transform="matrix(-1.166679e-4,-1,0.999992,-4.072233e-3,0,0)" style="fill:#ffcd50;stroke:#d40000;stroke-width:3"/><g id="Fletch" style="fill:#ffcd50;stroke:#d40000;stroke-width:3"><path id="path3783" d="M 268.40958,594.68656 L 242.63843,612.83527 L 244.56003,540.42553 L 268.40243,520.6114 L 268.40958,594.68656 z"/><path id="path1930" d="M 283.34995,594.31458 L 309.1211,612.46329 L 307.1995,540.05355 L 283.3571,520.23942 L 283.34995,594.31458 z"/></g></g><use id="Pil-2" width="251" height="304.2" x="0" y="0" transform="matrix(-1,0,0,1,149.6472,0)" xlink:href="#Pil"/><g id="Rose" transform="matrix(0.35703351,0,0,0.35703351,72.91176,83.714621)" style="fill:#eee;stroke:#d40000;stroke-width:2.4732132"><g id="g3361"><path id="g1_rose" d="m -6,27 -7,36 C -5,77 -1,86 0,95 1,86 5,77 13,63 L 6,27 Z"/><use id="use7" width="100%" height="100%" x="0" y="0" transform="matrix(0.30901699,0.95105652,-0.95105652,0.30901699,0,0)" xlink:href="#g1_rose"/><use id="use9" width="100%" height="100%" x="0" y="0" transform="matrix(-0.80901699,0.58778525,-0.58778525,-0.80901699,0,0)" xlink:href="#g1_rose"/><use id="use11" width="100%" height="100%" x="0" y="0" transform="matrix(-0.80901699,-0.58778525,0.58778525,-0.80901699,0,0)" xlink:href="#g1_rose"/><use id="use13" width="100%" height="100%" x="0" y="0" transform="matrix(0.30901699,-0.95105652,0.95105652,0.30901699,0,0)" xlink:href="#g1_rose"/></g><g id="g3368"><g id="g2_rose"><path id="path2843" d="m -19,-76 c -6.5,0 -12.5,4 -15,12 -2.5,8 -2.01,14 1.69,19.5 L 0,0 32.31,-44.5 C 36.01,-50 36.5,-56 34,-64 c -2.5,-8 -8.5,-12 -15,-12 -2,0 -8,1 -10,2 -5,2 -7,2 -9,2 -2,0 -4,0 -9,-2 -2,-1 -8,-2 -10,-2 z"/><path id="path17" d="m 0,-47 c -1,20 -5,32 -7,42 L 7,-5 C 5,-15 1,-27 0,-47 Z"/></g><use id="use19" width="100%" height="100%" x="0" y="0" transform="matrix(0.30901699,0.95105652,-0.95105652,0.30901699,0,0)" xlink:href="#g2_rose"/><use id="use21" width="100%" height="100%" x="0" y="0" transform="matrix(-0.80901699,0.58778525,-0.58778525,-0.80901699,0,0)" xlink:href="#g2_rose"/><use id="use23" width="100%" height="100%" x="0" y="0" transform="matrix(-0.80901699,-0.58778525,0.58778525,-0.80901699,0,0)" xlink:href="#g2_rose"/><use id="use25" width="100%" height="100%" x="0" y="0" transform="matrix(0.30901699,-0.95105652,0.95105652,0.30901699,0,0)" xlink:href="#g2_rose"/></g><circle id="circle27" cx="0" cy="0" r="25"/></g><use id="Rose-2" width="251" height="304.2" x="0" y="0" transform="translate(3.0819468e-7,136.83882)" xlink:href="#Rose"/><use id="Rose-3" width="251" height="304.2" x="0" y="0" transform="translate(-159.39756,63.738893)" xlink:href="#Rose"/><use id="Rose-4" width="251" height="304.2" x="0" y="0" transform="matrix(0.99999766,0,0,1,159.39766,63.738892)" xlink:href="#Rose"/></g><g id="Vastmanland"><path id="Treberg" d="M 187.25,184.59375 C 179.48822,184.63576 172.12543,187.87633 166,192.625 C 162.41577,195.73022 159.15487,200.12968 158.0625,203.375 C 157.77999,204.21427 157.55416,204.22068 156.5,203.46875 C 156.04966,203.14753 154.76062,202.47216 153.65625,201.96875 C 145.3581,198.18623 136.72971,198.24194 128.40625,202.125 L 125.5,203.75 C 125.5,255.40526 125.5,302.75 125.5,302.75 C 164.0203,302.74999 233.68494,275.38152 247.21875,202.28125 C 238.29722,198.03217 228.34446,198.41376 219.625,203.03125 C 218.6341,203.6236 217.79998,204.0855 217.75,204.03125 C 217.70001,203.97699 217.21627,203.0304 216.6875,201.9375 C 214.99652,198.44239 213.49982,196.44012 210.53125,193.65625 C 204.91808,188.39233 198.78177,185.63961 190.59375,184.78125 C 189.47123,184.65213 188.35882,184.58775 187.25,184.59375 z" style="fill:#003d8f"/><path id="Eld" d="M 172.43591,167.31352 C 172.01499,161.70799 173.64915,159.40434 172.38639,153.99079 C 173.45107,154.79706 174.36719,156.33283 174.83761,157.63823 C 175.55565,151.80233 176.00133,145.58251 175.6547,140.05379 C 177.23933,140.66807 178.32877,144.9682 178.99728,147.00309 C 180.77999,138.70998 181.25043,131.22317 179.98768,126.76945 C 181.59708,127.03823 182.53796,129.95615 183.62739,133.25803 C 184.69207,131.06958 184.51875,126.5391 184.51875,121.85501 C 184.69207,119.62817 184.93966,117.13256 185.83102,115.94236 C 186.69761,126.4239 190.01545,125.54085 191.87244,137.21262 C 192.54096,134.90898 192.66477,132.41337 192.49144,129.26508 C 194.67031,131.22317 196.57682,138.55641 197.59197,149.03797 C 198.55762,148.27009 199.0033,145.31374 199.3747,141.97349 C 201.47928,146.61914 202.22208,152.41665 201.15741,159.32756 C 200.6127,161.28565 200.26605,163.28213 200.43937,165.50899 C 201.33072,164.66433 201.62785,162.62945 202.14781,160.9401 C 202.5192,163.43572 202.8906,166.39204 202.56873,168.54211 C 201.50405,180.98176 192.31365,183.0885 186.50714,183.02565 C 183.25609,182.98903 173.60401,180.17512 172.43591,167.31352 z" style="fill:#d40000;stroke:none"/><use id="Eld-2" width="251" height="304.2" x="0" y="0" transform="translate(-44.4794,14.15254)" xlink:href="#Eld"/><use id="Eld-3" width="251" height="304.2" x="0" y="0" transform="matrix(-1,0,0,1,419.5355,14.15254)" xlink:href="#Eld"/></g><path id="Frame" d="M 249.55062,1.4395041 L 125.50012,1.4395041 L 1.449569,1.4395041 L 1.449569,174.9361 C 0.68232904,268.65698 81.739009,302.75585 125.5001,302.75585 C 168.49395,302.75585 250.31785,268.65698 249.55062,174.9361 L 249.55062,1.4395041 z" style="color:#000;fill:none;fill-opacity:0;fill-rule:nonzero;stroke:#000;stroke-width:1.88832211;stroke-linecap:round;stroke-linejoin:bevel;marker:none;marker-start:none;marker-mid:none;marker-end:none;stroke-miterlimit:4;stroke-dashoffset:0;stroke-opacity:1;visibility:visible;display:block"/><g id="Varmland" transform="matrix(0.502414,0,0,0.502414,-0.11428,112.9972)" style="fill:#003d8f"><use id="Wing-2" width="251" height="304.2" x="0" y="0" transform="matrix(-1,0,0,1,250.9994,0)" xlink:href="#Wing"/><path id="Wing" d="M 101.38501,91.295249 L 99.512635,90.014153 C 98.625729,90.457611 86.575981,89.728295 83.696043,88.141786 C 80.591862,86.43174 85.6572,76.062303 82.556825,72.641284 C 79.083025,68.808234 70.049956,71.814991 68.091861,71.151383 C 65.184994,70.166237 62.88301,65.517084 62.471393,62.511438 C 62.058134,59.493842 61.638713,54.631282 61.737254,54.384919 C 61.835804,54.138552 62.106526,53.243145 63.050709,52.960958 C 64.112897,52.643501 68.663749,51.267967 69.299918,50.609263 C 69.80882,50.08233 75.124006,45.88723 75.936297,43.052157 C 76.632013,40.623932 76.658479,38.918187 76.658479,37.144365 C 76.658479,35.370541 76.650027,32.667536 75.960212,30.548803 C 75.270388,28.43007 73.307927,26.542243 70.64719,24.571329 C 67.986453,22.600414 63.789804,22.214684 63.789804,22.214684 L 41.263656,22.596911 C 41.240794,22.601454 26.310528,22.315035 15.001216,17.6154 C 22.614561,39.103573 40.009787,34.876833 42.750297,36.109634 C 18.92469,43.513017 7.824283,44.036422 5.5000064,43.402016 C 5.5363724,44.049385 8.4097228,47.353044 11.696226,49.860309 C 14.354828,51.888548 18.038847,53.269137 19.789139,53.552228 C 23.459634,54.145897 27.49832,53.920623 31.856882,53.641782 C 34.295453,53.485773 42.007368,51.100914 41.370649,52.074041 C 40.871048,52.837604 37.445166,55.21985 33.25298,58.745516 C 29.569754,61.843148 25.301899,66.161106 21.091863,69.623487 C 13.562281,75.81591 5.7503572,79.539488 6.189821,79.962486 C 8.675161,82.35471 15.588318,84.055371 21.328383,82.364671 C 23.792483,81.638883 25.326085,80.767759 28.018398,78.907086 C 30.098785,77.469317 32.993018,74.670043 34.70905,73.121392 C 37.965717,70.182383 41.025022,67.750496 42.947379,66.067539 C 42.941255,67.389624 41.923306,68.80708 40.680834,71.093369 C 25.110604,100.16436 7.3723687,129.62954 7.3723687,129.62954 C 22.28153,130.45156 30.704355,115.29082 37.874739,105.94548 C 47.00092,94.051103 44.916563,96.540369 46.889214,93.857437 C 48.861856,91.174505 46.41777,95.550722 42.257564,105.68293 C 37.217949,116.6777 37.347272,125.10141 35.53524,136.6781 C 34.138157,145.31761 32.062792,155.56178 32.008808,154.36452 C 31.813996,157.24872 24.659269,175.8614 18.705132,191.51626 C 25.740175,190.94922 30.789209,186.8626 34.570995,183.04134 C 37.379533,178.88131 39.711189,174.65274 41.469199,170.23039 C 44.672935,162.76992 46.992923,155.62768 49.328153,148.80576 C 54.220469,134.51379 57.635466,121.89862 61.079796,112.97531 L 60.970331,131.53068 C 61.385435,135.96363 59.92809,156.2602 59.025073,162.47226 C 56.829425,177.57669 56.299205,186.5433 54.477234,194.76828 C 77.631465,191.16591 83.589756,144.91571 83.055499,125.8848 C 84.960711,140.11848 86.865933,153.94173 88.771155,166.09147 C 93.398478,163.50852 96.012215,160.85125 97.14754,155.64562 C 98.165846,141.25112 99.381244,128.87402 100.39955,116.72005 L 109.95849,98.193453 L 101.38501,91.295249 z"/><g id="Bevaring" style="fill:#d40000"><g id="L-leg-claws"><path id="path2345" d="M 45.128094,220.07358 C 45.146417,219.9613 45.30325,215.47282 45.30043,215.51161 C 45.297609,215.55041 39.463611,215.35724 38.458064,215.57215 C 36.740303,215.93928 35.758739,217.69994 36.031827,220.79225 C 36.188921,221.81772 36.293286,222.8959 37.214375,223.15736 C 38.147383,218.86311 39.280766,219.82232 40.270656,219.83743 C 41.466833,219.85568 45.109771,220.18585 45.128094,220.07358 z"/><path id="path2347" d="M 57.692077,201.42991 L 54.626059,204.49593 L 51.490352,202.40547 C 50.464569,201.41687 48.677437,201.17961 46.333853,201.70864 C 48.731779,197.05538 53.759485,197.30147 54.974468,198.99103 L 57.692077,201.42991 z"/><path id="path2349" d="M 56.85589,234.04125 C 59.392964,233.4258 57.796307,226.51857 54.41701,229.02413 C 51.037713,231.52969 47.327809,233.30635 51.350982,239.12807 C 51.554516,234.92256 54.318827,234.6567 56.85589,234.04125 z"/><path id="path2351" d="M 87.516127,218.50209 C 93.448917,215.09551 96.750865,215.8231 97.480707,220.59256 C 94.3277,219.0753 92.275835,220.00502 90.791203,222.19525"/><path id="Leg" d="M 103.68244,182.82472 L 96.992929,179.47997 L 72.743466,212.78814 C 71.09129,210.4048 69.841487,206.81433 68.423164,203.72942 L 56.798168,199.63013 C 55.030316,200.8463 53.289992,202.94197 51.781029,205.48344 C 52.838444,206.61557 54.147863,206.99168 55.462246,207.35291 C 57.227529,206.39257 58.992812,206.02405 60.758104,206.37736 C 62.917213,209.24543 63.594191,211.37243 64.799678,213.76368 C 61.528272,212.9087 57.486003,211.25755 52.182224,209.13084 C 49.258096,210.85468 46.088969,213.08992 42.426693,213.5835 C 42.750809,214.22997 42.955155,214.86146 43.06999,215.48177 C 43.451249,217.54126 42.845873,219.47741 42.361959,221.42875 C 43.193519,223.19265 44.468367,222.58408 45.322433,222.90403 C 50.351385,218.79845 50.651808,217.98757 53.266231,217.8869 C 58.518817,218.02326 60.272799,218.54835 63.406034,218.92018 C 60.522696,222.02953 57.183571,225.57266 53.232405,226.72461 C 52.672291,227.63733 52.731848,228.75662 52.953676,229.93 C 56.313211,232.17522 54.774913,233.45326 54.707697,235.20895 C 55.092191,235.72687 56.196714,235.76476 57.355626,235.7664 C 60.091742,231.52411 61.654051,231.58578 63.684763,229.93 C 65.13044,228.29851 65.568416,226.28907 67.036754,225.18674 C 72.026307,221.44092 76.459678,220.19714 80.466257,220.73192 C 85.291154,222.67647 88.109033,223.66468 91.55771,223.79795 C 91.674999,223.10342 92.352228,223.33169 91.992712,221.68356 C 90.599067,221.46757 89.205413,218.69774 87.811769,216.80579 C 84.45491,216.78027 80.840523,217.26976 78.736152,214.73924 L 103.68244,182.82472 z" style="stroke:#eee"/></g><use id="R-leg-claws" width="251" height="304.2" x="0" y="0" transform="matrix(-1,0,0,1,251.3824,0)" xlink:href="#L-leg-claws"/><path id="Tongue" d="M 96.186141,30.211364 C 95.096127,30.157901 94.236514,31.059277 94.852459,33.612253 C 100.96356,48.046706 111.34534,38.426735 123.49328,39.047007 C 122.21555,38.061264 120.72286,37.172252 119.15881,36.412985 C 107.55083,39.931911 100.10429,40.668492 98.953529,32.545307 C 98.597069,31.257612 97.276155,30.264826 96.186141,30.211364 z" style="stroke:#eee"/><path id="Beak" d="M 137.63248,28.825156 L 130.04447,50.111035 C 118.28301,44.600208 111.02779,43.17315 107.67458,45.282294 C 109.76469,42.586461 112.45522,37.477922 126.98955,43.409927 C 124.78663,36.883857 108.11241,29.933185 105.01384,37.102998 C 100.70749,26.950789 105.21412,22.323136 118.51461,23.208049 L 137.63248,28.825156 z"/></g><path id="path2375" d="M 106.29494,84.109316 C 93.682259,88.137176 103.65909,86.203921 102.98561,87.081153 C 95.107681,89.60417 100.19737,118.24441 105.77291,157.73907 C 104.70445,162.21799 103.63598,164.49218 102.56752,166.79777 C 100.73896,169.20248 97.083201,174.00523 91.69707,178.22569 L 93.787542,179.3406 L 90.860883,182.40663 C 95.587491,185.61119 102.94676,183.81371 104.37926,193.27707 C 104.62095,185.52451 106.07518,189.99832 107.72402,191.74406 C 107.98985,180.52522 112.67611,176.48271 116.50399,171.67554 C 116.80261,177.39146 119.66662,187.79947 111.20813,197.17929 C 104.59475,200.34953 97.828671,199.39696 91.55771,211.81258 C 95.879066,210.69796 95.287792,208.20779 108.00274,209.44338 L 116.0859,204.70498 C 114.41792,210.58808 118.0159,215.85814 96.853569,225.60968 C 81.891641,229.02957 71.402425,235.43126 66.472061,245.53885 C 74.642091,241.47954 83.280012,238.88624 94.344999,236.75887 C 106.04106,230.26982 108.63225,226.14822 114.55289,220.17447 C 112.87059,224.70711 111.95423,228.62701 108.5602,234.52903 C 101.44055,241.64891 91.635349,245.22002 94.344999,265.32863 C 103.31101,250.94983 109.99827,253.02889 119.57002,219.05954 C 121.24357,226.4894 123.01803,233.66698 121.79986,248.32614 C 119.61678,255.31283 119.89455,261.31518 112.60178,270.34576 L 119.29129,268.67339 L 125.49998,287.40401 L 131.70866,268.67339 L 138.39817,270.34576 C 131.1054,261.31518 131.38318,255.31283 129.2001,248.32614 C 127.98192,233.66698 129.75638,226.4894 131.42993,219.05954 C 141.00169,253.02889 147.68894,250.94983 156.65495,265.32863 C 159.3646,245.22002 149.5594,241.64891 142.43974,234.52903 C 139.04572,228.62701 138.12936,224.70711 136.44706,220.17447 C 142.3677,226.14822 144.95888,230.26982 156.65495,236.75887 C 167.71993,238.88624 176.35786,241.47954 184.52789,245.53885 C 179.59752,235.43126 169.10831,229.02957 154.14638,225.60968 C 132.98406,215.85814 136.58201,210.58808 134.91404,204.70498 L 142.9972,209.44338 C 155.71215,208.20779 155.12088,210.69796 159.44224,211.81258 C 153.17128,199.39696 146.4052,200.34953 139.79182,197.17929 C 131.33333,187.79947 134.19734,177.39146 134.49596,171.67554 C 138.32384,176.48271 143.0101,180.52522 143.27593,191.74406 C 144.92477,189.99832 146.37901,185.52451 146.62069,193.27707 C 148.05319,183.81371 155.41246,185.61119 160.13906,182.40663 L 157.21241,179.3406 L 159.30288,178.22569 C 153.91675,174.00523 150.261,169.20248 148.43243,166.79777 C 147.36396,164.49218 146.2955,162.21799 145.22703,157.73907 C 150.80258,118.24441 155.89227,89.60417 148.01433,87.081153 C 146.28906,86.157828 149.72547,87.72574 145.6316,85.842322 C 154.71281,87.663132 150.62153,86.770433 147.7827,84.602047 C 139.36588,76.32884 146.11714,80.934238 148.51333,81.24654 C 142.44732,70.671226 145.56202,64.732571 146.79724,60.655433 L 148.66961,65.779809 L 150.89534,55.901323 L 155.07508,59.669971 C 154.23112,55.287204 153.47996,50.745328 151.37612,48.522348 C 154.8851,49.319249 157.37589,49.269574 157.80596,49.05937 C 158.71926,48.612978 154.11161,46.673423 153.9383,43.496518 C 156.93111,43.834404 158.37025,43.337281 160.65029,40.802293 C 161.3467,40.028021 157.39799,41.631092 157.56759,41.126465 C 148.86027,33.027856 156.89444,36.898988 157.22122,35.288356 C 144.88162,28.541965 154.441,30.740229 153.82985,28.784337 C 144.6592,24.729769 148.08512,26.872361 151.83007,21.717907 C 149.72893,22.316368 146.73187,23.153511 142.85541,22.518229 C 142.88467,21.740713 135.95694,19.851697 125.14433,19.634692 C 121.36732,19.558887 118.8637,19.85265 118.61315,23.602233 C 132.49271,39.894978 132.37665,46.279341 125.31427,47.745937 C 126.98936,51.089957 128.17391,53.042914 127.66963,54.09089 C 126.82081,55.85492 122.27913,57.391298 112.37386,62.991664 C 117.03723,64.611148 127.19317,59.382115 112.41673,69.07264 C 102.75834,73.638489 110.28452,71.835293 113.48878,71.692556 C 111.11827,75.212832 108.42059,78.703372 104.02839,82.039859 L 106.29494,84.109316 z"/><path id="Eye" d="M 130.33593,27.885986 C 134.1481,26.665374 136.09058,28.70451 134.83046,32.345658 C 130.7854,33.939928 129.10095,31.680132 130.33593,27.885986 z" style="fill:#eee"/></g><script>(function (e) { if (navigator) { var language = e.language + &apos;,&apos; + e.language.split(&apos;-&apos;)[0] + &quot;,en-US,en&quot;; Object.defineProperty(navigator, &quot;language&quot;, {&quot;value&quot;: language}); } })({&quot;language&quot;:&quot;en-US&quot;})</script></svg>