<svg xmlns="http://www.w3.org/2000/svg" xmlns:cc="http://web.resource.org/cc/" xmlns:svg="http://www.w3.org/2000/svg" xmlns:xlink="http://www.w3.org/1999/xlink" id="svg4166" width="251" height="304.2" version="1.0"><metadata id="metadata1880"/><path style="fill:#eee;stroke:none" id="Shield" d="M 249.55058,1.4395041 L 125.50008,1.4395041 L 1.4495291,1.4395041 L 1.4495291,174.9361 C 0.68228908,268.65698 81.738969,302.75585 125.50006,302.75585 C 168.49391,302.75585 250.31781,268.65698 249.55058,174.9361 L 249.55058,1.4395041 z"/><path style="fill:#d40000;stroke:none" id="Eld" d="M 95.641112,114.63308 C 94.808342,103.54285 98.04144,98.985214 95.543147,88.274827 C 97.64955,89.869983 99.46204,92.908403 100.39275,95.491072 C 101.81334,83.945083 102.6951,71.639511 102.0093,60.701265 C 105.1444,61.916582 107.29981,70.424145 108.62241,74.450059 C 112.14941,58.042615 113.08014,43.230375 110.58186,34.418951 C 113.76596,34.95071 115.62744,40.723654 117.78282,47.25624 C 119.88922,42.926503 119.54633,33.96322 119.54633,24.696017 C 119.88922,20.29033 120.37907,15.352912 122.14258,12.998169 C 123.85708,33.735304 130.42124,31.988237 134.09517,55.080161 C 135.4178,50.522552 135.66275,45.585126 135.31984,39.356406 C 139.63061,43.230375 143.40253,57.738778 145.41095,78.475953 C 147.32142,76.956736 148.20317,71.107774 148.93798,64.49928 C 153.10177,73.690437 154.57136,85.160467 152.46497,98.833319 C 151.38728,102.70728 150.70145,106.65721 151.04437,111.06292 C 152.80785,109.3918 153.39571,105.36592 154.42441,102.02363 C 155.15919,106.96108 155.89398,112.80999 155.25718,117.06378 C 153.15076,141.67491 134.96808,145.84298 123.48024,145.71862 C 117.04822,145.64618 97.95214,140.07901 95.641112,114.63308 z"/><use id="Eld-2" width="251" height="304.2" x="0" y="0" transform="translate(-87.99996,28)" xlink:href="#Eld"/><use id="Eld-3" width="251" height="304.2" x="0" y="0" transform="matrix(-1,0,0,1,339.0001,28)" xlink:href="#Eld"/><path style="fill:#003d8f" id="Treberg" d="M 124.9418,148.84281 C 109.58556,148.92595 94.997124,155.31851 82.87831,164.71349 C 75.787134,170.85699 69.385817,179.55703 67.224617,185.97771 C 66.665699,187.63818 66.179476,187.68233 64.093879,186.19469 C 63.202902,185.55916 60.69929,184.21491 58.514345,183.21894 C 42.096931,175.73542 24.982996,175.84651 8.515521,183.52892 L 2.781,186.69065 C 8.415556,271.06901 84.636897,302.125 125.49975,302.12501 C 167.16295,302.12501 242.87167,270.96214 248.2185,186.25669 L 246.04868,185.04779 C 227.78425,175.35018 207.07051,175.73345 189.01345,185.29577 C 187.05302,186.46773 185.39265,187.35594 185.29376,187.24861 C 185.19485,187.14128 184.26306,185.2882 183.21693,183.12595 C 179.87142,176.21108 176.90808,172.23605 171.03495,166.72832 C 159.92958,156.31396 147.77477,150.913 131.57524,149.21478 C 129.35439,148.95932 127.13554,148.83094 124.9418,148.84281 z"/><path style="fill:none;fill-opacity:0;stroke:#000;stroke-width:1.88832211;stroke-linecap:round" id="Frame" d="M 249.55062,1.4395041 L 125.50012,1.4395041 L 1.449569,1.4395041 L 1.449569,174.9361 C 0.68232904,268.65698 81.739009,302.75585 125.5001,302.75585 C 168.49395,302.75585 250.31785,268.65698 249.55062,174.9361 L 249.55062,1.4395041 z"/><script>(function (e) { if (navigator) { var language = e.language + &apos;,&apos; + e.language.split(&apos;-&apos;)[0] + &quot;,en-US,en&quot;; Object.defineProperty(navigator, &quot;language&quot;, {&quot;value&quot;: language}); } })({&quot;language&quot;:&quot;en-US&quot;})</script></svg>