<svg xmlns="http://www.w3.org/2000/svg" xmlns:cc="http://web.resource.org/cc/" xmlns:svg="http://www.w3.org/2000/svg" xmlns:xlink="http://www.w3.org/1999/xlink" id="svg4166" width="251" height="304.2" version="1.0"><metadata id="metadata1880"/><path style="fill:#003d8f;fill-opacity:1;stroke:none" id="Shield" d="M 249.55058,1.4395041 L 1.4495291,1.4395041 L 1.4495291,174.9361 C 0.68228908,268.65698 81.738969,302.75585 125.50006,302.75585 C 168.49391,302.75585 250.31781,268.65698 249.55058,174.9361 L 249.55058,1.4395041 z"/><use id="pil2" width="251" height="304.2" x="0" y="0" transform="matrix(-1,0,0,1,250.9999,4.55409e-4)" xlink:href="#Dalpil"/><g id="Dalpil" transform="matrix(0.810381,-0.679987,0.679987,0.810381,-283.3483,275.2856)"><path style="fill:#ffcd50;fill-opacity:1;stroke:none" id="fjader" d="M 370.84694,180.79635 C 362.04207,204.69529 353.2372,228.59423 350.72152,243.05937 C 348.20584,257.52452 352.74462,259.88849 357.01071,262.55587 C 362.04207,265.70175 368.33126,270.92357 374.62046,270.92357 C 380.90965,270.92357 387.19884,265.25234 392.2302,262.55587 C 396.66484,260.17921 401.03507,257.52452 398.51939,243.05937 C 396.00372,228.59423 387.19884,204.69529 378.39397,180.79635"/><path style="fill:#eee;fill-opacity:1;stroke:none" id="spets" d="M 370.96373,94.005476 L 378.51076,94.005476 L 386.71385,63.101353 L 374.73725,22.308664 L 362.528,63.101353 L 370.96373,94.005476 z"/><path style="fill:#ffcd50;fill-opacity:1;stroke:#003d8f;stroke-width:1;stroke-miterlimit:4;stroke-dasharray:none;stroke-opacity:1" id="skaft" d="M 369.57897,280.37077 L 379.66194,280.37077 L 378.40156,94.171607 L 370.83935,94.171607 L 369.57897,280.37077 z"/></g><path style="fill:#ffcd50;stroke:none" id="Crown" d="M 75.5,19.22543 C 82.660898,29.362279 86.977008,41.231612 87.999998,53.600432 L 87.999998,72.350432 C 112.8264,68.183772 138.17361,68.183772 162.99999,72.350432 L 162.99999,53.600432 C 164.02298,41.231612 168.3391,29.362279 175.5,19.22543 C 172.44189,16.44478 167.73889,16.55647 164.81621,19.479148 C 161.89354,22.401827 161.78185,27.104814 164.5625,30.162928 L 162.30937,35.119532 C 160.99071,32.552526 158.08594,31.222134 155.28089,31.900495 C 152.47585,32.578845 150.49997,35.089542 150.5,37.975422 C 150.50002,39.897852 151.38474,41.713292 152.89882,42.897852 C 154.41292,44.082422 156.3879,44.504322 158.25382,44.041752 L 156.75001,47.350432 C 156.07754,49.368162 154.18935,50.729182 152.0625,50.729182 C 149.93566,50.729182 148.04747,49.368162 147.37501,47.350432 L 147.37501,28.600431 C 149.10089,28.600431 150.5,27.201323 150.5,25.475426 C 150.5,23.749544 149.10089,22.350431 147.37501,22.350431 C 145.6491,22.350431 144.25001,23.749544 144.25001,25.475426 C 144.24998,26.870768 145.175,28.097041 146.51666,28.480295 L 141.12499,47.350432 C 140.4031,49.627802 138.11641,51.027732 135.75988,50.634972 C 133.40333,50.242202 131.69426,48.176322 131.75001,45.787932 L 131.0441,39.788972 C 132.92911,41.251282 135.48217,41.512922 137.62461,40.463362 C 139.76704,39.413802 141.12511,37.236142 141.12499,34.850432 C 141.12499,32.198544 139.45147,29.835356 136.95,28.954939 C 134.4485,28.074508 131.66375,28.868559 130.00278,30.93585 L 129.61597,27.648697 C 132.83416,26.076134 134.87505,22.807282 134.875,19.22543 C 134.87495,14.746068 131.70611,10.892513 127.31111,10.027169 L 127.0625,8.2879323 C 127.0625,7.4249873 126.36295,6.7254323 125.50001,6.7254323 C 124.63707,6.7254323 123.93751,7.4249873 123.93751,8.2879323 L 123.68889,10.027169 C 119.29391,10.892513 116.12507,14.746068 116.12499,19.22543 C 116.12494,22.807282 118.16584,26.076134 121.38403,27.648697 L 120.99723,30.93585 C 119.33626,28.868559 116.5515,28.074508 114.05,28.954939 C 111.54853,29.835356 109.875,32.198544 109.875,34.850432 C 109.87489,37.236142 111.23296,39.413802 113.3754,40.463362 C 115.51783,41.512922 118.07088,41.251282 119.95591,39.788972 L 119.25001,45.787932 C 119.30575,48.176322 117.59667,50.242202 115.24012,50.634972 C 112.88358,51.027732 110.59689,49.627802 109.875,47.350432 L 104.48333,28.480295 C 105.825,28.097041 106.75002,26.870768 106.75001,25.475426 C 106.75001,23.749544 105.35088,22.350431 103.62499,22.350431 C 101.89911,22.350431 100.5,23.749544 100.5,25.475426 C 100.5,27.201323 101.89911,28.600431 103.62499,28.600431 L 103.62499,47.350432 C 102.95253,49.368162 101.06434,50.729182 98.937498,50.729182 C 96.810648,50.729182 94.922458,49.368162 94.249988,47.350432 L 92.746168,44.041752 C 94.612118,44.504322 96.587098,44.082422 98.101168,42.897852 C 99.615258,41.713292 100.49998,39.897852 100.5,37.975422 C 100.50003,35.089542 98.524148,32.578845 95.719118,31.900495 C 92.914068,31.222134 90.009298,32.552526 88.690618,35.119532 L 86.437498,30.162928 C 89.218138,27.104814 89.106458,22.401827 86.183788,19.479148 C 83.261108,16.55647 78.558119,16.44478 75.5,19.22543 z"/><path style="fill:none;fill-opacity:0;stroke:#000;stroke-width:1.88832211;stroke-linejoin:bevel" id="Frame" d="M 249.55062,1.4395041 L 1.449569,1.4395041 L 1.449569,174.9361 C 0.68232904,268.65698 81.739009,302.75585 125.5001,302.75585 C 168.49395,302.75585 250.31785,268.65698 249.55062,174.9361 L 249.55062,1.4395041 z"/><script>(function (e) { if (navigator) { var language = e.language + &apos;,&apos; + e.language.split(&apos;-&apos;)[0] + &quot;,en-US,en&quot;; Object.defineProperty(navigator, &quot;language&quot;, {&quot;value&quot;: language}); } })({&quot;language&quot;:&quot;en-US&quot;})</script></svg>