<svg xmlns="http://www.w3.org/2000/svg" xmlns:cc="http://web.resource.org/cc/" xmlns:svg="http://www.w3.org/2000/svg" xmlns:xlink="http://www.w3.org/1999/xlink" id="svg4166" width="251" height="304.2" version="1.0"><metadata id="metadata1880"/><defs id="defs4168"><clipPath id="clipPath1967"><path id="use1958" d="M 249.55058,1.4395041 L 125.50005,1.4395041 C 125.50005,1.4395041 125.50006,302.75585 125.50006,302.75585 C 168.49391,302.75585 250.31781,268.65698 249.55058,174.9361 L 249.55058,1.4395041 z"/></clipPath></defs><path style="color:#000;fill:#003d8f;fill-opacity:1;stroke:none" id="Shield" d="M 249.55058,1.4395041 L 1.4495291,1.4395041 L 1.4495291,174.9361 C 0.68228908,268.65698 81.738969,302.75585 125.50006,302.75585 C 168.49391,302.75585 250.31781,268.65698 249.55058,174.9361 L 249.55058,1.4395041 z"/><g id="vagskuror" clip-path="url(#clipPath1967)"><path style="color:#000;fill:#eee;fill-opacity:1;fill-rule:nonzero;stroke:none;stroke-width:1.88832211;stroke-linecap:round;stroke-linejoin:bevel;marker:none;marker-start:none;marker-mid:none;marker-end:none;stroke-miterlimit:4;stroke-dashoffset:0;stroke-opacity:1;visibility:visible;display:block" id="wave-divider-2" d="M 132.40684,44.0625 C 123.62038,44.062508 120.78922,53.527419 115.81436,59.5625 L 115.81436,138.8125 C 117.34364,138.8125 249.09764,138.8125 249.56495,138.8125 L 249.56495,56 C 245.92538,50.391052 242.71253,44.0625 235.53293,44.0625 C 222.64092,44.062509 222.65184,64.5 209.75983,64.5 C 196.86782,64.499989 196.87874,44.0625 183.98673,44.0625 C 171.09472,44.062509 171.0888,64.5 158.19679,64.5 C 145.30477,64.499989 145.29885,44.0625 132.40684,44.0625 z"/><path style="color:#000;fill:#d40000;fill-opacity:1;fill-rule:nonzero;stroke:none;stroke-width:1.88832211;stroke-linecap:round;stroke-linejoin:bevel;marker:none;marker-start:none;marker-mid:none;marker-end:none;stroke-miterlimit:4;stroke-dashoffset:0;stroke-opacity:1;visibility:visible;display:block" id="wave-divider" d="M 132.40684,102.71875 C 123.62038,102.71876 120.78922,112.18367 115.81436,118.21875 L 115.81436,174.9375 C 115.77932,182.87611 116.0809,190.37019 116.63977,197.46875 C 119.73988,197.46875 246.67535,197.46875 248.73954,197.46875 C 249.30349,190.37073 249.59998,182.87543 249.56495,174.9375 L 249.56495,114.65625 C 245.92538,109.0473 242.71253,102.71875 235.53293,102.71875 C 222.64092,102.71876 222.65184,123.15625 209.75983,123.15625 C 196.86782,123.15624 196.87874,102.71875 183.98673,102.71875 C 171.09472,102.71876 171.0888,123.15625 158.19679,123.15625 C 145.30477,123.15624 145.29885,102.71875 132.40684,102.71875 z"/><path style="color:#000;fill:#eee;fill-opacity:1;fill-rule:nonzero;stroke:none;stroke-width:1.88832211;stroke-linecap:round;stroke-linejoin:bevel;marker:none;marker-start:none;marker-mid:none;marker-end:none;stroke-miterlimit:4;stroke-dashoffset:0;stroke-opacity:1;visibility:visible;display:block" id="wave-divider-3" d="M 132.40684,161.40625 C 123.62038,161.40626 120.78962,170.87117 115.81436,176.90625 C 115.85796,196.38682 117.82872,213.26388 121.12058,227.75 C 123.88943,223.61715 127.03283,220.06251 132.40684,220.0625 C 145.29885,220.0625 145.30477,240.49999 158.19679,240.5 C 171.0888,240.5 171.09472,220.06251 183.98673,220.0625 C 196.87874,220.0625 196.86782,240.49999 209.75983,240.5 C 222.65184,240.5 222.64092,220.06251 235.53293,220.0625 C 239.66022,220.0625 242.47578,222.15443 244.81462,225 C 247.87287,210.63931 249.64921,194.03211 249.56495,174.9375 L 249.56495,173.34375 C 245.92563,167.7348 242.71253,161.40625 235.53293,161.40625 C 222.64092,161.40626 222.65184,181.84375 209.75983,181.84375 C 196.86782,181.84374 196.87874,161.40625 183.98673,161.40625 C 171.09472,161.40626 171.0888,181.84375 158.19679,181.84375 C 145.30477,181.84374 145.29885,161.40625 132.40684,161.40625 z"/></g><g id="Lax" transform="matrix(0.226465,0,0,0.226465,2.921134,44.53789)"><path style="fill:#d40000;fill-opacity:1;fill-rule:evenodd;stroke:none;stroke-width:1.19354832px;stroke-linecap:butt;stroke-linejoin:miter;stroke-opacity:1" id="path27036" d="M 442.1552,81.482275 C 442.1552,81.482275 470.16642,55.316672 494.72988,47.949843 C 500.2782,46.285846 505.85287,48.097233 505.85287,48.097233 C 512.70367,65.423219 502.28382,97.343465 500.0626,109.5431 C 500.36455,118.80904 512.1778,130.28632 506.5608,172.05435 C 485.25038,172.91101 457.95798,148.7888 443.29989,140.79023 L 455.12659,111.50567 L 442.1552,81.482275 z"/><path style="fill:#d40000;fill-opacity:1;fill-rule:evenodd;stroke:none;stroke-width:1.19354832px;stroke-linecap:butt;stroke-linejoin:miter;stroke-opacity:1" id="path27012" d="M 274.93851,73.115584 C 271.02147,75.111363 234.15696,75.063128 236.23709,68.493737 C 238.31722,61.924346 253.87508,34.209065 275.54893,23.958782 C 288.71753,32.05099 290.51374,44.383765 302.83069,56.683936 C 303.64031,57.984849 303.81668,60.58513 301.8409,61.197053 C 290.69841,64.64802 278.85555,71.119805 274.93851,73.115584 z"/><path style="fill:#d40000;fill-opacity:1;fill-rule:evenodd;stroke:none;stroke-width:1.19354832px;stroke-linecap:butt;stroke-linejoin:miter;stroke-opacity:1" id="path27102" d="M 277.09764,162.20848 C 277.09764,162.20848 212.4624,133.04011 248.41171,168.21856 C 283.40351,201.96075 288.15832,198.26466 288.95624,198.26466 C 302.62647,198.26466 298.92164,169.81126 298.46425,168.76597 C 298.11057,167.95769 296.82394,166.59128 295.89876,166.46315 C 289.06685,165.51702 277.09764,162.20848 277.09764,162.20848 z"/><path style="fill:#d40000;fill-opacity:1;fill-rule:evenodd;stroke:none;stroke-width:1.19354832px;stroke-linecap:butt;stroke-linejoin:miter;stroke-opacity:1" id="path27082" d="M 380.90968,132.69006 C 364.8474,122.84849 338.09227,139.03897 344.42173,148.72263 C 350.75119,158.40629 366.12669,177.24311 382.41218,181.77455 C 384.54261,181.84032 387.50164,180.69285 388.44102,179.57715 C 399.60425,166.31866 399.88395,159.74265 400.07366,157.73284 C 410.62261,143.28712 406.91015,139.21243 406.91015,139.21243 C 405.95879,135.97576 396.97196,142.53163 380.90968,132.69006 z"/><path style="fill:#d40000;fill-opacity:1;fill-rule:evenodd;stroke:none;stroke-width:1.19354832px;stroke-linecap:butt;stroke-linejoin:miter;stroke-opacity:1" id="path27032" d="M 385.23267,91.64544 C 374.82232,93.80971 331.86441,81.62324 358.74423,81.88289 C 385.62405,82.14254 384.12232,68.777153 400.63838,76.00438 C 416.93225,83.134383 395.64302,89.48117 385.23267,91.64544 z"/><path style="fill:#eee;fill-opacity:1;fill-rule:evenodd;stroke:#003d8f;stroke-width:1.19354832px;stroke-linecap:butt;stroke-linejoin:miter;stroke-opacity:1" id="path27112" d="M 57.46529,130.4699 C 52.799508,129.34097 35.821451,132.30566 30.189836,120.19086 C 27.638587,119.86264 25.94016,121.53379 25.94016,121.53379 C 23.282723,122.48075 23.023488,125.81576 23.023488,125.81576 C 57.085094,171.78282 235.36006,168.93466 247.1497,168.02609 C 284.51884,165.09314 309.82128,157.55675 338.00396,157.83463 C 341.31653,157.39504 344.03094,153.20141 346.31961,152.5287 C 366.3027,146.65504 380.51134,136.38392 393.68162,132.50881 C 402.18718,130.64208 406.12411,131.2676 413.33018,130.8853 C 437.81886,129.22469 441.42479,141.15812 445.18918,140.63807 C 470.02677,140.4498 470.95509,81.46015 442.77365,81.34609 C 442.77365,81.34609 438.58109,90.22526 414.36389,94.34101 C 351.02353,80.35576 324.05804,68.81107 237.51793,64.55185 C 232.49482,64.29281 160.54876,60.136 98.42288,86.90551 C 76.411449,88.14974 48.722529,101.04487 48.722529,101.04487 C 48.722529,101.04487 28.676849,101.37513 29.782692,109.70814 C 33.987899,114.58503 54.958376,112.20898 66.391141,125.98678 C 70.917227,133.57691 62.160564,131.45887 57.46529,130.4699 z"/><path style="fill:none;fill-rule:evenodd;stroke:#003d8f;stroke-width:1.19354832px;stroke-linecap:butt;stroke-linejoin:miter;stroke-opacity:1" id="path27114" d="M 96.38125,98.55367 C 122.93862,89.75073 129.7712,104.93611 126.06102,120.71341 C 122.15976,137.30329 99.06675,152.8523 90.24967,156.85131"/><path style="fill:none;fill-rule:evenodd;stroke:#003d8f;stroke-width:1.19354832px;stroke-linecap:butt;stroke-linejoin:miter;stroke-opacity:1" id="path27128" d="M 122.86621,134.23399 C 133.04228,114.98751 137.8144,96.10967 108.29374,92.23743"/><path style="fill:#d40000;fill-opacity:1;fill-rule:evenodd;stroke:none;stroke-width:1.19354832px;stroke-linecap:butt;stroke-linejoin:miter;stroke-opacity:1" id="path27192" d="M 114.00205,153.63437 C 124.96384,151.5852 122.29782,145.70714 121.95899,144.23514 C 132.43301,142.68118 155.02323,124.94942 177.42449,134.14811 C 177.71375,150.69382 153.53751,160.21599 149.9382,160.89864 C 132.966,159.98608 124.01065,155.52458 114.00205,153.63437 z"/><g id="g2711"><path style="fill:#003d8f;fill-opacity:1;fill-rule:evenodd;stroke:none;stroke-width:1px;stroke-linecap:butt;stroke-linejoin:miter;stroke-opacity:1" id="path27212" d="M 61.777163,107.65207 C 62.676976,109.8214 70.158345,112.76889 71.931458,112.92421 C 73.70457,113.07951 75.110563,112.80957 77.353808,112.09782 C 80.29275,111.16533 82.791749,108.13451 82.651633,105.94196 C 82.445201,102.71167 79.345512,100.64621 72.73249,100.96541 C 69.59262,101.11697 61.107244,106.03698 61.777163,107.65207 z"/><path style="fill:#eee;fill-opacity:1;fill-rule:evenodd;stroke:none;stroke-width:1px;stroke-linecap:butt;stroke-linejoin:miter;stroke-opacity:1" id="path27214" d="M 72.393334,101.91468 C 69.864479,102.38531 68.564244,103.1995 68.822701,104.8182 C 69.081158,106.4369 71.035706,109.6213 73.722487,109.29931 C 76.409268,108.97733 80.530753,106.43202 79.243584,104.04408 C 78.305517,102.30379 76.565441,101.14577 72.393334,101.91468 z"/></g></g><use id="Lax-2" width="251" height="304.2" x="0" y="0" transform="matrix(-1,0,0,1,126.0001,66.47634)" xlink:href="#Lax"/><use id="Lax-3" width="251" height="304.2" x="0" y="0" transform="translate(2.504196e-7,132.9527)" xlink:href="#Lax"/><path style="fill:none;fill-opacity:0;stroke:#000;stroke-width:1.88832211;stroke-linejoin:bevel" id="Frame" d="M 249.55062,1.4395041 L 125.50009,1.4395041 L 1.449569,1.4395041 L 1.449569,174.9361 C 0.68232904,268.65698 81.739009,302.75585 125.5001,302.75585 C 168.49395,302.75585 250.31785,268.65698 249.55062,174.9361 L 249.55062,1.4395041 z"/><script>(function (e) { if (navigator) { var language = e.language + &apos;,&apos; + e.language.split(&apos;-&apos;)[0] + &quot;,en-US,en&quot;; Object.defineProperty(navigator, &quot;language&quot;, {&quot;value&quot;: language}); } })({&quot;language&quot;:&quot;en-US&quot;})</script></svg>