<svg xmlns="http://www.w3.org/2000/svg" width="1200" height="600" fill="#012169" viewBox="0 0 48 24"><clipPath id="c1"><path d="M0 0H24V14H0z"/></clipPath><clipPath id="c2"><path d="M0 0V6H22V12H21zM21 0H10.5V13H0V12z"/></clipPath><path d="M0 0H48V24H0z"/><path stroke="#fff" stroke-width="2.4" d="M0 0 28 16M21 0 0 12" clip-path="url(#c1)"/><path stroke="#c8102e" stroke-width="1.6" d="M0 0 28 16M21 0 0 12" clip-path="url(#c2)"/><path stroke="#fff" stroke-width="4" d="M10.5 0V14M0 6H24"/><path fill="#fff" d="M48 0v4H22l-1-1V0zm0 9v4H21V9zm0 9v6H0v-6z"/><path fill="#c8102e" d="M48 3v4.2H0v-2.4h21V3zm0 9v3H0v-3zm0 9v3H0v-3zM9.3 0h2.4v13H9.3z"/><path d="M48 6v2.5H21V6z"/></svg>